<?xml version="1.0" encoding="UTF-8" standalone="no"?>
<!-- Created with Inkscape (http://www.inkscape.org/) -->

<svg
   xmlns:dc="http://purl.org/dc/elements/1.1/"
   xmlns:cc="http://creativecommons.org/ns#"
   xmlns:rdf="http://www.w3.org/1999/02/22-rdf-syntax-ns#"
   xmlns:svg="http://www.w3.org/2000/svg"
   xmlns="http://www.w3.org/2000/svg"
   xmlns:sodipodi="http://sodipodi.sourceforge.net/DTD/sodipodi-0.dtd"
   xmlns:inkscape="http://www.inkscape.org/namespaces/inkscape"
   width="60"
   height="64.625"
   id="svg3012"
   version="1.1"
   inkscape:version="0.48.4 r9939"
   sodipodi:docname="fontain-logo-footer.svg">
  <defs
     id="defs3014" />
  <sodipodi:namedview
     id="base"
     pagecolor="#ffffff"
     bordercolor="#666666"
     borderopacity="1.0"
     inkscape:pageopacity="0.0"
     inkscape:pageshadow="2"
     inkscape:zoom="9.999026"
     inkscape:cx="16.690849"
     inkscape:cy="30.682412"
     inkscape:document-units="px"
     inkscape:current-layer="layer1"
     showgrid="false"
     inkscape:window-width="1481"
     inkscape:window-height="1114"
     inkscape:window-x="380"
     inkscape:window-y="47"
     inkscape:window-maximized="0"
     fit-margin-top="0"
     fit-margin-left="0"
     fit-margin-right="0"
     fit-margin-bottom="0"
     inkscape:snap-nodes="false" />
  <metadata
     id="metadata3017">
    <rdf:RDF>
      <cc:Work
         rdf:about="">
        <dc:format>image/svg+xml</dc:format>
        <dc:type
           rdf:resource="http://purl.org/dc/dcmitype/StillImage" />
        <dc:title />
      </cc:Work>
    </rdf:RDF>
  </metadata>
  <g
     inkscape:label="Layer 1"
     inkscape:groupmode="layer"
     id="layer1"
     transform="translate(0,-14.0625)">
    <path
       style="color:#000000;fill:#eeeeee;fill-opacity:1;fill-rule:nonzero;stroke:none;stroke-width:0;marker:none;visibility:visible;display:inline;overflow:visible;enable-background:accumulate"
       d="m 2,16.0625 0,60.624999 56,0 0,-60.624999 z m 38.09375,18.093749 c 3.452236,2.779541 6.988871,5.890011 7.125,12.34375 0.10001,4.741355 -3.283704,7.1875 -7.125,7.1875 -3.841239,0 -7.108011,-2.246535 -7.15625,-7.1875 -0.0575,-5.890094 4.22617,-9.646659 7.15625,-12.34375 z"
       id="rect2984-7"
       inkscape:connector-curvature="0"
       sodipodi:nodetypes="ccccccsssc" />
    <path
       style="color:#000000;fill:#111111;fill-opacity:1;fill-rule:nonzero;stroke:none;stroke-width:0;marker:none;visibility:visible;display:inline;overflow:visible;enable-background:accumulate"
       d="m 0,14.0625 0,64.625 60,0 0,-64.625 z M 37.375,25 c 1.415247,3.2e-5 2.545973,0.39315 3.40625,1.15625 0.874102,0.763156 1.3125,1.744271 1.3125,2.9375 0,0.006 2.2e-5,2.275265 0,2.28125 -0.0048,1.639167 -0.669274,2.468775 -1.96875,2.46875 -0.582781,2.5e-5 -1.069873,-0.149598 -1.5,-0.46875 C 38.210984,33.043813 38.002194,32.336184 38,31.25 c -2.3e-5,-0.0059 0,-2.306609 0,-2.3125 -2.3e-5,-1.484606 -0.563644,-2.21872 -1.6875,-2.21875 -0.915762,3e-5 -1.858631,0.650647 -2.84375,1.96875 -0.971271,1.318159 -1.84802,4.390244 -2.625,9.21875 l 5,0 c 0.110972,1.8e-5 0.187477,0.08352 0.1875,0.25 -2.3e-5,0.333018 -0.180889,0.837511 -0.5,1.53125 -0.138782,0.291392 -0.250134,0.437516 -0.375,0.4375 l -4.78125,0 -3.5,17.34375 c -0.291368,1.470755 -0.757619,3.03286 -1.4375,4.65625 -0.666009,1.63725 -1.622749,2.834109 -2.84375,3.625 -1.221002,0.790867 -2.497861,1.187489 -3.84375,1.1875 -1.221001,-1.1e-5 -2.198627,-0.274884 -2.90625,-0.84375 -0.721495,-0.568889 -1.0625,-1.156882 -1.0625,-1.78125 0,-0.624388 0.191366,-1.146256 0.59375,-1.5625 0.402385,-0.41626 0.840759,-0.625007 1.3125,-0.625 0.832511,-7e-6 1.444873,0.438363 1.875,1.3125 0.416255,0.887995 0.851123,1.312491 1.28125,1.3125 0.638267,-9e-6 1.114882,-0.299254 1.40625,-0.9375 0.291367,-0.624386 0.583633,-1.668124 0.875,-3.125 l 4.15625,-20.5625 -3.75,0 c -0.110994,1.6e-5 -0.15625,-0.08698 -0.15625,-0.28125 0,-0.430111 0.14611,-0.94848 0.4375,-1.53125 0.138737,-0.277484 0.26749,-0.406232 0.40625,-0.40625 l 3.5,0 c 0.929634,-4.98113 2.244735,-8.383713 3.9375,-10.1875 C 32.348992,25.901145 34.586099,25.000032 37.375,25 z m 2.71875,9.15625 c 0.851983,3.17958 5.125,7.88877 5.125,12.34375 0,2.84117 -2.283801,5.1875 -5.125,5.1875 -2.841142,0 -5.15625,-2.34633 -5.15625,-5.1875 0,-4.18936 4.326375,-9.24662 5.15625,-12.34375 z"
       id="rect2984"
       inkscape:connector-curvature="0"
       sodipodi:nodetypes="cccccccsccccccccccccccccccsccccccccsccccccsssc" />
  </g>
</svg>
