<?xml version="1.0" encoding="UTF-8" standalone="no"?>
<!-- Created with Inkscape (http://www.inkscape.org/) -->

<svg
   xmlns:dc="http://purl.org/dc/elements/1.1/"
   xmlns:cc="http://creativecommons.org/ns#"
   xmlns:rdf="http://www.w3.org/1999/02/22-rdf-syntax-ns#"
   xmlns:svg="http://www.w3.org/2000/svg"
   xmlns="http://www.w3.org/2000/svg"
   xmlns:sodipodi="http://sodipodi.sourceforge.net/DTD/sodipodi-0.dtd"
   xmlns:inkscape="http://www.inkscape.org/namespaces/inkscape"
   width="60"
   height="84"
   id="svg3012"
   version="1.1"
   inkscape:version="0.48.3.1 r9886"
   sodipodi:docname="fontain-logo.svg">
  <defs
     id="defs3014" />
  <sodipodi:namedview
     id="base"
     pagecolor="#ffffff"
     bordercolor="#666666"
     borderopacity="1.0"
     inkscape:pageopacity="0.0"
     inkscape:pageshadow="2"
     inkscape:zoom="8.5448272"
     inkscape:cx="23.685535"
     inkscape:cy="23.951329"
     inkscape:document-units="px"
     inkscape:current-layer="layer1"
     showgrid="false"
     inkscape:window-width="1481"
     inkscape:window-height="1114"
     inkscape:window-x="380"
     inkscape:window-y="47"
     inkscape:window-maximized="0"
     fit-margin-top="0"
     fit-margin-left="0"
     fit-margin-right="0"
     fit-margin-bottom="0"
     inkscape:snap-nodes="false" />
  <metadata
     id="metadata3017">
    <rdf:RDF>
      <cc:Work
         rdf:about="">
        <dc:format>image/svg+xml</dc:format>
        <dc:type
           rdf:resource="http://purl.org/dc/dcmitype/StillImage" />
        <dc:title />
      </cc:Work>
    </rdf:RDF>
  </metadata>
  <g
     inkscape:label="Layer 1"
     inkscape:groupmode="layer"
     id="layer1">
    <path
       style="color:#000000;fill:#eeeeee;fill-opacity:1;fill-rule:nonzero;stroke:none;stroke-width:0;marker:none;visibility:visible;display:inline;overflow:visible;enable-background:accumulate"
       d="M 0 0 L 0 84 L 60 84 L 60 0 L 0 0 z M 40.09375 34.15625 C 40.945733 37.335829 45.21875 42.04502 45.21875 46.5 C 45.21875 49.34117 42.934949 51.6875 40.09375 51.6875 C 37.252608 51.6875 34.9375 49.34117 34.9375 46.5 C 34.9375 42.31064 39.263875 37.253379 40.09375 34.15625 z "
       id="rect3821" />
    <path
       style="color:#000000;fill:#111111;fill-opacity:1;fill-rule:nonzero;stroke:none;stroke-width:0;marker:none;visibility:visible;display:inline;overflow:visible;enable-background:accumulate"
       d="M 0 0.0625 L 0 82.6875 L 30 76.25 L 60 82.6875 L 60 0.0625 L 0 0.0625 z M 37.375 25 C 38.790247 25.000032 39.920973 25.39315 40.78125 26.15625 C 41.655352 26.919406 42.09375 27.900521 42.09375 29.09375 C 42.09375 29.09975 42.093772 31.369015 42.09375 31.375 C 42.08895 33.014167 41.424476 33.843775 40.125 33.84375 C 39.542219 33.843775 39.055127 33.694152 38.625 33.375 C 38.210984 33.043813 38.002194 32.336184 38 31.25 C 37.999977 31.2441 38 28.943391 38 28.9375 C 37.999977 27.452894 37.436356 26.71878 36.3125 26.71875 C 35.396738 26.71878 34.453869 27.369397 33.46875 28.6875 C 32.497479 30.005659 31.62073 33.077744 30.84375 37.90625 L 35.84375 37.90625 C 35.954722 37.906268 36.031227 37.989769 36.03125 38.15625 C 36.031227 38.489268 35.850361 38.993761 35.53125 39.6875 C 35.392468 39.978892 35.281116 40.125016 35.15625 40.125 L 30.375 40.125 L 26.875 57.46875 C 26.583632 58.939505 26.117381 60.50161 25.4375 62.125 C 24.771491 63.76225 23.814751 64.959109 22.59375 65.75 C 21.372748 66.540867 20.095889 66.937489 18.75 66.9375 C 17.528999 66.937489 16.551373 66.662616 15.84375 66.09375 C 15.122255 65.524861 14.78125 64.936868 14.78125 64.3125 C 14.78125 63.688112 14.972616 63.166244 15.375 62.75 C 15.777385 62.33374 16.215759 62.124993 16.6875 62.125 C 17.520011 62.124993 18.132373 62.563363 18.5625 63.4375 C 18.978755 64.325495 19.413623 64.749991 19.84375 64.75 C 20.482017 64.749991 20.958632 64.450746 21.25 63.8125 C 21.541367 63.188114 21.833633 62.144376 22.125 60.6875 L 26.28125 40.125 L 22.53125 40.125 C 22.420256 40.125016 22.375 40.038017 22.375 39.84375 C 22.375 39.413639 22.52111 38.89527 22.8125 38.3125 C 22.951237 38.035016 23.07999 37.906268 23.21875 37.90625 L 26.71875 37.90625 C 27.648384 32.92512 28.963485 29.522537 30.65625 27.71875 C 32.348992 25.901145 34.586099 25.000032 37.375 25 z M 40.09375 34.15625 C 40.945733 37.33583 45.21875 42.04502 45.21875 46.5 C 45.21875 49.34117 42.934949 51.6875 40.09375 51.6875 C 37.252608 51.6875 34.9375 49.34117 34.9375 46.5 C 34.9375 42.31064 39.263875 37.25338 40.09375 34.15625 z "
       id="rect2984" />
  </g>
</svg>
