<?xml version="1.0" encoding="UTF-8" standalone="no"?>
<!-- Created with Inkscape (http://www.inkscape.org/) -->

<svg
   xmlns:dc="http://purl.org/dc/elements/1.1/"
   xmlns:cc="http://creativecommons.org/ns#"
   xmlns:rdf="http://www.w3.org/1999/02/22-rdf-syntax-ns#"
   xmlns:svg="http://www.w3.org/2000/svg"
   xmlns="http://www.w3.org/2000/svg"
   xmlns:sodipodi="http://sodipodi.sourceforge.net/DTD/sodipodi-0.dtd"
   xmlns:inkscape="http://www.inkscape.org/namespaces/inkscape"
   width="251.56795"
   height="357.49127"
   id="svg3012"
   version="1.1"
   inkscape:version="0.48.4 r9939"
   sodipodi:docname="fontain-logo.svg">
  <defs
     id="defs3014" />
  <sodipodi:namedview
     id="base"
     pagecolor="#ffffff"
     bordercolor="#666666"
     borderopacity="1.0"
     inkscape:pageopacity="0.0"
     inkscape:pageshadow="2"
     inkscape:zoom="1.0681034"
     inkscape:cx="160.61744"
     inkscape:cy="113.62926"
     inkscape:document-units="px"
     inkscape:current-layer="layer1"
     showgrid="false"
     inkscape:window-width="1481"
     inkscape:window-height="1114"
     inkscape:window-x="380"
     inkscape:window-y="47"
     inkscape:window-maximized="0"
     fit-margin-top="0"
     fit-margin-left="0"
     fit-margin-right="0"
     fit-margin-bottom="0"
     inkscape:snap-nodes="false" />
  <metadata
     id="metadata3017">
    <rdf:RDF>
      <cc:Work
         rdf:about="">
        <dc:format>image/svg+xml</dc:format>
        <dc:type
           rdf:resource="http://purl.org/dc/dcmitype/StillImage" />
        <dc:title />
      </cc:Work>
    </rdf:RDF>
  </metadata>
  <g
     inkscape:label="Layer 1"
     inkscape:groupmode="layer"
     id="layer1"
     transform="translate(-143.85281,-310.00073)">
    <path
       style="fill:#111111;fill-opacity:1;fill-rule:nonzero;stroke:none"
       d="M 0 0 L 0 357.5 L 87.21875 329.78125 C 88.434818 329.23658 89.815179 328.65641 90.90625 328.09375 C 92.161202 327.44658 93.330153 326.78511 94.40625 326.0625 C 95.482347 325.33989 96.460937 324.57205 97.34375 323.71875 C 98.226563 322.86545 99.012401 321.91423 99.6875 320.875 C 100.3626 319.83577 100.92205 318.71791 101.375 317.4375 C 101.82795 316.15709 102.15862 314.73308 102.375 313.15625 C 102.59138 311.57942 102.69088 309.83475 102.65625 307.90625 L 102.65625 259.28125 C 102.65625 255.47725 102.66695 251.54975 102.34375 247.8125 C 102.18215 245.94387 101.92526 244.11641 101.5625 242.375 C 101.19974 240.63359 100.73791 238.978 100.09375 237.4375 C 99.449594 235.897 98.630791 234.48466 97.625 233.21875 C 96.619209 231.95284 95.416414 230.82387 93.96875 229.90625 C 92.521086 228.98863 90.813525 228.27691 88.84375 227.78125 C 86.873975 227.28559 84.634625 227.03125 82.0625 227.03125 C 81.37 227.03125 80.747969 226.93309 80.21875 226.75 C 79.689531 226.56691 79.265625 226.29688 78.90625 225.9375 C 78.546875 225.57812 78.276719 225.12259 78.09375 224.59375 C 77.910781 224.06491 77.8125 223.4415 77.8125 222.75 L 77.8125 214.25 C 77.8125 213.5585 77.910781 212.935 78.09375 212.40625 C 78.276719 211.8775 78.546875 211.42175 78.90625 211.0625 C 79.265625 210.70325 79.689531 210.433 80.21875 210.25 C 80.747969 210.067 81.37 210 82.0625 210 L 103.125 210 L 103.0625 207.625 C 103.0625 203.41537 103.0734 198.97374 103.15625 194.40625 C 103.2391 189.83876 103.41705 185.14151 103.78125 180.46875 C 104.14545 175.79599 104.68718 171.11919 105.53125 166.59375 C 105.95328 164.33103 106.45203 162.11603 107.03125 159.9375 C 107.61047 157.75897 108.27003 155.62527 109.03125 153.5625 C 109.79247 151.49973 110.65697 149.50918 111.625 147.59375 C 112.59303 145.67832 113.67534 143.83027 114.875 142.09375 C 116.07466 140.35723 117.38765 138.74478 118.84375 137.21875 C 120.29985 135.69272 121.88765 134.25272 123.625 132.96875 C 125.36235 131.68478 127.23783 130.54159 129.28125 129.53125 C 131.32467 128.52091 133.53195 127.64263 135.90625 126.9375 C 138.28055 126.23237 140.83251 125.7121 143.5625 125.34375 C 146.29249 124.9754 149.202 124.78125 152.3125 124.78125 C 154.97794 124.78125 157.47946 124.89765 159.8125 125.15625 C 162.14554 125.41485 164.321 125.79477 166.34375 126.28125 C 168.3665 126.76773 170.23419 127.37885 171.96875 128.0625 C 173.70331 128.74615 175.31276 129.52491 176.78125 130.375 C 178.24974 131.22509 179.58798 132.13919 180.8125 133.125 C 182.03702 134.11081 183.12234 135.15918 184.125 136.25 C 185.12766 137.34082 186.04084 138.49114 186.84375 139.65625 C 187.64666 140.82136 188.34348 142.01008 188.96875 143.21875 C 190.21928 145.63609 191.1399 148.09271 191.8125 150.5 C 192.4851 152.90729 192.91596 155.25476 193.1875 157.40625 C 193.45904 159.55774 193.57766 161.50631 193.625 163.15625 C 193.67234 164.80619 193.65625 166.15987 193.65625 167.0625 C 193.65625 167.88525 193.55897 168.61961 193.34375 169.28125 C 193.12853 169.94289 192.78312 170.52919 192.3125 171 C 191.84188 171.47081 191.23497 171.84348 190.46875 172.09375 C 189.70253 172.34402 188.7895 172.46875 187.6875 172.46875 C 187.6875 172.46875 172.39075 172.84375 170.09375 172.84375 C 169.51925 172.84375 169.02616 172.63986 168.625 172.28125 C 168.22384 171.92264 167.90387 171.41694 167.65625 170.84375 C 167.161 169.69737 166.96875 168.2655 166.96875 167.125 C 166.96875 164.037 166.74079 161.29714 166.375 158.875 C 166.00921 156.45286 165.50224 154.33623 164.84375 152.5 C 164.18526 150.66377 163.37809 149.11154 162.5 147.78125 C 161.62191 146.45096 160.64959 145.37306 159.625 144.46875 C 158.60041 143.56444 157.5355 142.83954 156.4375 142.28125 C 155.3395 141.72296 154.2233 141.32348 153.125 141.03125 C 150.92839 140.44678 148.7905 140.3125 147.03125 140.3125 C 146.00525 140.3125 144.97591 140.4317 143.9375 140.6875 C 142.89909 140.9433 141.85988 141.32406 140.84375 141.84375 C 139.82762 142.36344 138.83416 143.02083 137.875 143.8125 C 136.91584 144.60417 135.9925 145.522 135.125 146.59375 C 134.26975 147.65075 133.55573 148.81081 132.9375 150.0625 C 132.31927 151.31419 131.79394 152.6752 131.375 154.125 C 130.95606 155.5748 130.63238 157.12989 130.375 158.78125 C 130.11762 160.43261 129.94603 162.17491 129.8125 164.03125 C 129.54544 167.74394 129.46677 171.88427 129.46875 176.4375 C 129.47073 180.99073 129.53075 185.95375 129.5 191.375 L 129.5 210 L 156.0625 210 C 156.75475 210 157.37736 210.067 157.90625 210.25 C 158.43514 210.433 158.89094 210.70325 159.25 211.0625 C 159.60906 211.42175 159.87973 211.8775 160.0625 212.40625 C 160.24527 212.935 160.3125 213.5585 160.3125 214.25 L 160.3125 226.4375 C 160.3125 227.12975 160.24527 227.75208 160.0625 228.28125 C 159.87973 228.81042 159.60906 229.26556 159.25 229.625 C 158.89094 229.98444 158.43514 230.25445 157.90625 230.4375 C 157.37736 230.62055 156.75475 230.71875 156.0625 230.71875 L 129.65625 230.71875 L 129.65625 307.90625 C 129.65625 309.83475 129.71214 311.46863 129.84375 312.84375 C 129.97536 314.21887 130.17229 315.33185 130.46875 316.28125 C 130.76521 317.23065 131.16172 318.00492 131.65625 318.65625 C 131.98143 319.08453 132.42103 319.40485 132.84375 319.75 L 251.5625 357.5 L 251.5625 0 L 0 0 z M 180.71875 173.59375 L 186.09375 182.90625 L 191.46875 192.21875 C 192.88375 194.29975 193.71875 196.794 193.71875 199.5 C 193.71875 206.681 187.89875 212.5 180.71875 212.5 C 173.53675 212.5 167.71875 206.681 167.71875 199.5 C 167.71875 196.794 168.5225 194.29975 169.9375 192.21875 L 175.3125 182.90625 L 180.71875 173.59375 z "
       id="rect3153"
       transform="translate(143.85281,310.00073)" />
  </g>
</svg>
