<?xml version="1.0" standalone="no"?>
<!DOCTYPE svg PUBLIC "-//W3C//DTD SVG 1.1//EN" "http://www.w3.org/Graphics/SVG/1.1/DTD/svg11.dtd" >
<!--
2004-9-22: Created.
-->
<svg>
<metadata>
Created by FontForge 20110222 at Tue Sep 16 16:12:33 2014
 By Christoph Haag,,,
Created by Sauter,U-TOWN_HALL\Sauter,S-1-5-21-2526881554-1349 with FontForge 1.0 (http://fontforge.sf.net)
</metadata>
<defs>
<font id="OCRA" horiz-adv-x="715" >
  <font-face 
    font-family="OCRA"
    font-weight="500"
    font-stretch="normal"
    units-per-em="1000"
    panose-1="2 0 6 9 0 0 0 0 0 0"
    ascent="800"
    descent="-200"
    x-height="537.679"
    cap-height="739.699"
    bbox="82.5303 -201.154 602.41 1047.89"
    underline-thickness="50"
    underline-position="-100"
    unicode-range="U+0020-2442"
  />
    <missing-glyph />
    <glyph glyph-name="odieresis" unicode="&#xf6;" 
d="M317.229 577.896c9.58398 1.29102 39.94 1.32397 49.759 0.0549927c30.724 -3.96899 59.366 -19.951 78.162 -43.614c2.242 -2.82098 13.345 -18.373 24.73 -34.639c11.371 -16.244 36.01 -51.325 54.79 -78.011c18.779 -26.687 35.489 -50.526 37.157 -53.012
c8.87299 -13.226 13.954 -26.747 16.186 -43.072c0.817017 -5.97501 0.927002 -12.019 0.721985 -39.669c-0.23999 -32.591 -0.242004 -32.627 -1.83301 -39.911c-2.68396 -12.289 -7.68396 -24.739 -13.57 -33.794c-1.33398 -2.05301 -22.058 -31.627 -46.012 -65.664
c-23.955 -34.036 -49.106 -69.7955 -55.843 -79.397c-6.76398 -9.6387 -14.082 -19.7647 -16.327 -22.5899c-18.796 -23.6631 -47.438 -39.6513 -78.162 -43.6318c-10.3 -1.33398 -38.699 -1.33691 -48.975 -0.00488299c-30.784 3.99121 -59.346 19.9277 -78.207 43.6367
c-5.358 6.7324 -110.535 156.687 -117.802 167.951c-5.876 9.10899 -10.68 21.145 -13.368 33.494c-1.586 7.28401 -1.587 7.32001 -1.828 39.911c-0.204002 27.65 -0.0950012 33.684 0.719002 39.608c1.806 13.133 5.898 25.735 11.718 36.084
c2.824 5.022 14.841 22.35 85.519 123.313c34.622 49.458 34.93 49.877 42.513 57.711c18.451 19.062 43.507 31.686 69.952 35.246zM362.229 480.903l-4.09601 1.92798l-14.457 0.119995c-7.952 0.0670166 -15.461 -0.126984 -16.688 -0.427979
c-3.49402 -0.861023 -7.98102 -3.34601 -10.542 -5.83801c-1.29102 -1.25699 -10.234 -13.553 -19.849 -27.288c-9.62997 -13.756 -34.676 -49.518 -55.693 -79.518l-38.193 -54.518l-0.181 -25.602l-0.179993 -25.603l38.132 -54.518
c20.984 -30 45.99 -65.747 55.603 -79.488c9.60901 -13.735 18.636 -26.163 20.061 -27.621c1.42999 -1.464 4.397 -3.4997 6.625 -4.5476l4.03702 -1.8974h15.663h15.662l4.03601 1.8974c2.229 1.0479 5.19598 3.0836 6.62698 4.5476
c1.423 1.456 16.761 22.863 34.036 47.5c17.275 24.639 42.454 60.459 55.873 79.489l24.428 34.638v25c0 23.193 -0.0799866 25.131 -1.11398 26.808c-0.613007 0.993011 -10.965 15.783 -22.982 32.831c-12.02 17.053 -36.599 52.048 -54.578 77.711
c-17.98 25.662 -33.932 47.989 -35.422 49.578c-1.67499 1.78598 -4.27698 3.629 -6.80798 4.819zM522.29 738.912c4.85803 1.03601 15.723 0.692017 20.783 -0.657959c2.008 -0.536011 6.02502 -2.14105 9.03601 -3.61005c9.82001 -4.79095 16.899 -11.873 21.687 -21.692
c5.02399 -10.303 4.74597 -7.04901 4.995 -58.434c0.23999 -49.639 0.169983 -51.053 -2.96802 -59.699c-4.38 -12.071 -14.799 -22.795 -26.907 -27.694c-6.698 -2.711 -10.843 -3.49799 -18.192 -3.45599c-7.591 0.0440063 -14.405 1.62 -20.663 4.77997
c-13.79 6.96204 -23.196 19.382 -26.084 34.4431c-1.24799 6.50494 -1.24899 90.686 -0.000976562 97.1689c2.052 10.662 5.58499 17.21 13.615 25.2401c7.83899 7.83899 14.277 11.387 24.699 13.611zM145.783 738.912c4.86 1.03601 15.724 0.692017 20.783 -0.657959
c2.009 -0.536011 6.02501 -2.14105 9.037 -3.61005c9.819 -4.79095 16.899 -11.873 21.687 -21.692c5.02301 -10.303 4.74501 -7.04901 4.994 -58.434c0.240005 -49.639 0.169998 -51.053 -2.967 -59.699c-4.38 -12.071 -14.798 -22.795 -26.907 -27.694
c-6.698 -2.711 -10.844 -3.49799 -18.192 -3.45599c-7.591 0.0440063 -14.406 1.62 -20.663 4.77997c-13.789 6.96204 -23.196 19.382 -26.085 34.4431c-1.248 6.50494 -1.248 90.686 0 97.1689c2.052 10.662 5.585 17.21 13.615 25.2401
c7.839 7.83899 14.277 11.387 24.698 13.611z" />
    <glyph glyph-name="udieresis" unicode="&#xfc;" 
d="M146.627 578.018c5.821 1.05798 9.45801 1.05701 15.602 -0.00201416c10.121 -1.74597 17.492 -5.45898 25.061 -12.622c6.93701 -6.56598 10.684 -12.864 13.817 -23.226c0.92601 -3.06201 1.02501 -18.614 1.30301 -205.12
c0.285995 -191.928 0.354996 -201.985 1.386 -205.422c4.13899 -13.795 13.586 -25.079 25.964 -31.01c10.283 -4.9275 0.422012 -4.532 113.011 -4.532c112.591 0 102.729 -0.3955 113.013 4.532c12.377 5.931 21.825 17.215 25.964 31.01
c1.03101 3.437 1.099 13.494 1.38501 205.422c0.282013 188.975 0.367004 202.025 1.336 205.241c4.246 14.097 12.734 24.787 24.508 30.865c19.578 10.109 41.523 6.32501 56.736 -9.78101c5.05798 -5.354 7.83496 -9.698 10.013 -15.662
c3.383 -9.26501 3.19 3.61401 3.19 -212.531c0 -194.879 -0.0270386 -199.795 -1.18903 -208.795c-2.15497 -16.687 -6.354 -30.5803 -13.894 -45.9641c-21.26 -43.3789 -62.868 -72.999 -111.302 -79.2344c-8.84201 -1.13867 -13.313 -1.1875 -109.638 -1.1875
c-85.784 0 -101.555 0.132813 -108.194 0.90918c-66.928 7.82325 -119.342 60.2109 -127.168 127.104c-1.332 11.385 -1.382 404.376 -0.052002 411.325c2.744 14.338 12.279 27.2531 24.871 33.686c6.144 3.13898 8.38599 3.92297 14.277 4.995zM427.712 738.912
c4.858 1.03601 15.723 0.692017 20.783 -0.657959c2.008 -0.536011 6.02402 -2.14105 9.03601 -3.61005c9.82001 -4.79095 16.899 -11.873 21.687 -21.692c5.02301 -10.303 4.746 -7.04901 4.99402 -58.434c0.240997 -49.639 0.17099 -51.053 -2.96701 -59.699
c-4.38 -12.071 -14.799 -22.795 -26.907 -27.694c-6.698 -2.711 -10.843 -3.49799 -18.192 -3.45599c-7.591 0.0440063 -14.406 1.62 -20.664 4.77997c-13.789 6.96204 -23.195 19.382 -26.084 34.4431c-1.24802 6.50494 -1.24902 90.686 -0.00100708 97.1689
c2.05301 10.662 5.58499 17.21 13.616 25.2401c7.83899 7.83899 14.277 11.387 24.699 13.611zM239.76 738.912c4.858 1.03601 15.722 0.692017 20.783 -0.657959c2.008 -0.536011 6.02301 -2.14105 9.03601 -3.61005c9.819 -4.79095 16.899 -11.873 21.687 -21.692
c5.02402 -10.303 4.746 -7.04901 4.995 -58.434c0.240021 -49.639 0.170013 -51.053 -2.96799 -59.699c-4.38 -12.071 -14.799 -22.795 -26.907 -27.694c-6.698 -2.711 -10.843 -3.49799 -18.193 -3.45599c-7.59 0.0440063 -14.404 1.62 -20.663 4.77997
c-13.789 6.96204 -23.195 19.382 -26.084 34.4431c-1.248 6.50494 -1.24899 90.686 -0.000991821 97.1689c2.05299 10.662 5.58499 17.21 13.616 25.2401c7.838 7.83899 14.277 11.387 24.699 13.611z" />
    <glyph glyph-name="sterling" unicode="&#xa3;" 
d="M490.362 738.543c10.723 1.42798 42.081 1.659 48.856 0.359985c22.956 -4.40002 39.217 -23.903 39.217 -47.036c0 -21.988 -14.194 -40.244 -36.145 -46.492c-2.66199 -0.757996 -7.83099 -1.078 -23.012 -1.42499
c-21.687 -0.496033 -22.952 -0.684998 -31.627 -4.74103c-9.45801 -4.42096 -17.739 -12.643 -22.26 -22.101c-1.311 -2.74097 -11.951 -38.192 -30.39 -101.265c-15.605 -53.373 -28.374 -97.211 -28.374 -97.409c0 -0.199982 28.855 -0.362 64.097 -0.362
c52.65 0 64.881 -0.151001 68.494 -0.843994c22.956 -4.40799 39.217 -23.916 39.217 -47.048c0 -23.132 -16.261 -42.64 -39.217 -47.047c-3.64301 -0.699005 -17.831 -0.843994 -82.651 -0.843994h-78.254l-0.330994 -1.35501
c-0.181 -0.746002 -15.042 -51.658 -33.011 -113.103l-32.681 -111.747l113.314 -0.298798c124.397 -0.328201 114.361 -0.0195999 123.674 -3.8077c17.33 -7.0478 29.157 -24.9296 29.157 -44.0869c0 -23.5537 -17.206 -43.6347 -40.483 -47.25
c-3.37805 -0.524414 -53.373 -0.65625 -198.192 -0.520508l-193.675 0.180664l-4.397 1.36328c-21.502 6.66309 -35.061 24.54 -35.061 46.2265c0 21.6875 13.668 39.6953 35.061 46.1944c4.282 1.3007 5.26999 1.3418 37.68 1.5468
c18.314 0.116203 33.283 0.333 33.283 0.482506c0 0.148399 14.783 50.8427 32.831 112.59c18.049 61.747 32.831 112.591 32.831 112.922c0 0.402985 -21.897 0.661987 -66.114 0.78299l-66.114 0.181l-4.397 1.35602c-21.466 6.62 -35.061 24.548 -35.061 46.234
c0 21.687 13.595 39.615 35.061 46.235l4.397 1.35599l80.331 0.300995l80.332 0.300995l32.409 110.874c17.821 60.964 33.405 113.558 34.618 116.837c12.739 34.397 38.544 62.797 71.707 78.914c14.886 7.23499 28.615 11.379 44.88 13.545z" />
    <glyph glyph-name="yen" unicode="&#xa5;" 
d="M146.868 739.135c10.422 1.75702 22.785 -0.705017 32.169 -6.40601c5.052 -3.06903 11.414 -9.23499 14.812 -14.356c1.561 -2.35199 35.631 -60.392 75.73 -129.006l72.892 -124.728l1.29498 2.168c0.712006 1.19299 33.211 56.807 72.199 123.554
c38.988 66.7469 72.122 123.366 73.611 125.784c16.211 26.325 51.381 31.495 73.497 10.803c4.65698 -4.35699 8.52002 -9.59802 11.025 -14.96c5.88196 -12.591 5.91595 -27.71 0.0869751 -40c-0.942993 -1.98798 -42.696 -73.675 -92.769 -159.277l-91.054 -155.663
v-9.85001v-9.849h72.229c59.638 0 72.996 -0.14801 76.627 -0.843994c22.956 -4.40701 39.217 -23.915 39.217 -47.048s-16.261 -42.64 -39.217 -47.047c-3.63104 -0.697006 -16.989 -0.845001 -76.627 -0.845001h-72.229l-0.178009 -101.084
c-0.200989 -113.735 0.270996 -102.921 -4.95898 -113.674c-4.77701 -9.8193 -11.851 -16.8964 -21.67 -21.6797c-12.244 -5.96484 -24.398 -6.66504 -37.169 -2.14355c-6.92798 2.45312 -11.064 5.18848 -17.349 11.4736c-6.142 6.1426 -8.901 10.2412 -11.273 16.7471
c-3.29901 9.0469 -3.185 5.0605 -3.185 111.627v98.675l-74.247 0.181l-74.247 0.180008l-4.397 1.35699c-21.466 6.619 -35.061 24.547 -35.061 46.233c0 21.688 13.595 39.615 35.061 46.234l4.397 1.35699l74.247 0.181l74.247 0.179993v9.82001v9.819l-91.055 155.663
c-50.072 85.602 -91.85 157.397 -92.823 159.518c-5.561 12.125 -5.54099 27.048 0.0550003 39.398c6.50401 14.352 20.268 24.837 36.112 27.508z" />
    <glyph glyph-name="space" unicode=" " 
d="M390 528z" />
    <glyph glyph-name="quotedbl" unicode="&#x22;" 
d="M106.627 712.681v27.0779h236.144h236.145v-34.488v-34.488l-2.59003 -13.253l-2.591 -13.2531l-1.80597 -0.179993l-1.80804 -0.180969l-19.488 -100.121c-10.717 -55.061 -20.001 -102.289 -20.628 -104.94c-3.92499 -16.582 -18.257 -30.871 -35.125 -35.018
c-6.08401 -1.496 -17.26 -1.36401 -23.313 0.273987c-16.265 4.40402 -29.634 17.591 -33.879 33.419c-0.549988 2.05402 -9.87799 49.277 -20.729 104.94l-19.73 101.205h-54.758h-54.759l-19.73 -101.205c-10.85 -55.663 -20.177 -102.886 -20.727 -104.94
c-4.22501 -15.804 -17.315 -28.741 -33.82 -33.426c-3.681 -1.04401 -6.26599 -1.33301 -11.928 -1.33301c-7.41 0 -10.906 0.632019 -17.832 3.22299c-11.858 4.43802 -23.26 16.174 -27.303 28.102c-0.942993 2.785 -9.11099 43.254 -19.684 97.53
c-9.941 51.024 -20.77 106.543 -24.067 123.374l-5.994 30.603v27.078z" />
    <glyph glyph-name="numbersign" unicode="#" 
d="M239.76 738.912c4.858 1.03601 15.722 0.692017 20.783 -0.657959c2.008 -0.536011 6.02301 -2.14105 9.03601 -3.61005c9.819 -4.79095 16.893 -11.873 21.669 -21.692c5.125 -10.536 4.76102 -5.18103 4.992 -73.374l0.206024 -60.662h46.055h46.054v58.373
c0 62.831 -0.0159912 62.488 3.18402 71.265c2.37198 6.50696 5.13199 10.605 11.274 16.747c6.285 6.28595 10.422 9.021 17.349 11.474c12.771 4.52197 24.925 3.82098 37.169 -2.14301c9.82001 -4.78302 16.893 -11.861 21.669 -21.68
c5.125 -10.536 4.76099 -5.18103 4.99197 -73.374l0.206024 -60.662h25.211c19.217 0 26.256 -0.200989 29.609 -0.845032c22.956 -4.40698 39.217 -23.915 39.217 -47.048c0 -23.131 -16.261 -42.639 -39.217 -47.046
c-3.349 -0.642975 -10.422 -0.845001 -29.639 -0.845001h-25.241v-52.71v-52.711h25.241c19.217 0 26.29 -0.201996 29.639 -0.845001c22.956 -4.40698 39.217 -23.915 39.217 -47.047s-16.261 -42.64 -39.217 -47.048
c-3.349 -0.641998 -10.422 -0.842987 -29.639 -0.842987h-25.241v-58.675c0 -47.952 -0.154022 -59.479 -0.844025 -63.072c-4.40698 -22.957 -23.915 -39.217 -47.048 -39.217c-23.133 0 -42.639 16.26 -47.047 39.217c-0.689972 3.593 -0.843994 15.12 -0.843994 63.072
v58.675h-46.084h-46.085v-58.675c0 -47.952 -0.154999 -59.479 -0.843994 -63.072c-4.40698 -22.957 -23.915 -39.217 -47.048 -39.217c-23.132 0 -42.64 16.26 -47.047 39.217c-0.690002 3.595 -0.844009 15.09 -0.844009 63.042v58.644l-27.259 0.210999
c-26.084 0.200989 -27.448 0.268005 -31.656 1.54001c-21.417 6.474 -35.061 24.454 -35.061 46.201s13.644 39.727 35.061 46.201c4.20799 1.272 5.57199 1.33801 31.656 1.54001l27.259 0.210999v52.651v52.65l-27.259 0.210999
c-26.084 0.201019 -27.448 0.268005 -31.656 1.54001c-21.357 6.45599 -35.061 24.514 -35.061 46.2c0 21.748 13.644 39.728 35.061 46.202c4.20799 1.27203 5.57199 1.33801 31.656 1.54004l27.259 0.210999v58.313c0 62.831 -0.0149994 62.488 3.18401 71.265
c2.37199 6.50696 5.132 10.605 11.274 16.747c7.838 7.83899 14.277 11.387 24.699 13.611zM388.555 430.422v52.71h-46.084h-46.085v-52.71v-52.711h46.085h46.084v52.711z" />
    <glyph glyph-name="dollar" unicode="$" 
d="M333.735 738.912c4.86002 1.03601 15.724 0.692017 20.784 -0.657959c2.00699 -0.536011 6.02399 -2.14105 9.03598 -3.61005c9.819 -4.79095 16.893 -11.873 21.67 -21.692c5.125 -10.536 4.75998 -5.18103 4.992 -73.374l0.204987 -60.662h72.199
c59.639 0 72.964 -0.147034 76.597 -0.845032c22.956 -4.40698 39.217 -23.915 39.217 -47.048c0 -23.131 -16.261 -42.639 -39.217 -47.046c-3.71704 -0.713989 -30.12 -0.845001 -170.603 -0.845001h-166.205v-32.529v-32.531l168.525 -0.149994
c160 -0.143982 168.707 -0.205994 172.138 -1.24301c5.66199 -1.711 14.083 -6.06799 18.193 -9.41199c5.26099 -4.28299 9.44299 -9.617 12.547 -16.002c5.21704 -10.735 4.802 -1.92801 4.802 -101.808c0 -99.879 0.416992 -91.072 -4.81799 -101.807
c-4.78802 -9.819 -11.868 -16.893 -21.688 -21.67c-10.637 -5.17299 -3.37402 -4.75699 -87.169 -4.991l-74.518 -0.207001l-0.204987 -60.662c-0.232025 -68.1327 0.132996 -62.7762 -4.992 -73.3134c-4.77701 -9.8193 -11.851 -16.8964 -21.67 -21.6797
c-12.244 -5.96484 -24.398 -6.66504 -37.169 -2.14355c-6.92798 2.45312 -11.064 5.18848 -17.349 11.4736c-6.142 6.1426 -8.901 10.2412 -11.273 16.7471c-3.20102 8.7773 -3.185 8.4336 -3.185 71.2659v58.312l-74.247 0.182007l-74.247 0.181l-4.397 1.355
c-21.466 6.62 -35.061 24.548 -35.061 46.234c0 21.747 13.499 39.545 35.061 46.228l4.397 1.36301l168.524 0.151001l168.524 0.149994v32.831v32.832h-166.204c-179.82 0 -169.877 -0.177002 -179.097 3.185c-6.506 2.37201 -10.605 5.13 -16.747 11.273
c-8.019 8.01898 -11.564 14.578 -13.61 25.181c-1.268 6.56598 -1.268 170.783 0 177.349c2.04601 10.6021 5.591 17.162 13.61 25.181c6.142 6.14197 10.241 8.901 16.747 11.272c8.894 3.24402 7.35001 3.18604 84.819 3.18604h71.928v58.373
c0 62.831 -0.0160217 62.488 3.185 71.266c2.37198 6.50598 5.13098 10.604 11.273 16.746c7.83801 7.83899 14.276 11.387 24.698 13.611z" />
    <glyph glyph-name="percent" unicode="%" 
d="M427.712 175.594c3.11899 0.631012 14.879 0.766998 57.831 0.674011c60.542 -0.132004 56.09 0.195999 66.566 -4.90001c9.82001 -4.776 16.9 -11.85 21.688 -21.67c5.07703 -10.41 4.81799 -7.108 4.81799 -61.4451c0 -54.3379 0.259033 -51.0361 -4.81799 -61.4463
c-4.78802 -9.8193 -11.868 -16.8984 -21.688 -21.6865c-10.393 -5.06836 -6.14398 -4.74414 -65.361 -4.9961c-56.627 -0.240234 -57.805 -0.190429 -66.325 2.83203c-6.98801 2.47852 -11.111 5.20313 -17.41 11.5009c-6.142 6.1426 -8.90201 10.2412 -11.274 16.7471
c-3.12903 8.583 -3.18402 9.5781 -3.18402 57.0488c0 47.4701 0.0549927 48.4661 3.18402 57.0481c2.37198 6.50601 5.13199 10.604 11.274 16.747c7.85699 7.85699 14.458 11.477 24.699 13.546zM521.748 658.396c1.45001 0.285034 5.54199 0.549011 9.03601 0.585999
c8.01202 0.0830078 13.834 -1.29999 21.626 -5.138c4.93005 -2.42902 6.56702 -3.66296 11.808 -8.90497c5.30096 -5.30005 6.44598 -6.82001 8.89301 -11.806c3.87396 -7.89197 5.32996 -13.796 5.349 -21.688c0.0229492 -9.51703 -2.40802 -18.092 -7.17303 -25.3
c-1.20502 -1.82404 -86.867 -111.989 -190.413 -244.88c-146.776 -188.373 -189.463 -242.788 -193.855 -247.109c-4.63899 -4.5644 -6.62199 -6.0292 -11.236 -8.3027c-8.45401 -4.167 -14.095 -5.3711 -23.373 -4.9883c-13.433 0.554703 -22.028 4.3448 -31.686 13.9727
c-5.242 5.2241 -6.475 6.8581 -8.896 11.7881c-4.232 8.619 -5.404 14.097 -5.075 23.735c0.308998 9.09601 1.834 14.62 5.951 21.567c1.296 2.186 86.904 112.5 190.248 245.15c142.345 182.711 189.403 242.716 194.127 247.53
c5.082 5.18103 7.12598 6.81006 11.054 8.81305c5.12103 2.61096 9.25 4.12 13.615 4.97498zM145.783 738.848c3.12 0.630005 14.82 0.765991 57.53 0.672974c60.302 -0.130981 55.851 0.195984 66.266 -4.88202c9.819 -4.78796 16.9 -11.868 21.688 -21.687
c5.077 -10.411 4.81799 -7.10803 4.81799 -61.446c0 -54.337 0.259003 -51.035 -4.81799 -61.445c-4.78799 -9.81995 -11.869 -16.9 -21.688 -21.688c-10.397 -5.07001 -6.14502 -4.74298 -65.06 -4.995c-56.265 -0.240967 -57.514 -0.187988 -66.025 2.83203
c-6.987 2.47797 -11.111 5.20197 -17.409 11.501c-8.019 8.01801 -11.562 14.578 -13.602 25.181c-1.251 6.50494 -1.251 90.722 0 97.228c2.04 10.603 5.583 17.162 13.602 25.181c7.857 7.85699 14.458 11.477 24.698 13.547z" />
    <glyph glyph-name="ampersand" unicode="&#x26;" 
d="M231.929 657.831c7.28 0.971008 13.855 1.091 62.77 1.14502c51.145 0.0559692 55.229 -0.0159912 63.856 -1.13403c16.867 -2.18597 30.074 -6.13 45.361 -13.55c28.978 -14.063 51.509 -36.581 65.716 -65.678c7.44501 -15.249 11.885 -30.542 13.812 -47.591
c0.799988 -7.07098 0.924988 -15 0.773987 -49.095l-0.181 -40.663l-1.41199 -4.21701c-1.91599 -5.72299 -5.52301 -12.527 -8.88101 -16.747c-1.73798 -2.185 -25.279 -22.709 -62.809 -54.759c-33.013 -28.192 -60.505 -51.699 -61.085 -52.23
c-0.989014 -0.903015 2.10001 -4.336 49.638 -55.18c27.882 -29.82 50.869 -54.284 51.085 -54.367c0.216003 -0.0829926 11.476 9.34801 25.09 21.015c25.603 21.942 30.656 25.809 37.108 28.401c8.36102 3.358 19.037 4.36401 27.471 2.588
c22.231 -4.683 38.218 -24.384 38.169 -47.035c-0.0239868 -11.144 -3.70099 -21.56 -10.549 -29.879c-1.87799 -2.282 -13.313 -12.536 -27.41 -24.579l-24.186 -20.662l1.65698 -1.95799c0.910034 -1.07701 12.46 -13.494 25.662 -27.591
c13.202 -14.0953 24.949 -26.9332 26.103 -28.523c13.973 -19.2774 11.145 -46.083 -6.61499 -62.6963c-14.312 -13.3887 -35.783 -16.6016 -53.072 -7.94336c-7.82901 3.9209 -10.861 6.78416 -38.7 36.543c-15.103 16.1445 -27.675 29.3369 -27.957 29.3369
c-0.281982 0 -16.024 -13.2763 -35 -29.5176c-18.976 -16.2412 -35.869 -30.58 -37.56 -31.8798c-3.508 -2.69629 -11.085 -6.39747 -16.265 -7.94434c-3.332 -0.995118 -7.83102 -1.0957 -57.531 -1.29004c-45.542 -0.178711 -55.169 -0.0664066 -61.987 0.720703
c-67.108 7.74317 -119.602 60.1279 -127.463 127.201c-0.724998 6.18399 -0.911003 15.904 -0.911003 47.59c0 38.012 0.0559998 40.035 1.226 44.578c2.29501 8.916 6.666 16.421 13.352 22.932c2.086 2.03 22.952 20.07 46.325 40.051
c23.374 19.979 42.639 36.491 42.772 36.656c0.132996 0.166016 -20.64 22.621 -46.114 49.85c-25.475 27.229 -47.388 50.932 -48.647 52.621c-3.159 4.237 -6.272 10.903 -7.709 16.505c-1.144 4.45898 -1.205 6.74799 -1.205 44.94
c0 44.639 0.369003 50.475 4.168 65.903c8.707 35.363 30.17 65.758 60.591 85.809c17.584 11.589 38.855 19.432 60.543 22.324zM353.313 561.824c-3.319 0.981018 -7.89099 1.07703 -56.023 1.18805c-28.855 0.065979 -53.683 -0.100037 -55.241 -0.369019
c-18.193 -3.14703 -32.496 -15.872 -37.908 -33.728c-1.321 -4.35498 -1.377 -5.51196 -1.58 -32.259l-0.210999 -27.741l40.06 -42.831c22.03 -23.554 40.331 -42.994 40.663 -43.192c0.330994 -0.200012 24.187 19.754 53.042 44.367l52.44 44.728l-0.199982 26.205
c-0.223022 29.458 -0.183014 29.138 -4.91702 38.856c-5.83698 11.98 -16.509 20.759 -30.125 24.776zM327.169 195.542c-27.839 29.759 -50.866 54.197 -51.114 54.247c-0.247986 0.0500031 -16.958 -14.054 -37.078 -31.296l-36.627 -31.385l0.227997 -25.904
c0.253998 -28.855 0.253998 -28.855 4.70599 -38.132c5.88301 -12.26 16.813 -21.525 30.187 -25.5906c4.34601 -1.3222 4.87901 -1.3398 45.964 -1.5185l41.566 -0.180695l25 21.4158c13.734 11.766 25.638 22.04 26.415 22.802l1.41602 1.38499z" />
    <glyph glyph-name="quotesingle" unicode="'" 
d="M286.747 738.848c3.11899 0.630005 14.819 0.765991 57.529 0.672974c60.302 -0.130981 55.851 0.195984 66.266 -4.88098c9.758 -4.758 16.815 -11.809 21.711 -21.688c1.492 -3.013 3.104 -7.02802 3.62701 -9.03601c1.34799 -5.18201 1.771 -14.316 0.89801 -19.338
c-0.856018 -4.91998 -95.229 -328.313 -97.286 -333.374c-4.13101 -10.164 -13.469 -19.811 -23.889 -24.682c-12.188 -5.69501 -27.471 -5.73999 -39.88 -0.118011c-12.556 5.68802 -22.103 16.848 -26.469 30.945l-1.362 4.39801l-0.181 166.265
c-0.136002 124.458 -0.0059967 167.401 0.516998 170.783c0.875 5.66302 3.31601 12.666 6.02701 17.289c2.64801 4.51904 12.457 14.336 16.949 16.968c4.215 2.46802 10.302 4.737 15.543 5.79602z" />
    <glyph glyph-name="parenleft" unicode="(" 
d="M427.711 738.898c5.41101 1.12897 15.843 0.669983 21.566 -0.949036c15.427 -4.362 27.373 -15.78 32.772 -31.323c1.90698 -5.49298 1.98599 -6.08398 1.957 -14.759c-0.0290222 -8.67499 -0.110016 -9.26801 -2.01901 -14.849
c-1.112 -3.25299 -3.24799 -7.763 -4.84799 -10.241c-1.57401 -2.43396 -28.139 -36.838 -59.007 -76.416c-30.867 -39.578 -57.41 -73.886 -58.955 -76.205c-6.621 -9.92999 -12.094 -23.675 -14.392 -36.144c-1.05402 -5.715 -1.11002 -11.265 -1.11002 -108.133
c0 -96.867 0.0559998 -102.417 1.11002 -108.132c2.298 -12.471 7.771 -26.214 14.392 -36.145c1.54498 -2.319 28.088 -36.626 58.955 -76.205c30.868 -39.579 57.433 -73.981 59.007 -76.4156c1.60001 -2.4775 3.73599 -6.9882 4.84799 -10.2412
c1.909 -5.58 1.98999 -6.1748 2.01901 -14.8496c0.0289917 -8.6738 -0.0490112 -9.2646 -1.953 -14.7588c-6.60202 -19.0507 -22.836 -31.6035 -42.595 -32.9355c-13.675 -0.921875 -27.358 4.48047 -37.037 14.6221c-3.70798 3.8857 -112.443 143.013 -119.823 153.314
c-17.261 24.095 -28.59 52.952 -33.323 84.88l-1.383 9.33701v107.53v107.53l1.383 9.33801c4.733 31.928 16.061 60.784 33.321 84.879c7.422 10.362 116.051 149.374 119.758 153.254c6.80399 7.12201 15.597 11.983 25.357 14.018z" />
    <glyph glyph-name="parenright" unicode=")" 
d="M241.867 739.309c9.94 1.36896 22.073 -1.10004 30.844 -6.27704c7.41501 -4.37799 11.644 -9.47797 70.101 -84.538c31.245 -40.121 58.151 -74.869 59.847 -77.289c17.413 -24.856 28.274 -52.651 33.001 -84.458l1.388 -9.33801v-107.53v-107.53l-1.388 -9.33701
c-4.72699 -31.808 -15.588 -59.603 -33.001 -84.458c-1.69598 -2.42101 -28.602 -37.169 -59.847 -77.2894c-58.503 -75.1201 -62.684 -80.1601 -70.162 -84.5859c-7.73199 -4.57617 -18.374 -7.12012 -27.169 -6.49512c-6.806 0.483398 -11.618 1.79102 -18.072 4.91211
c-12.158 5.8789 -20.864 16.2295 -25.1 29.8438c-1.19501 3.8398 -1.40601 5.7832 -1.40601 12.9511c0 7.169 0.210999 9.1123 1.409 12.9522c2.73201 8.7568 5.28801 12.5302 29.778 43.9752c13.036 16.739 39.043 50.121 57.819 74.218
c18.777 24.096 35.14 45.366 36.38 47.289c6.25601 9.701 11.628 23.434 13.856 35.422c1.06201 5.715 1.12003 11.265 1.12003 108.132c0 96.868 -0.0580139 102.418 -1.12003 108.133c-2.228 11.988 -7.59998 25.72 -13.856 35.422
c-1.23999 1.92096 -17.603 23.192 -36.38 47.289c-18.776 24.0959 -44.783 57.478 -57.819 74.216c-24.49 31.447 -27.046 35.22 -29.778 43.977c-1.198 3.83997 -1.409 5.78198 -1.409 12.951s0.210999 9.112 1.409 12.952c1.78601 5.72302 5.334 12.561 8.81601 16.989
c6.88899 8.75702 19.534 15.958 30.739 17.501z" />
    <glyph glyph-name="asterisk" unicode="*" 
d="M331.024 657.817c3.93002 0.993958 6.26501 1.17798 12.652 0.994995c9.03601 -0.255981 12.906 -1.15802 20 -4.65802c11.71 -5.77698 20.928 -16.865 24.993 -30.057l1.392 -4.51898l0.300995 -72.771l0.300995 -72.771l55.422 47.379
c30.482 26.06 56.506 48.127 57.831 49.039c9.11301 6.27502 21.928 9.37402 32.651 7.89703c24.217 -3.33704 41.828 -23.249 41.855 -47.328c0.0100098 -8.13098 -1.39197 -13.955 -5.26001 -21.867c-2.24396 -4.58902 -3.742 -6.62601 -8.28198 -11.264
c-3.04901 -3.117 -37.651 -33.084 -76.928 -66.627c-39.276 -33.543 -71.385 -61.154 -71.385 -61.386s32.109 -27.842 71.385 -61.386c39.277 -33.543 73.879 -63.511 76.928 -66.626c4.53998 -4.638 6.03802 -6.67601 8.28198 -11.265
c3.86804 -7.912 5.27301 -13.735 5.27301 -21.868c0 -7.95099 -1.422 -14.009 -4.96301 -21.144c-7.04596 -14.196 -20.821 -23.97 -36.905 -26.184c-10.723 -1.47601 -23.538 1.623 -32.651 7.89799c-1.32498 0.912994 -27.349 22.98 -57.831 49.039l-55.422 47.38
l-0.300995 -72.772l-0.300995 -72.77l-1.392 -4.519c-4.065 -13.192 -13.283 -24.2802 -24.993 -30.0575c-6.823 -3.3662 -10.964 -4.3721 -19.399 -4.7119c-6.02301 -0.242203 -8.13101 -0.0772018 -12.65 0.991196c-16.808 3.9756 -30.096 16.6699 -35.357 33.7782
l-1.38998 4.519l-0.300995 72.77l-0.302002 72.772l-55.964 -47.862c-30.783 -26.327 -57.4 -48.728 -59.156 -49.788c-7.92101 -4.778 -15.602 -6.856 -25.241 -6.82899c-6.024 0.0169983 -8.133 0.292999 -12.65 1.65599c-10.301 3.10901 -18.693 8.834 -24.885 16.979
c-6.74699 8.87601 -9.754 17.771 -9.754 28.855c0 13.736 4.812 24.977 14.88 34.756c2.254 2.18999 36.204 31.414 75.481 64.974c39.278 33.559 71.386 61.183 71.386 61.415s-32.108 27.856 -71.386 61.416c-39.277 33.559 -73.227 62.784 -75.481 64.974
c-10.068 9.77899 -14.88 21.02 -14.88 34.754c0 11.085 3.007 19.981 9.754 28.856c6.192 8.14496 14.584 13.871 24.885 16.978c4.517 1.36401 6.627 1.64001 12.65 1.65802c9.63899 0.0269775 17.32 -2.05103 25.241 -6.82904c1.756 -1.06 28.373 -23.462 59.156 -49.789
l55.964 -47.861l0.302002 72.771l0.300995 72.771l1.397 4.51898c5.19598 16.806 18.352 29.574 34.747 33.72z" />
    <glyph glyph-name="plus" unicode="+" 
d="M333.735 605.177c4.86002 1.03699 15.724 0.692993 20.784 -0.65802c2.00699 -0.536011 6.02399 -2.14099 9.03598 -3.61096c9.819 -4.79102 16.893 -11.872 21.67 -21.691c5.17499 -10.641 4.75699 -3.37299 4.991 -86.928l0.205994 -74.217h72.199
c59.639 0 72.964 -0.147003 76.597 -0.843994c22.956 -4.40799 39.217 -23.916 39.217 -47.047c0 -23.133 -16.261 -42.641 -39.217 -47.048c-3.633 -0.696991 -16.958 -0.843994 -76.597 -0.843994h-72.199l-0.205994 -74.518
c-0.234009 -83.856 0.182007 -76.592 -4.991 -87.229c-4.77701 -9.819 -11.851 -16.896 -21.67 -21.68c-12.244 -5.965 -24.398 -6.666 -37.169 -2.14301c-6.92798 2.453 -11.064 5.188 -17.349 11.473c-6.142 6.142 -8.901 10.242 -11.273 16.747
c-3.245 8.901 -3.185 7.29001 -3.185 85.121v72.169l-74.247 0.179993l-74.247 0.181l-4.397 1.35602c-21.466 6.62 -35.061 24.548 -35.061 46.235c0 21.686 13.595 39.614 35.061 46.234l4.397 1.35599l74.247 0.179993l74.247 0.181v71.868
c0 77.47 -0.0580139 75.925 3.185 84.819c2.37198 6.50604 5.13098 10.605 11.273 16.747c7.83801 7.83801 14.276 11.387 24.698 13.611z" />
    <glyph glyph-name="comma" unicode="," 
d="M241.867 336.913c0.993988 0.140991 47.048 0.214996 102.409 0.166016c113.314 -0.100006 102.496 0.363983 113.254 -4.86801c9.82001 -4.776 16.899 -11.85 21.688 -21.67c5.29501 -10.857 4.81802 3.19302 4.81802 -141.867
c0 -145.06 0.47699 -131.009 -4.81802 -141.867c-4.789 -9.8193 -11.868 -16.8964 -21.688 -21.6797c-12.244 -5.96484 -24.398 -6.66504 -37.169 -2.14355c-6.927 2.45312 -11.064 5.18848 -17.349 11.4736c-6.142 6.1426 -8.90201 10.2412 -11.274 16.7471
c-3.298 9.0469 -3.18402 5.0605 -3.18402 111.627v98.675l-74.278 0.207001c-83.433 0.23201 -76.234 -0.179001 -86.867 4.95801c-12.158 5.873 -20.869 16.22 -25.116 29.835c-2.049 6.56598 -2.043 19.337 0.0119934 25.903c1.79001 5.72299 5.34001 12.561 8.819 16.988
c6.90701 8.789 19.418 15.916 30.743 17.516z" />
    <glyph glyph-name="hyphen" unicode="-" 
d="M145.783 417.16c3.20099 0.647003 39.519 0.774994 198.796 0.700989c185.542 -0.0859985 195.053 -0.141998 198.494 -1.18201c5.66199 -1.711 14.083 -6.06799 18.193 -9.41199c5.26099 -4.28299 9.44299 -9.617 12.547 -16.002
c4.83899 -9.95502 4.802 -9.63901 4.802 -41.265c0 -31.627 0.0369873 -31.31 -4.802 -41.266c-3.104 -6.38501 -7.28601 -11.718 -12.547 -16.002c-4.10999 -3.34399 -12.531 -7.70099 -18.193 -9.41199c-3.43799 -1.03799 -13.072 -1.10001 -197.289 -1.272
c-145.302 -0.136017 -194.804 -0.00701904 -198.193 0.516998c-5.662 0.875 -12.666 3.31699 -17.289 6.02701c-4.519 2.64899 -14.346 12.457 -16.985 16.95c-1.116 1.901 -2.726 5.36102 -3.532 7.59c-2.888 7.987 -3.158 11.144 -3.158 36.868
c0 25.723 0.272003 28.881 3.185 36.867c2.372 6.50598 5.13 10.605 11.273 16.747c7.857 7.85797 14.458 11.478 24.698 13.546z" />
    <glyph glyph-name="period" unicode="." 
d="M286.747 296.076c3.11899 0.631012 14.819 0.768005 57.529 0.674011c60.302 -0.131989 55.851 0.196014 66.266 -4.88199c9.819 -4.78802 16.899 -11.868 21.687 -21.687c5.078 -10.41 4.819 -7.10901 4.819 -61.446c0 -54.338 0.259003 -51.036 -4.819 -61.446
c-4.78799 -9.819 -11.868 -16.898 -21.687 -21.686c-10.396 -5.071 -6.14499 -4.745 -65.061 -4.99699c-56.264 -0.240005 -57.513 -0.186005 -66.024 2.832c-6.987 2.479 -11.111 5.20399 -17.409 11.501c-8.019 8.019 -11.562 14.579 -13.602 25.181
c-1.25099 6.507 -1.25099 90.724 0 97.23c2.03999 10.602 5.58301 17.162 13.602 25.18c7.85699 7.858 14.458 11.478 24.699 13.546z" />
    <glyph glyph-name="slash" unicode="/" 
d="M523.374 739.127c10.422 1.76196 22.7859 -0.689026 32.169 -6.37701c7.39496 -4.48199 14.767 -12.75 18.512 -20.762c5.74402 -12.289 5.91199 -27.383 0.437988 -39.338c-1.25696 -2.74402 -372.438 -638.132 -379.19 -649.096
c-9.57799 -15.5537 -26.387 -24.5078 -43.796 -23.3301c-21.145 1.42969 -38.448 15.8643 -43.711 36.4629c-2.34 9.1563 -1.27399 21.4414 2.625 30.2403c1.25 2.8222 371.407 636.627 379.158 649.218c7.564 12.286 19.819 20.621 33.795 22.982z" />
    <glyph glyph-name="zero" unicode="0" 
d="M190.965 739.083c2.153 0.271973 70.181 0.534973 151.204 0.583984c158.133 0.0950317 152.297 0.197998 164.398 -2.89502c38.828 -9.92297 67.028 -42.375 71.739 -82.555c0.487976 -4.16095 0.621948 -82.831 0.48999 -288.253l-0.18103 -282.53l-1.37897 -6.0244
c-3.79303 -16.5664 -10.42 -30.5196 -20.026 -42.169c-16.124 -19.5527 -38.354 -31.6103 -63.836 -34.624c-4.12601 -0.488281 -47.228 -0.618164 -154.518 -0.46582l-148.795 0.210937l-6.024 1.36914c-23.193 5.27246 -41.463 16.2675 -55.683 33.5097
c-8.70901 10.5606 -15.28 23.5547 -18.735 37.0489c-3.161 12.3466 -2.992 -4.458 -2.992 297.59c0 302.049 -0.168999 285.244 2.992 297.591c9.786 38.223 42.069 66.643 81.346 71.613zM483.133 369.879v274.097h-140.362h-140.361v-274.097v-274.097h140.361h140.362
v274.097z" />
    <glyph glyph-name="one" unicode="1" 
d="M146.868 739.158c1.558 0.264954 56.958 0.507996 123.162 0.540955l120.332 0.0599976v-321.988v-321.989h46.386h46.385v98.7358c0 106.566 -0.112 102.58 3.15799 111.627c0.806 2.228 2.41602 5.68903 3.53201 7.58902c2.61801 4.45798 12.467 14.299 16.925 16.912
c4.80301 2.81302 12.711 5.427 18.915 6.25101c10.121 1.34299 22.239 -1.52701 31.145 -7.37601c5.12103 -3.36301 12.512 -10.975 15.448 -15.907c2.69104 -4.52301 5.15399 -11.566 6.02502 -17.229c0.518982 -3.36801 0.643005 -36.626 0.487976 -130.723
c-0.235962 -142.169 0.272034 -128.037 -4.99097 -138.855c-4.776 -9.8193 -11.849 -16.9004 -21.669 -21.6914c-3.01202 -1.46972 -7.16199 -3.12793 -9.33801 -3.73046c-3.74097 -1.03614 -12.65 -1.08399 -200 -1.08399h-196.083l-4.7 1.36328
c-21.501 6.24024 -35.361 24.3593 -35.361 46.2265c0 21.6875 13.595 39.6143 35.061 46.2344l4.397 1.3564l74.247 0.180702l74.247 0.180695v274.036v274.037l-74.247 0.180969l-74.247 0.179993l-4.397 1.36304c-14.097 4.36597 -25.254 13.913 -30.937 26.468
c-5.59 12.35 -5.587 27.169 0.00800323 39.519c6.502 14.352 20.265 24.847 36.109 27.531z" />
    <glyph glyph-name="two" unicode="2" 
d="M146.868 739.158c1.55701 0.264954 79.278 0.506958 172.711 0.539978c182.53 0.0640259 174.819 0.184021 186.988 -2.927c38.049 -9.72998 65.852 -40.988 71.445 -80.326c1.31 -9.216 1.31995 -241.626 0.00897217 -250.842
c-3.14099 -22.109 -13.028 -41.48 -28.984 -56.787c-12.602 -12.09 -27.47 -20.157 -45.422 -24.645l-6.32498 -1.58099l-147.289 -0.300995c-81.024 -0.166016 -147.357 -0.368988 -147.44 -0.451996c-0.0830078 -0.0830078 -0.151001 -50.994 -0.151001 -113.103v-112.952
h166.205c140.482 0 166.886 -0.129906 170.603 -0.843704c22.956 -4.4073 39.217 -23.9151 39.217 -47.0479c0 -23.1318 -16.261 -42.6396 -39.217 -47.0468c-3.73303 -0.716797 -36.808 -0.844727 -218.494 -0.844727h-214.097l0.181 167.019l0.18 167.018l1.37 6.02399
c4.657 20.482 13.949 37.252 28.208 50.912c16.146 15.466 36.266 24.506 58.916 26.472c4.71201 0.410004 56.055 0.627991 147.44 0.627991h140.211v112.951v112.953l-168.524 0.149963l-168.524 0.151001l-4.397 1.36304c-14.097 4.36597 -25.254 13.913 -30.937 26.468
c-5.59 12.35 -5.587 27.169 0.00800323 39.519c6.502 14.352 20.265 24.847 36.109 27.531z" />
    <glyph glyph-name="three" unicode="3" 
d="M146.868 739.158c1.55701 0.264954 79.278 0.506958 172.711 0.539978c182.53 0.0640259 174.819 0.184021 186.988 -2.927c38.049 -9.72998 65.859 -40.988 71.46 -80.326c1.33301 -9.354 1.31799 -194.698 -0.0159912 -206.084
c-3.15601 -26.927 -14 -53.007 -30.713 -73.855c-2.26996 -2.83102 -4.31897 -5.40302 -4.586 -5.75302c-0.289001 -0.380005 1.10205 -2.561 3.47803 -5.452c9.37897 -11.411 18.859 -28.012 24.011 -42.048c2.83801 -7.73199 5.31604 -17.289 7.04401 -27.169
l1.37 -7.83102v-102.108v-102.109l-1.38501 -6.3261c-3.61499 -16.5059 -10.29 -30.6621 -20.025 -42.4698c-16.121 -19.5527 -38.349 -31.6103 -63.831 -34.624c-4.12799 -0.488281 -53.313 -0.626953 -176.506 -0.496094l-170.783 0.180664l-4.397 1.36328
c-21.502 6.66309 -35.061 24.54 -35.061 46.2265c0 21.6875 13.559 39.5635 35.061 46.2276l4.397 1.3632l168.524 0.150398l168.524 0.150406l-0.178009 93.5548c-0.198975 104.759 0.210999 95.441 -4.64499 105.602c-4.694 9.82001 -12.706 17.832 -22.526 22.526
c-10.177 4.86301 0.0599976 4.42999 -113.916 4.82401c-114.458 0.395996 -103.717 -0.0840149 -114.458 5.10501c-12.158 5.87299 -20.864 16.22 -25.1 29.835c-1.19499 3.84 -1.40599 5.78299 -1.40599 12.951c0 7.17001 0.210999 9.112 1.40599 12.952
c4.23601 13.615 12.942 23.962 25.1 29.836c10.741 5.18701 0 4.711 114.458 5.07901l101.808 0.325989l5.12 1.707c16.509 5.50302 27.887 17.209 32.889 33.835c1.02499 3.41 1.09702 8.88599 1.267 96.838l0.181 93.223l-168.524 0.149963l-168.524 0.151001
l-4.397 1.36304c-14.097 4.36597 -25.254 13.913 -30.937 26.468c-5.59 12.35 -5.587 27.169 0.00800323 39.519c6.502 14.352 20.265 24.847 36.109 27.531z" />
    <glyph glyph-name="four" unicode="4" 
d="M169.276 738.912c4.86 1.03601 15.724 0.69104 20.784 -0.662964c5.36101 -1.435 13.917 -5.815 18.193 -9.31799c7.21799 -5.91101 13.33 -15.317 16.258 -25.015c1.037 -3.43701 1.09799 -12.561 1.242 -185.091l0.149994 -181.476h93.073h93.072l0.149994 141.114
l0.151001 141.115l1.39801 4.51898c5.29398 17.108 18.579 29.801 35.349 33.775c4.51801 1.07001 6.62698 1.23596 12.651 0.992981c8.43399 -0.339966 12.574 -1.34698 19.398 -4.71997c11.724 -5.79803 20.869 -16.795 24.982 -30.048l1.40298 -4.51898
l0.151001 -141.055l0.149994 -141.053l3.97601 -0.424988c16.868 -1.80301 31.964 -12.595 38.844 -27.769c5.65503 -12.469 5.66498 -27.145 0.0280151 -39.578c-6.922 -15.264 -21.945 -26.018 -38.872 -27.828l-3.97601 -0.424988l-0.178986 -101.024
c-0.200012 -113.675 0.272003 -102.861 -4.95901 -113.614c-4.776 -9.8193 -11.85 -16.8964 -21.67 -21.6797c-12.243 -5.96484 -24.397 -6.66504 -37.168 -2.14355c-6.927 2.45312 -11.064 5.18848 -17.349 11.4736c-6.14301 6.1426 -8.90201 10.2412 -11.274 16.7471
c-3.297 9.0469 -3.18399 5.0605 -3.18399 111.627v98.734h-140.964h-140.964v227.049c0 245.904 -0.201996 230.65 3.185 239.941c2.37201 6.50598 5.13101 10.604 11.273 16.746c7.838 7.83899 14.276 11.387 24.698 13.611z" />
    <glyph glyph-name="five" unicode="5" 
d="M200.603 531.023v208.736h167.109c141.265 0 167.788 -0.130981 171.506 -0.843994c22.956 -4.40698 39.217 -23.915 39.217 -47.048s-16.261 -42.639 -39.217 -47.047c-3.69202 -0.708984 -23.555 -0.843994 -123.614 -0.843994h-119.218v-112.953v-112.951h96.566
c103.194 0 101.851 0.0350037 113.675 -2.992c38.813 -9.93399 66.922 -42.309 71.674 -82.551c0.484985 -4.10999 0.615967 -40 0.464966 -127.409l-0.210999 -121.686l-1.37 -6.0244c-3.75397 -16.5059 -10.389 -30.4942 -20 -42.169
c-13.159 -15.9824 -30.678 -27.1572 -50.558 -32.248c-11.949 -3.06055 -8.97601 -2.99317 -132.048 -2.99317c-111.085 0 -115.184 0.0400391 -124.097 1.18457c-10.06 1.292 -18.766 3.22364 -27.589 6.12012c-7.35001 2.41309 -89.011 37.291 -93.314 39.8555
c-7.312 4.3564 -14.964 12.9609 -18.758 21.0937c-5.917 12.6817 -5.651 28.3731 0.698997 41.2041c10.425 21.07 35.468 31.568 57.457 24.086c2.32199 -0.789993 21.958 -9.026 43.705 -18.333c21.747 -9.306 41.097 -17.3975 43.072 -18.0118
c3.397 -1.05659 9.397 -1.12199 115.481 -1.2646l111.898 -0.151398v113.254v113.253h-141.265h-141.265v208.734z" />
    <glyph glyph-name="six" unicode="6" 
d="M145.783 738.853c5.873 1.18799 57.832 1.23395 63.977 0.0559692c10.18 -1.95203 19.001 -6.80499 26.154 -14.391c8.819 -9.35199 13.123 -20.06 13.123 -32.651c0 -23.734 -17.66 -43.978 -41.326 -47.372l-5.30099 -0.760986v-153.192v-153.193l168.525 -0.151001
c160 -0.141998 168.707 -0.205994 172.138 -1.242c5.66199 -1.711 14.083 -6.06699 18.193 -9.41199c5.26099 -4.28201 9.44299 -9.616 12.547 -16.002c5.27802 -10.858 4.802 3.19202 4.802 -141.868c0 -145.06 0.476013 -131.009 -4.802 -141.867
c-3.104 -6.3857 -7.28601 -11.7197 -12.547 -16.0019c-4.10999 -3.34474 -12.531 -7.70118 -18.193 -9.41212c-3.43799 -1.03906 -13.072 -1.10059 -197.289 -1.27246c-145.302 -0.135742 -194.804 -0.006836 -198.193 0.517578
c-5.662 0.875005 -12.666 3.31542 -17.289 6.02637c-4.519 2.64942 -14.333 12.457 -16.961 16.9502c-2.60201 4.4462 -4.762 10.3613 -5.853 16.0234c-1.277 6.6269 -1.286 653.856 -0.00900269 660.482c2.04201 10.603 5.58701 17.162 13.606 25.181
c7.857 7.85699 14.458 11.479 24.698 13.552zM483.133 168.674v72.891h-140.362h-140.361v-72.891v-72.8918h140.361h140.362v72.8918z" />
    <glyph glyph-name="seven" unicode="7" 
d="M145.783 738.848c3.187 0.643005 43.886 0.800964 218.525 0.850952l214.608 0.0599976v-146.626c0 -158.555 0.164978 -150.334 -3.19 -159.519c-2.13403 -5.84302 -4.97699 -10.345 -9.73499 -15.422c-2.26703 -2.41898 -42.707 -37.33 -89.876 -77.589
l-85.753 -73.194l-0.178009 -113.975c-0.201996 -128.374 0.290009 -115.835 -4.95898 -126.627c-4.77701 -9.8193 -11.851 -16.8964 -21.67 -21.6797c-12.244 -5.96484 -24.398 -6.66504 -37.169 -2.14355c-6.92798 2.45312 -11.064 5.18848 -17.349 11.4736
c-6.142 6.1426 -8.901 10.2412 -11.273 16.7471c-3.33099 9.1357 -3.185 2.8311 -3.185 137.47c0 134.638 -0.145996 128.335 3.19098 137.471c2.13303 5.84201 4.97601 10.345 9.73502 15.421c2.267 2.418 42.707 37.33 89.875 77.59l85.753 73.194v85.812v85.814h-140.662
h-140.663l-0.369995 -1.68701c-0.979004 -4.45801 -3.49701 -11.103 -5.524 -14.578c-3.14301 -5.39099 -10.853 -13.291 -16.275 -16.68c-8.91 -5.56799 -20.301 -8.17999 -30.301 -6.94904c-11.567 1.42505 -21.177 6.28003 -29.241 14.773
c-5.318 5.60004 -8.076 9.87903 -10.291 15.964c-2.907 7.98706 -3.179 11.145 -3.179 36.868c0 25.722 0.272003 28.88 3.185 36.868c2.372 6.50598 5.13 10.604 11.273 16.746c7.857 7.85699 14.458 11.477 24.698 13.547z" />
    <glyph glyph-name="eight" unicode="8" 
d="M239.76 738.848c3.17 0.639954 23.072 0.768005 104.517 0.671997c113.254 -0.134033 102.502 0.330994 113.254 -4.89905c9.82001 -4.776 16.899 -11.85 21.688 -21.6689c5.32199 -10.914 4.802 5.18097 4.97 -153.796l0.149017 -141.084l2.53 -0.0139771
c3.83499 -0.0220032 14.278 -1.61102 19.759 -3.00601c34.769 -8.854 61.783 -36.498 69.749 -71.377c2.60004 -11.381 2.60101 -11.446 2.38501 -138.555l-0.205994 -121.686l-1.37 -6.0244c-3.75397 -16.5059 -10.391 -30.4942 -20.006 -42.169
c-16.105 -19.5527 -38.323 -31.6103 -63.805 -34.624c-4.12601 -0.488281 -47.228 -0.618164 -154.518 -0.46582l-148.795 0.210937l-6.024 1.36914c-23.193 5.27246 -41.463 16.2675 -55.683 33.5097c-8.70901 10.5606 -15.28 23.5547 -18.735 37.0489
c-3.065 11.9736 -2.992 8.6142 -2.992 136.747c0 128.132 -0.072998 124.773 2.984 136.747c10.165 39.8 44.666 68.811 85.691 72.051l5.30099 0.418976v138.675c0 150 -0.158997 142.457 3.18401 151.627c2.37199 6.50598 5.132 10.604 11.274 16.746
c7.85699 7.85699 14.458 11.477 24.699 13.547zM388.555 531.023v112.953h-46.084h-46.085v-112.953v-112.951h46.085h46.084v112.951zM483.133 209.036v113.253h-140.362h-140.361v-113.253v-113.254h140.361h140.362v113.254z" />
    <glyph glyph-name="nine" unicode="9" 
d="M145.783 738.848c3.20099 0.645996 39.519 0.773987 198.796 0.699951c185.542 -0.0859985 195.053 -0.142944 198.494 -1.18298c5.66199 -1.70996 14.083 -6.07196 18.193 -9.42297c7.36902 -6.00702 13.585 -15.689 16.261 -25.328
c1.04401 -3.75702 1.08801 -17.289 1.08801 -333.735c0 -316.445 -0.0440063 -329.978 -1.08398 -333.734c-0.60199 -2.1757 -2.26001 -6.3261 -3.72998 -9.3379c-4.79102 -9.8193 -11.872 -16.8925 -21.692 -21.6679c-9.88 -4.80566 -9.09601 -4.71289 -41.867 -4.98047
c-31.807 -0.259765 -34.832 -0.055664 -42.952 2.89942c-6.26602 2.28027 -11.178 5.34961 -16.266 10.1631c-6.64999 6.292 -10.632 12.8633 -13.418 22.1406c-3.12799 10.4209 -1.89398 23.5127 3.15802 33.4932c7.37601 14.5752 20.924 24.2676 36.948 26.4355
l5.42099 0.733398v153.194v153.192h-166.204c-179.82 0 -169.877 -0.177002 -179.097 3.185c-6.506 2.37201 -10.605 5.13202 -16.747 11.273c-8.019 8.01898 -11.564 14.578 -13.608 25.181c-1.279 6.62698 -1.279 251.446 0 258.072
c2.04401 10.603 5.589 17.162 13.608 25.181c7.857 7.85699 14.458 11.477 24.698 13.547zM483.133 571.084v72.892h-140.362h-140.361v-72.892v-72.892h140.361h140.362v72.892z" />
    <glyph glyph-name="colon" unicode=":" 
d="M286.747 296.076c3.11899 0.630005 14.819 0.768005 57.529 0.674011c60.302 -0.131989 55.851 0.195007 66.266 -4.883c9.819 -4.78799 16.899 -11.867 21.687 -21.686c5.078 -10.411 4.819 -7.10901 4.819 -61.447c0 -54.337 0.259003 -51.035 -4.819 -61.445
c-4.78799 -9.819 -11.868 -16.899 -21.687 -21.687c-10.396 -5.07 -6.14499 -4.744 -65.061 -4.99599c-56.264 -0.241005 -57.513 -0.187004 -66.024 2.832c-6.987 2.479 -11.111 5.203 -17.409 11.501c-8.019 8.019 -11.562 14.579 -13.602 25.181
c-1.25099 6.50601 -1.25099 90.723 0 97.229c2.03999 10.602 5.58301 17.162 13.602 25.18c7.85699 7.858 14.458 11.478 24.699 13.547zM286.747 618.365c3.11899 0.630981 14.819 0.768005 57.529 0.674011c60.302 -0.132019 55.851 0.195984 66.266 -4.88202
c9.819 -4.78796 16.899 -11.868 21.687 -21.687c5.078 -10.41 4.819 -7.10895 4.819 -61.447c0 -54.336 0.259003 -51.035 -4.819 -61.445c-4.78799 -9.819 -11.868 -16.899 -21.687 -21.687c-10.396 -5.06998 -6.14499 -4.74399 -65.061 -4.995
c-56.264 -0.240997 -57.513 -0.186981 -66.024 2.832c-6.987 2.478 -11.111 5.203 -17.409 11.501c-8.019 8.01801 -11.562 14.578 -13.602 25.18c-1.25099 6.50601 -1.25099 90.724 0 97.23c2.03999 10.6021 5.58301 17.162 13.602 25.18
c7.85699 7.85803 14.458 11.478 24.699 13.546z" />
    <glyph glyph-name="semicolon" unicode=";" 
d="M241.867 336.913c0.993988 0.140991 47.048 0.214996 102.409 0.166016c113.314 -0.100006 102.496 0.363983 113.254 -4.86801c9.82001 -4.776 16.899 -11.85 21.688 -21.669c5.29501 -10.858 4.81802 3.19202 4.81802 -141.868
c0 -145.06 0.47699 -131.009 -4.81802 -141.867c-4.789 -9.8193 -11.868 -16.8964 -21.688 -21.6797c-12.244 -5.96484 -24.398 -6.66504 -37.169 -2.14355c-6.927 2.45312 -11.064 5.18848 -17.349 11.4736c-6.142 6.1426 -8.90201 10.2412 -11.274 16.7471
c-3.298 9.0469 -3.18402 5.0605 -3.18402 111.627v98.675l-74.278 0.207001c-83.433 0.23201 -76.234 -0.179001 -86.867 4.95801c-12.158 5.873 -20.869 16.221 -25.116 29.835c-2.049 6.56598 -2.043 19.337 0.0119934 25.903
c1.79001 5.72299 5.34001 12.561 8.819 16.988c6.90701 8.789 19.418 15.916 30.743 17.516zM239.759 658.125c3.119 0.630005 14.819 0.767029 57.53 0.672974c60.301 -0.131958 55.85 0.196045 66.265 -4.88196c9.819 -4.78802 16.899 -11.868 21.688 -21.687
c5.078 -10.414 4.81799 -7.10901 4.81799 -61.145s0.26001 -50.73 -4.81799 -61.145c-4.789 -9.819 -11.869 -16.898 -21.688 -21.686c-10.397 -5.06998 -6.14499 -4.74399 -65.061 -4.996c-56.264 -0.23999 -57.513 -0.186981 -66.023 2.832
c-6.989 2.478 -11.112 5.203 -17.41 11.501c-8.019 8.01801 -11.562 14.578 -13.601 25.181c-1.25101 6.50598 -1.25101 90.121 0 96.626c2.039 10.603 5.582 17.163 13.601 25.181c7.85701 7.85797 14.458 11.478 24.699 13.547z" />
    <glyph glyph-name="less" unicode="&#x3c;" 
d="M520.784 658.112c1.97803 0.440002 6.50598 0.833008 10 0.869995c8.01202 0.0830078 13.834 -1.29999 21.626 -5.138c4.93005 -2.42902 6.56702 -3.66296 11.808 -8.90497c5.30096 -5.30005 6.44397 -6.82001 8.88397 -11.806
c3.94104 -8.06 5.328 -13.796 5.31403 -21.988c-0.026001 -15.422 -7.24603 -29.642 -19.379 -38.17c-2.18597 -1.53699 -80.482 -47.798 -173.976 -102.794c-93.495 -54.997 -170 -100.136 -170 -100.302c0 -0.165009 76.505 -45.305 170 -100.301
c93.494 -54.997 171.79 -101.258 173.976 -102.795c12.133 -8.52701 19.353 -22.747 19.379 -38.169c0.0139771 -8.193 -1.37299 -13.928 -5.31403 -21.988c-2.44 -4.986 -3.58301 -6.506 -8.88397 -11.8076c-5.24103 -5.2403 -6.87799 -6.47459 -11.808 -8.9043
c-8.60095 -4.2403 -14.1559 -5.4346 -23.494 -5.0518c-8.73401 0.358406 -13.402 1.5996 -20.783 5.52641c-5.60199 2.9814 -374.086 219.77 -379.639 223.352c-4.551 2.93701 -12.421 11.102 -15.171 15.74c-2.573 4.34201 -4.757 10.302 -5.849 15.964
c-1.22 6.32599 -1.22 50.542 0 56.867c1.092 5.664 3.276 11.624 5.849 15.964c2.75 4.63901 10.62 12.804 15.171 15.741c4.655 3.00299 373.194 219.867 379.037 223.042c4.909 2.66797 8.25299 3.94196 13.253 5.05298z" />
    <glyph glyph-name="equal" unicode="=" 
d="M146.868 336.749c1.55701 0.264008 89.518 0.507019 195.422 0.539001c208.916 0.0650024 196.337 0.261993 205.542 -3.21698c11.145 -4.21103 21.095 -13.498 26.2401 -24.493c13.387 -28.602 -4.79401 -62.514 -36.12 -67.372
c-3.37805 -0.522995 -53.373 -0.654999 -198.192 -0.518997l-193.675 0.180008l-4.397 1.362c-14.097 4.368 -25.254 13.914 -30.937 26.469c-5.59 12.35 -5.587 27.169 0.00800323 39.519c6.502 14.351 20.265 24.846 36.109 27.532zM146.868 537.953
c1.55701 0.263977 89.518 0.507019 195.422 0.539978c208.916 0.0650024 196.337 0.262024 205.542 -3.21698c11.145 -4.211 21.095 -13.498 26.2401 -24.493c13.387 -28.602 -4.79401 -62.513 -36.12 -67.372c-3.37805 -0.52301 -53.373 -0.654999 -198.192 -0.519012
l-193.675 0.179993l-4.397 1.36301c-14.097 4.367 -25.262 13.913 -30.959 26.468c-6.75 14.88 -5.258 33.184 3.78101 46.386c7.39 10.793 19.406 18.467 32.358 20.664z" />
    <glyph glyph-name="greater" unicode="&#x3e;" 
d="M145.241 658.399c1.45 0.28302 5.54201 0.546997 9.036 0.583984c7.23001 0.0780029 13.44 -1.21399 19.519 -4.05896c3.26599 -1.52899 369.639 -216.448 381.506 -223.797c5.78302 -3.582 13.779 -11.544 16.922 -16.851c2.57098 -4.34 4.75299 -10.3 5.84497 -15.964
c1.22101 -6.32501 1.22101 -50.541 0 -56.867c-1.09198 -5.66202 -3.27399 -11.622 -5.84497 -15.964c-3.14301 -5.306 -11.139 -13.268 -16.922 -16.849c-11.928 -7.38699 -378.223 -222.226 -381.506 -223.761c-6.86101 -3.207 -12.831 -4.31841 -21.386 -3.9785
c-13.433 0.534203 -22.028 4.3174 -31.686 13.9453c-5.242 5.2241 -6.476 6.8581 -8.906 11.7881c-4.231 8.585 -5.399 14.036 -5.085 23.735c0.222 6.86801 0.493996 8.57201 2.088 13.132c3.539 10.121 10.134 18.701 18.77 24.421
c2.882 1.908 81.235 48.078 174.066 102.567c92.831 54.491 168.825 99.233 168.825 99.398c0 0.166016 -75.994 44.908 -168.825 99.398c-92.831 54.49 -171.184 100.659 -174.066 102.568c-8.636 5.71906 -15.231 14.3 -18.77 24.42
c-1.594 4.56097 -1.866 6.26501 -2.088 13.132c-0.314003 9.70001 0.853996 15.15 5.085 23.736c2.43 4.92902 3.664 6.56097 8.906 11.776c4.758 4.73602 7.133 6.59302 10.903 8.52502c5.061 2.59198 9.224 4.11096 13.614 4.96497z" />
    <glyph glyph-name="question" unicode="?" 
d="M241.868 95.4082c3.38901 0.546898 15.061 -0.181602 18.675 -1.166c17.318 -4.7149 29.547 -17.0137 34.405 -34.6045c1.49802 -5.4209 1.505 -18.0723 0.0140076 -23.4932c-4.89001 -17.7715 -16.949 -29.831 -34.721 -34.7207
c-5.42099 -1.49121 -18.072 -1.48242 -23.493 0.0166c-11.928 3.29883 -21.687 10.1485 -27.988 19.6436c-5.61299 8.458 -7.795 15.9639 -7.795 26.8066c0 8.374 0.757004 12.3399 3.681 19.2774c6.242 14.8105 20.355 25.5185 37.222 28.2402zM429.398 739.119
c10.964 1.85596 24.544 -1.12201 33.675 -7.38403c3.52701 -2.41901 93.795 -79.155 100.723 -85.623c6.07196 -5.66998 11.001 -13.883 13.466 -22.437l1.35297 -4.69897v-47.892v-47.892l-1.37097 -4.758c-1.71802 -5.96405 -5.31299 -12.936 -9.07202 -17.591
c-1.86298 -2.30698 -50.039 -43.876 -137.328 -118.493l-134.458 -114.941v-31.205c0 -33.554 -0.167999 -35.882 -3.19098 -44.156c-2.177 -5.964 -4.95401 -10.309 -10.007 -15.663c-7.832 -8.295 -16.139 -12.773 -27.284 -14.702
c-24.916 -4.31599 -49.584 13.256 -54.466 38.798c-1.256 6.567 -1.22 90.711 0.0410004 97.23c2.01599 10.421 5.526 17.017 13.303 25c2.97 3.048 64.495 56.018 136.725 117.711l131.325 112.168l0.149994 18.433l0.151001 18.435l-10.693 9.09601
c-5.888 5.00897 -16.294 13.874 -23.163 19.729l-12.469 10.633l-126.687 -108.254c-69.699 -59.557 -128.259 -109.267 -130.181 -110.509c-13.989 -9.03201 -31.385 -10.019 -46.505 -2.63702c-16.748 8.17502 -26.808 24.231 -26.808 42.785
c0 13.675 4.887 25.078 14.88 34.724c3.327 3.21201 277.891 237.929 285.422 243.999c6.19202 4.992 14.578 8.75903 22.469 10.095z" />
    <glyph glyph-name="at" unicode="@" 
d="M262.651 739.347c1.16 0.127014 38.434 0.190002 82.831 0.140991c80.122 -0.0899658 80.785 -0.0999756 88.856 -1.41797c37.891 -6.185 68.688 -21.758 94.94 -48.009c10.026 -10.027 17.522 -19.338 24.005 -29.8199c12.329 -19.933 19.811 -40.1801 23.973 -64.88
l1.29901 -7.711l0.179993 -226.807c0.17804 -223.133 0.161987 -226.958 -1.005 -236.145c-4.17798 -32.8914 -18.6 -61.7966 -42.248 -84.6736c-21.658 -20.9531 -48.011 -33.8681 -78.855 -38.6435c-9.58002 -1.48242 -30.12 -1.4834 -39.759 0
c-25.12 3.86426 -48.817 13.9248 -67.228 28.542c-2.832 2.248 -5.64603 4.4541 -6.20502 4.8662c-0.885986 0.651299 -1.74701 0.171799 -6.38599 -3.5537c-19.39 -15.5713 -42.892 -25.8077 -68.494 -29.8301c-9.58099 -1.50586 -30.603 -1.5039 -40.242 0.00488997
c-30.361 4.75 -56.583 17.6992 -78.252 38.6435c-23.549 22.7617 -38.041 51.7529 -42.25 84.5243c-1.133 8.819 -1.184 13.314 -1.184 104.337c0 91.266 0.0480042 95.497 1.186 104.397c3.993 31.206 17.284 58.819 39.174 81.386
c21.76 22.434 49.579 36.71 81.326 41.736c6.347 1.004 11.808 1.09601 65.061 1.09601h58.133l5.78302 -1.95999c15.13 -5.125 26.517 -17.016 31.408 -32.799l1.36301 -4.39801l0.300995 -142.47l0.300995 -142.469l1.98401 -5.663
c2.34399 -6.687 4.06799 -9.832 8.32498 -15.181c3.88202 -4.878 9.21002 -9.003 15.595 -12.073c7.34302 -3.5316 11.446 -4.433 20.181 -4.433c8.73401 0 12.837 0.902298 20.181 4.44c11.8 5.686 19.4 14.355 23.939 27.307l1.96399 5.603l0.181 220.18
c0.131012 159.157 -0.00601196 221.834 -0.492004 226.145c-3.117 27.591 -22.501 51.553 -48.786 60.3051c-11.315 3.76794 -5.96399 3.53796 -87.349 3.76398c-51.325 0.143982 -75.948 0.00500488 -79.398 -0.447998c-24.736 -3.245 -52.795 -23.802 -67.599 -49.525
c-4.26501 -7.40997 -8.82001 -13.944 -11.557 -16.58c-6.26601 -6.034 -15.603 -10.98 -24.277 -12.859c-4.93999 -1.07001 -14.759 -0.937012 -19.759 0.266968c-16.386 3.94501 -29.388 15.688 -34.968 31.582c-1.60001 4.56097 -1.873 6.26501 -2.094 13.132
c-0.322998 10.061 0.872002 15.261 5.733 24.94c4.096 8.15802 14.236 23.5551 21.621 32.832c7.049 8.85498 24.754 26.409 33.383 33.1c29.751 23.064 59.095 35.113 95.18 39.078zM294.429 247.74l0.150024 114.308l-25.452 -0.0610046
c-13.976 -0.0320129 -26.837 -0.290985 -28.524 -0.571991c-1.703 -0.28302 -5.06 -1.21899 -7.53 -2.09802c-14.138 -5.02798 -24.16 -15.763 -28.943 -31.005l-1.41901 -4.517v-95.181v-95.18l1.993 -5.72401c4.804 -13.795 14.388 -23.894 27.284 -28.75
c15.663 -5.8965 32.307 -3.3252 45.302 7c6.99899 5.562 12.23 13.377 15.564 23.257l1.423 4.21701z" />
    <glyph glyph-name="A" unicode="A" 
d="M333.735 738.912c4.86002 1.03601 15.724 0.692017 20.784 -0.657959c2.00699 -0.536011 6.02399 -2.13702 9.03598 -3.60303c9.819 -4.776 16.952 -11.921 21.664 -21.699c2.146 -4.453 19.528 -63.313 97.221 -329.218c52.031 -178.072 94.934 -325.15 95.331 -326.807
c0.400024 -1.6631 0.710999 -5.8428 0.695984 -9.337c-0.135986 -31.205 -30.36 -54.1679 -60.274 -45.7939c-14.517 4.06445 -26.72 15.0928 -31.939 28.8662c-0.95401 2.5166 -9.983 32.8613 -20.049 67.3799l-18.312 62.801h-105.422h-105.422l-18.675 -64.0061
c-10.265 -35.1807 -19.262 -65.4443 -19.978 -67.1992c-3.341 -8.1924 -10.474 -16.7559 -18.155 -21.7969c-27.322 -17.9346 -64.261 -3.2627 -72.473 28.7852c-1.576 6.1445 -1.581 16.3584 -0.0130005 22.4697c2.071 8.0723 188.546 645.388 190.045 649.518
c2.33902 6.44696 5.10901 10.559 11.237 16.687c7.83801 7.83899 14.276 11.387 24.698 13.611zM381.326 388.343c-21.141 72.289 -38.542 131.741 -38.675 132.138c-0.131989 0.39801 -17.625 -58.764 -38.855 -131.415l-38.614 -132.138l38.855 -0.152008
c21.385 -0.0830078 56.136 -0.0830078 77.289 0l38.434 0.152008z" />
    <glyph glyph-name="B" unicode="B" 
d="M106.627 369.879v369.88l148.946 -0.151001l148.946 -0.149963l9.94 -1.59198c43.253 -6.92804 78.509 -24.643 108.207 -54.372c10.478 -10.489 16.766 -18.193 24.877 -30.482c17.015 -25.776 27.09 -54.337 30.495 -86.446
c1.25897 -11.868 1.25 -59.216 -0.0140381 -71.085c-4.84698 -45.542 -23.652 -85.343 -55.072 -116.562l-8.79504 -8.73901l8.79504 -8.724c10.177 -10.095 16.549 -17.902 24.592 -30.131c15.623 -23.754 25.194 -49.397 29.681 -79.518
c1.32001 -8.867 1.39001 -11.024 1.39001 -42.771c0 -31.747 -0.0700073 -33.905 -1.38696 -42.771c-5.354 -36.025 -18.572 -66.9115 -40.473 -94.5785c-6.41498 -8.1035 -21.393 -23.0898 -29.526 -29.5429c-25.302 -20.0762 -55 -33.5626 -86.144 -39.1221
c-17.35 -3.09765 -13.133 -3.02246 -169.097 -3.02246h-145.361v369.88zM405.604 642.286l-6.50702 1.38898l-98.343 0.179993l-98.344 0.18103v-113.013v-113.011l98.344 0.179993l98.343 0.181l6.50702 1.38c37.348 7.918 65.236 34.216 74.492 70.247
c2.715 10.568 3.16998 17.65 2.909 45.241c-0.213013 22.59 -0.347992 25.254 -1.57501 31.204c-6.17899 29.941 -24.433 54.007 -51.007 67.249c-8.202 4.08704 -15.422 6.58606 -24.819 8.59204zM405.604 320.6l-6.50702 1.38699l-98.343 0.181l-98.344 0.181v-113.313
v-113.313l98.344 0.180595l98.343 0.180702l6.50702 1.3838c30.18 6.41821 54.009 24.5012 67.242 51.0252c4.18399 8.38901 6.67499 15.663 8.60001 25.121c1.327 6.521 1.38599 8.01201 1.38599 35.422c0 27.409 -0.0580139 28.899 -1.36401 35.361
c-6.09198 30.121 -24.332 54.277 -51.045 67.604c-8.202 4.091 -15.422 6.59299 -24.819 8.599z" />
    <glyph glyph-name="C" unicode="C" 
d="M336.446 738.521c7.90198 1.047 14.428 1.12201 103.405 1.17798c79.397 0.0500488 95.69 -0.0780029 99.367 -0.783997c22.956 -4.40698 39.217 -23.915 39.217 -47.048c0 -19.156 -11.827 -37.038 -29.157 -44.087
c-9.26404 -3.76703 -1.20502 -3.47803 -106.807 -3.83801c-90.121 -0.30603 -96.621 -0.397034 -100 -1.39899c-9.759 -2.89105 -19.511 -9.32001 -25.241 -16.64c-2.49002 -3.17999 -9.68903 -16.927 -30.665 -58.553c-33.725 -66.928 -72.684 -145.465 -75.484 -152.169
c-2.65399 -6.35699 -5.84999 -18.013 -7.23299 -26.386c-1.51201 -9.15601 -1.51201 -28.675 0 -37.831c1.383 -8.37399 4.57899 -20.03 7.23299 -26.386c2.8 -6.70502 41.759 -85.241 75.484 -152.169c20.976 -41.627 28.175 -55.373 30.665 -58.555
c5.72998 -7.31799 15.482 -13.748 25.241 -16.6392c3.379 -1.0009 9.879 -1.0918 100 -1.3994c105.602 -0.359299 97.543 -0.0692978 106.807 -3.8379c17.33 -7.0478 29.157 -24.9296 29.157 -44.0869c0 -23.1318 -16.236 -42.6357 -39.157 -47.0371
c-6.83203 -1.31152 -189.157 -1.26562 -200.422 0.050781c-44.096 5.15332 -83.145 29.9727 -106.622 67.7695c-4.19099 6.7481 -103.73 205.482 -108.169 215.965c-7.971 18.825 -13.199 38.493 -16.012 60.24c-1.534 11.868 -1.534 38.133 0 50
c2.813 21.747 8.041 41.416 16.012 60.241c4.439 10.483 103.992 209.217 108.184 215.964c23.033 37.072 61.125 61.725 104.197 67.437z" />
    <glyph glyph-name="D" unicode="D" 
d="M146.868 739.158c1.558 0.264954 45.241 0.507996 97.109 0.540955c80.602 0.0510254 95.404 -0.0719604 102.047 -0.848999c43.916 -5.14099 83.536 -30.245 106.478 -67.464c1.83899 -2.98401 26.65 -51.747 55.173 -108.435
c58.044 -115.361 58.912 -117.249 64.841 -140.964c4.57501 -18.298 6.099 -31.325 6.099 -52.108s-1.52399 -33.81 -6.099 -52.108c-5.92902 -23.714 -6.797 -25.603 -64.841 -140.964c-28.523 -56.687 -53.335 -105.451 -55.176 -108.434
c-7.95398 -12.8916 -20.053 -26.6435 -31.715 -36.0478c-21.257 -17.1416 -46.085 -27.7051 -73.193 -31.1416c-9.01599 -1.14355 -12.651 -1.17871 -105.422 -1.0332l-96.084 0.15039l-4.397 1.36328c-21.502 6.66309 -35.061 24.54 -35.061 46.2265
c0 21.6875 13.704 39.7451 35.061 46.2012c4.20799 1.27251 5.57199 1.33891 31.656 1.54l27.259 0.210999v274.036v274.037l-27.259 0.209961c-26.084 0.202026 -27.448 0.269043 -31.656 1.547c-13.977 4.24304 -25.249 13.876 -30.934 26.435
c-5.592 12.35 -5.59 27.169 0.00500488 39.519c6.502 14.352 20.265 24.847 36.109 27.531zM342.471 642.521c-3.026 0.86499 -7.078 1.078 -24.85 1.30402l-21.235 0.271973v-274.218v-274.217l21.205 0.252899c23.675 0.283195 24.421 0.386803 33.313 4.653
c6.38602 3.064 12.701 8.066 16.776 13.286c3.27301 4.19601 9.22101 15.844 83.058 162.652c19.907 39.578 23.568 47.274 25.938 54.517c3.56799 10.906 5.06799 18.374 5.952 29.639c1.29501 16.506 -0.579987 31.65 -5.952 48.072
c-2.37 7.24399 -6.03101 14.941 -25.938 54.519c-73.837 146.808 -79.785 158.456 -83.052 162.65c-5.724 7.349 -15.637 13.882 -25.215 16.618z" />
    <glyph glyph-name="E" unicode="E" 
d="M106.627 369.879v369.88h214.097c181.686 0 214.761 -0.127991 218.494 -0.843994c22.956 -4.40698 39.217 -23.915 39.217 -47.048s-16.261 -42.639 -39.217 -47.047c-3.71704 -0.713989 -30.12 -0.843994 -170.603 -0.843994h-166.205v-112.922v-112.922
l74.217 -0.205994c83.555 -0.234009 76.288 0.183014 86.928 -4.991c9.819 -4.77701 16.899 -11.851 21.687 -21.67c3.89801 -7.99402 4.759 -11.807 4.759 -21.085c0 -9.27698 -0.860992 -13.09 -4.759 -21.084c-4.78799 -9.82001 -11.868 -16.893 -21.687 -21.669
c-10.64 -5.17599 -3.37299 -4.759 -86.928 -4.991l-74.217 -0.207001v-113.223v-113.224h166.205c140.482 0 166.886 -0.129906 170.603 -0.843704c22.956 -4.4073 39.217 -23.9151 39.217 -47.0479c0 -23.1318 -16.261 -42.6396 -39.217 -47.0468
c-3.73303 -0.716797 -36.808 -0.844727 -218.494 -0.844727h-214.097v369.88z" />
    <glyph glyph-name="F" unicode="F" 
d="M106.627 391.928v347.831h214.097c181.686 0 214.761 -0.127991 218.494 -0.843994c22.956 -4.40698 39.217 -23.915 39.217 -47.048s-16.261 -42.639 -39.217 -47.047c-3.71704 -0.713989 -30.12 -0.843994 -170.603 -0.843994h-166.205v-72.892v-72.892
l121.236 -0.149994l121.234 -0.151001l4.397 -1.36499c15.905 -4.936 27.421 -15.992 32.779 -31.466c1.90201 -5.49399 1.98099 -6.08398 1.98099 -14.759c0 -8.67499 -0.0789795 -9.26498 -1.98099 -14.759c-5.358 -15.474 -16.874 -26.529 -32.779 -31.467
l-4.397 -1.36401l-121.234 -0.151001l-121.236 -0.151001l-0.150009 -181.475c-0.143997 -172.531 -0.205002 -181.655 -1.243 -185.091c-1.711 -5.6621 -6.06799 -14.083 -9.41299 -18.1924c-4.282 -5.2617 -9.616 -9.44337 -16.001 -12.5459
c-12.244 -5.94922 -24.398 -6.64258 -37.168 -2.12109c-6.92799 2.45312 -11.065 5.18848 -17.35 11.4736c-6.143 6.1426 -8.901 10.2412 -11.273 16.7471c-3.41299 9.3584 -3.185 -16.3857 -3.185 360.724z" />
    <glyph glyph-name="G" unicode="G" 
d="M371.085 738.561c7.44901 0.987 14.669 1.08301 85.934 1.138c64.578 0.0500488 78.548 -0.0839844 82.199 -0.783997c22.956 -4.40698 39.217 -23.915 39.217 -47.048c0 -19.156 -11.827 -37.027 -29.157 -44.058c-9.13904 -3.70905 -3.01202 -3.448 -89.638 -3.83002
c-89.036 -0.39502 -81.286 0.0360107 -91.869 -5.10999c-10.293 -5.005 -7.45801 -1.64001 -79.61 -94.472c-36.381 -46.807 -67.538 -87.119 -69.283 -89.638c-6.612 -9.548 -11.87 -22.169 -14.783 -35.482l-1.384 -6.32602v-138.554
c0 -132.048 0.052002 -138.738 1.095 -142.469c3.819 -13.675 13.453 -25.293 25.954 -31.3c10.283 -4.9405 0.422012 -4.544 113.011 -4.544c112.591 0 102.729 -0.3965 113.013 4.544c9.82001 4.719 17.838 12.745 22.543 22.564
c4.71802 9.847 4.431 5.84399 4.66101 65.242l0.204987 53.131h-48.734c-52.471 0 -53.032 0.0299988 -61.688 3.186c-6.505 2.37099 -10.604 5.131 -16.747 11.272c-6.465 6.466 -8.95798 10.301 -11.51 17.711c-3.69501 10.723 -3.702 20.704 -0.0209961 31.386
c2.573 7.47 5.05499 11.294 11.531 17.772c6.14301 6.14099 10.242 8.901 16.747 11.272c9.039 3.29599 5.242 3.185 109.519 3.185h96.626v-100.873c0 -96.747 -0.0480347 -101.251 -1.18903 -110.091c-2.15497 -16.687 -6.354 -30.5803 -13.894 -45.9641
c-21.26 -43.3789 -62.868 -72.999 -111.302 -79.2344c-8.84201 -1.13867 -13.313 -1.1875 -109.638 -1.1875c-109.037 0 -107.593 -0.0390625 -123.013 3.36133c-15.06 3.32129 -31.777 10.0782 -44.578 18.0186c-37.732 23.4053 -62.63 62.5967 -67.783 106.693
c-1.389 11.883 -1.366 277.711 0.0250015 291.386c3.205 31.505 14.194 62.245 31.442 87.951c2.578 3.84302 35.192 46.236 72.46 94.188c47.148 60.662 69.691 89.196 74.08 93.764c22.98 23.916 52.487 38.815 85.559 43.2z" />
    <glyph glyph-name="H" unicode="H" 
d="M145.783 738.912c4.86 1.03601 15.724 0.692017 20.783 -0.657959c2.009 -0.536011 6.02501 -2.14105 9.037 -3.61005c9.819 -4.79095 16.899 -11.873 21.688 -21.692c5.32201 -10.914 4.802 5.18097 4.97 -153.796l0.149002 -141.084h140.361h140.362v138.795
c0 150.061 -0.15799 142.518 3.185 151.688c2.371 6.50598 5.13101 10.604 11.273 16.746c6.28601 6.28595 10.422 9.021 17.349 11.474c12.772 4.52197 24.925 3.82098 37.169 -2.14301c9.82001 -4.78302 16.901 -11.861 21.692 -21.68
c1.46997 -3.013 3.12799 -7.16205 3.72998 -9.33801c1.03998 -3.75702 1.08398 -17.289 1.08398 -333.735c0 -316.445 -0.0440063 -329.978 -1.08398 -333.734c-0.60199 -2.1757 -2.26001 -6.3261 -3.72998 -9.3379c-4.79102 -9.8193 -11.872 -16.8964 -21.692 -21.6797
c-12.244 -5.96484 -24.397 -6.66504 -37.169 -2.14355c-6.927 2.45312 -11.063 5.18848 -17.349 11.4736c-6.142 6.1426 -8.90201 10.2412 -11.273 16.7471c-3.34198 9.1689 -3.185 1.627 -3.185 151.988v139.097h-140.362h-140.361l-0.149002 -141.386
c-0.167999 -159.277 0.350998 -143.185 -4.97 -154.096c-4.789 -9.8193 -11.869 -16.8964 -21.688 -21.6797c-12.244 -5.96484 -24.398 -6.66504 -37.168 -2.14355c-6.92799 2.45312 -11.065 5.18848 -17.35 11.4736c-8.019 8.0186 -11.564 14.5782 -13.606 25.1807
c-1.27699 6.6269 -1.27699 653.856 0 660.482c2.04201 10.603 5.58701 17.162 13.606 25.181c7.839 7.83899 14.277 11.387 24.698 13.611z" />
    <glyph glyph-name="I" unicode="I" 
d="M146.868 739.158c1.55701 0.264954 89.488 0.507996 195.392 0.540955c163.373 0.0510254 193.226 -0.0679932 196.958 -0.783997c22.956 -4.40698 39.217 -23.915 39.217 -47.048s-16.261 -42.639 -39.217 -47.047
c-3.63104 -0.697021 -16.989 -0.843994 -76.627 -0.843994h-72.229v-274.097v-274.097h72.229c78.072 0 76.395 0.0644989 85.241 -3.27731c11.145 -4.211 21.095 -13.4981 26.2401 -24.4932c13.387 -28.6025 -4.79401 -62.5137 -36.12 -67.3721
c-3.37805 -0.523437 -53.373 -0.655273 -198.192 -0.519531l-193.675 0.180664l-4.397 1.36328c-21.502 6.66309 -35.061 24.54 -35.061 46.2265c0 21.6875 13.595 39.6143 35.061 46.2344l4.397 1.3564l74.247 0.180702l74.247 0.180695v274.036v274.037l-74.247 0.180969
l-74.247 0.179993l-4.397 1.36304c-14.097 4.36597 -25.254 13.913 -30.937 26.468c-5.59 12.35 -5.587 27.169 0.00800323 39.519c6.502 14.352 20.265 24.847 36.109 27.531z" />
    <glyph glyph-name="J" unicode="J" 
d="M474.698 738.919c4.86002 1.03302 15.724 0.684021 20.783 -0.669983c5.362 -1.435 13.917 -5.815 18.194 -9.31799c7.21802 -5.91101 13.33 -15.317 16.258 -25.015c1.04303 -3.45404 1.09705 -16.145 1.242 -285.844
c0.14801 -277.952 0.132019 -282.371 -1.03497 -291.566c-1.34698 -10.603 -4.24103 -22.767 -7.52502 -31.6271c-19.095 -51.5254 -64.904 -87.5869 -119.362 -93.9648c-11.446 -1.34082 -110.121 -1.34961 -121.566 -0.011718
c-66.928 7.82618 -119.337 60.2168 -127.156 127.11c-1.31601 11.264 -1.36601 162.892 -0.0550079 169.699c1.09 5.66199 3.25101 11.577 5.85201 16.023c2.608 4.45798 12.443 14.299 16.901 16.912c4.802 2.81302 12.71 5.43301 18.916 6.26401
c9.758 1.30701 22.018 -1.46399 30.481 -6.88901c7.952 -5.09698 16.251 -14.925 19.145 -22.672c3.489 -9.33499 3.24001 -3.073 3.62401 -91.084c0.39299 -90.663 -0.00500488 -83.026 4.86699 -93.193c5.94101 -12.4 17.063 -21.747 30.497 -25.6296l4.698 -1.3584
h53.013c59.397 0 55.738 -0.251999 65.722 4.532c12.378 5.931 21.826 17.215 25.964 31.01c1.03598 3.452 1.09799 16.266 1.38599 285.844c0.279022 261.807 0.373993 282.468 1.311 285.542c3.21301 10.542 6.92001 16.698 14.17 23.531
c7.16699 6.75397 13.977 10.313 23.675 12.376z" />
    <glyph glyph-name="K" unicode="K" 
d="M145.783 738.912c4.86 1.03601 15.724 0.692017 20.783 -0.657959c2.009 -0.536011 6.02501 -2.14105 9.037 -3.61005c9.819 -4.79095 16.893 -11.873 21.669 -21.692c5.244 -10.7791 4.744 1.50598 5.112 -125.663l0.326996 -113.012l148.193 126.777
c81.506 69.727 149.82 127.942 151.808 129.366c13.326 9.54199 29.276 11.799 44.458 6.29102c11.626 -4.21899 21.62 -13.399 26.914 -24.723c8.70203 -18.615 4.45404 -40.591 -10.589 -54.78c-1.95502 -1.84399 -78.163 -67.146 -169.368 -145.13
c-91.205 -77.984 -165.814 -141.967 -165.814 -142.199s74.609 -64.215 165.814 -142.198c91.205 -77.985 167.413 -143.288 169.368 -145.135c9.77002 -9.2295 14.94 -21.2207 14.94 -34.6553c0 -13.6142 -5.24103 -25.5625 -15.362 -35.0273
c-16.711 -15.628 -41.446 -17.0723 -60.361 -3.52443c-1.98801 1.42383 -70.302 59.6377 -151.808 129.365l-148.193 126.777l-0.326996 -113.011c-0.367996 -127.169 0.132004 -114.884 -5.112 -125.663c-4.776 -9.8193 -11.85 -16.8964 -21.669 -21.6797
c-12.244 -5.96484 -24.398 -6.66504 -37.168 -2.14355c-6.92799 2.45312 -11.065 5.18848 -17.35 11.4736c-8.019 8.0186 -11.564 14.5782 -13.606 25.1807c-1.27699 6.6269 -1.27699 653.856 0 660.482c2.04201 10.603 5.58701 17.162 13.606 25.181
c7.839 7.83899 14.277 11.387 24.698 13.611z" />
    <glyph glyph-name="L" unicode="L" 
d="M145.783 738.912c4.86 1.03601 15.724 0.69104 20.783 -0.662964c5.36301 -1.435 13.917 -5.815 18.194 -9.31799c7.218 -5.91101 13.33 -15.317 16.258 -25.015c1.043 -3.45599 1.097 -16.898 1.24199 -305.874l0.150009 -302.26h166.205
c140.482 0 166.886 -0.129906 170.603 -0.843704c22.956 -4.4073 39.217 -23.9151 39.217 -47.0479c0 -23.1318 -16.261 -42.6396 -39.217 -47.0468c-3.73303 -0.716797 -36.808 -0.844727 -218.494 -0.844727h-214.097v347.832c0 377.108 -0.227997 351.364 3.185 360.724
c2.372 6.50598 5.13 10.604 11.273 16.746c7.839 7.83899 14.277 11.387 24.698 13.611z" />
    <glyph glyph-name="M" unicode="M" 
d="M106.627 391.928v347.831h59.819h59.82l6.295 -8.97595c3.45999 -4.93304 28.65 -40.813 55.933 -79.669c27.283 -38.855 50.643 -72.103 51.868 -73.825l2.229 -3.133l58.072 82.802l58.072 82.801h60.091h60.09l-0.150024 -350.152
c-0.143982 -335.18 -0.197021 -350.304 -1.23401 -353.764c-4.172 -13.916 -13.144 -24.7627 -25.423 -30.7325c-12.244 -5.95312 -24.397 -6.64746 -37.169 -2.12207c-6.38501 2.2627 -10.776 5.0166 -16.325 10.2392c-7.25098 6.8243 -10.958 12.9766 -14.171 23.5186
c-0.936005 3.0742 -1.03101 23.8262 -1.311 286.777l-0.300995 283.465l-46.235 -65.904l-46.235 -65.903v-14.338c0 -18.735 -1.34601 -25.704 -6.716 -34.759c-2.87201 -4.84302 -10.333 -12.523 -15.392 -15.847c-8.90601 -5.849 -21.025 -8.72101 -31.145 -7.38101
c-6.20502 0.822998 -14.149 3.45602 -18.855 6.25302c-7.85901 4.66901 -17.115 15.409 -20.082 23.3c-3.004 7.98999 -3.19199 9.39801 -3.54901 26.747l-0.345978 16.747l-45.783 65.272l-45.783 65.27l-0.300995 -283.494
c-0.287003 -270.602 -0.350006 -283.658 -1.38501 -287.108c-4.17099 -13.916 -13.143 -24.7627 -25.422 -30.7325c-12.244 -5.95312 -24.398 -6.64844 -37.168 -2.12695c-6.92799 2.45312 -11.065 5.18848 -17.35 11.4736c-6.143 6.1426 -8.901 10.2412 -11.273 16.7471
c-3.41299 9.3584 -3.185 -16.3857 -3.185 360.724z" />
    <glyph glyph-name="N" unicode="N" 
d="M106.627 391.928v347.831l63.012 -0.151001l63.012 -0.149963l6.597 -14.759c3.627 -8.11597 59.931 -136.356 125.09 -284.91l118.494 -270.151l0.300995 265.03c0.278992 245.724 0.375 265.272 1.311 268.344c3.21301 10.542 6.92001 16.6949 14.171 23.519
c5.54901 5.22198 9.94 7.97601 16.325 10.239c12.772 4.52496 24.925 3.83197 37.169 -2.12201c12.279 -5.97003 21.251 -16.817 25.423 -30.732c1.03699 -3.46002 1.09003 -18.585 1.23401 -353.766l0.150024 -350.151l-63.343 0.151368l-63.344 0.15039l-124.758 284.518
l-124.76 284.518l-0.300995 -264.94c-0.287003 -252.711 -0.350998 -265.107 -1.38501 -268.554c-4.17099 -13.916 -13.143 -24.7627 -25.422 -30.7325c-12.244 -5.95312 -24.398 -6.64844 -37.168 -2.12695c-6.92799 2.45312 -11.065 5.18848 -17.35 11.4736
c-6.143 6.1426 -8.901 10.2412 -11.273 16.7471c-3.41299 9.3584 -3.185 -16.3857 -3.185 360.724z" />
    <glyph glyph-name="O" unicode="O" 
d="M327.591 738.848c3.19901 0.432007 9.578 0.81897 14.097 0.852966c43.794 0.330994 85.298 -23.2 107.527 -60.967c1.98901 -3.37799 27.995 -54.818 57.773 -114.276c40.641 -81.145 55.01 -110.389 57.573 -117.169c17.063 -45.152 18.945 -92.289 5.53204 -138.555
c-4.99402 -17.224 -6.93304 -21.325 -63.093 -133.433c-29.785 -59.458 -55.779 -110.871 -57.747 -114.217c-4.996 -8.4942 -10.487 -15.6787 -17.587 -23.0117c-37.524 -38.7608 -95.34 -49.0362 -143.412 -25.4893c-21.025 10.2979 -38.458 26.002 -51.235 46.1514
c-4.487 7.0752 -110.624 219.941 -114.591 229.82c-7.126 17.743 -11.749 35.843 -14.388 56.325c-1.528 11.868 -1.528 38.133 0 50c2.639 20.482 7.262 38.583 14.388 56.325c3.967 9.88 110.092 222.745 114.577 229.82c15.817 24.951 39.321 43.425 66.61 52.359
c8.702 2.84802 14.639 4.20099 23.976 5.46503zM349.338 643.037c-10.301 2.42401 -20.157 -0.44696 -27.597 -8.03699c-3.11899 -3.18201 -6.30798 -9.39697 -56.138 -109.397c-29.057 -58.314 -53.794 -108.464 -54.972 -111.447
c-2.57199 -6.51102 -5.42599 -17.108 -6.814 -25.301c-1.418 -8.37402 -1.418 -29.579 0 -37.952c1.388 -8.19202 4.242 -18.789 6.814 -25.3c1.17801 -2.98401 25.915 -53.133 55.002 -111.507c51.961 -104.278 52.922 -106.145 56.416 -109.617
c4.241 -4.213 8.25299 -6.50929 13.555 -7.75629c10.18 -2.3936 19.824 0.3134 27.167 7.6283c3.29401 3.28 4.66901 5.889 33.645 63.841c16.627 33.253 40.843 81.55 53.855 107.41c20.341 40.421 24.031 48.167 26.405 55.421
c5.37201 16.424 7.24701 31.567 5.952 48.073c-0.884003 11.265 -2.384 18.734 -5.952 29.638c-2.37399 7.25598 -6.064 15 -26.405 55.422c-13.012 25.861 -37.228 74.157 -53.855 107.41c-28.976 57.952 -30.351 60.561 -33.645 63.833
c-4.108 4.08203 -8.19199 6.40503 -13.433 7.638z" />
    <glyph glyph-name="P" unicode="P" 
d="M106.627 391.928v347.831l171.566 -0.148987c191.266 -0.166016 174.07 0.221008 191.989 -4.32098c57.886 -14.673 100.834 -63.903 107.826 -123.602c1.362 -11.626 1.38098 -190.061 0.0220337 -201.687c-7.76105 -66.386 -59.184 -118.379 -125.499 -126.89
c-8.892 -1.14099 -13.464 -1.18198 -129.669 -1.18198h-120.452l-0.179001 -121.266c-0.201004 -136.506 0.298004 -123.049 -4.959 -133.855c-4.776 -9.8193 -11.85 -16.8964 -21.669 -21.6797c-12.244 -5.96484 -24.398 -6.66504 -37.168 -2.14355
c-6.92799 2.45312 -11.065 5.18848 -17.35 11.4736c-6.143 6.1426 -8.901 10.2412 -11.273 16.7471c-3.41299 9.3584 -3.185 -16.3857 -3.185 360.724zM447.29 642.587c-3.41501 1.02704 -10.271 1.09601 -124.247 1.23804l-120.633 0.151001v-133.133v-133.132
l120.603 0.179016c135.3 0.199982 122.47 -0.249023 132.711 4.64499c9.819 4.69299 17.845 12.705 22.564 22.525c4.92801 10.256 4.54401 1.32599 4.54401 105.783v93.073l-1.366 4.698c-4.73199 16.272 -17.489 28.954 -34.176 33.973z" />
    <glyph glyph-name="Q" unicode="Q" 
d="M447.893 738.843c26.626 3.44897 55.771 -3.32104 78.313 -18.192c28.822 -19.014 47.294 -48.723 51.753 -83.242c0.853027 -6.60101 0.957031 -22.891 0.957031 -149.397c0 -152.289 0.0709839 -148.398 -3.03101 -165.723
c-6.72198 -37.53 -24.421 -72.012 -51.114 -99.578c-4.18701 -4.325 -21.276 -19.449 -42.542 -37.651c-19.578 -16.758 -35.609 -30.462 -35.692 -30.512c-0.113983 -0.0690002 4.36102 -11.597 18.302 -47.139l4.55902 -11.6268h32.711
c25.662 0 33.659 -0.181602 37.109 -0.843704c22.956 -4.4073 39.217 -23.9151 39.217 -47.0479c0 -23.1318 -16.261 -42.6396 -39.217 -47.0468c-3.617 -0.694336 -16.025 -0.844727 -69.88 -0.844727h-65.482l-17.138 43.9766
c-9.439 24.2168 -17.288 43.9756 -17.47 43.9756c-0.182983 0 -16.988 -14.2578 -37.35 -31.6866c-24.819 -21.2451 -39.38 -33.2724 -44.186 -36.498c-34.955 -23.458 -79.277 -26.1377 -117.23 -7.0879c-29.893 15.0049 -51.913 42.6221 -60.254 75.5742
c-3.824 15.1001 -3.669 7.6504 -3.476 167.77l0.176003 145.483l1.593 9.939c5.716 35.663 18.811 65.811 40.295 92.772c11.584 14.536 12.931 15.718 192.208 168.744c54.7 46.689 50.112 42.884 57.591 47.768c14.37 9.383 32.048 15.881 49.278 18.114zM471.266 642.002
c-6.02499 2.75598 -14.135 2.37897 -19.699 -0.915039c-1.68298 -0.995972 -72.651 -61.4449 -194.458 -165.636c-16.868 -14.428 -28.37 -24.73 -30.903 -27.68c-11.324 -13.184 -18.592 -28.132 -22.113 -45.482l-1.382 -6.80801v-142.169v-142.167l1.588 -3.37399
c2.041 -4.33701 5.76201 -8.05811 10.099 -10.0991c2.886 -1.3584 4.157 -1.5879 8.795 -1.5879c4.82001 0 5.81001 0.201202 8.916 1.8066c2.32901 1.2051 19.066 15.1614 50.211 41.8684c25.723 22.057 47.515 40.737 48.493 41.566l1.77802 1.506l-17.801 45.633
c-9.80002 25.12 -18.228 47.284 -18.75 49.307c-2.953 11.446 -0.925018 25.415 5.215 35.904c2.64398 4.517 12.446 14.338 16.938 16.971c4.80301 2.81302 12.711 5.427 18.916 6.25101c10.12 1.34299 22.239 -1.52701 31.145 -7.37601
c5.05899 -3.32401 12.535 -11.003 15.422 -15.846c1.129 -1.89297 5.39999 -12.019 9.517 -22.561c4.11801 -10.542 9.49802 -24.317 11.989 -30.693l4.517 -11.566l20.603 17.56c11.325 9.65298 22.938 19.947 25.79 22.861c12.872 13.156 21.502 29.76 25.36 48.796
l1.38 6.80701v141.868v141.867l-1.578 3.37396c-2.02899 4.33704 -5.76401 8.08099 -9.98801 10.014z" />
    <glyph glyph-name="R" unicode="R" 
d="M106.627 391.928v347.831l171.566 -0.148987c191.266 -0.166016 174.07 0.220032 191.989 -4.31396c58.099 -14.703 100.942 -63.971 107.858 -124.031c0.777039 -6.74902 0.89801 -14.217 0.709045 -43.915c-0.249023 -39.338 -0.334045 -40.435 -4.32404 -56.205
c-12.917 -51.048 -53.22 -91.329 -104.304 -104.247c-15.313 -3.87302 -18.012 -4.086 -56.325 -4.45502l-34.759 -0.335999l97.53 -166.806c53.643 -91.747 98.096 -168.325 98.787 -170.181c6.98401 -18.7353 2.31097 -38.6211 -12.281 -52.2676
c-19.326 -18.0712 -49.569 -16.708 -67.677 3.0508c-1.96799 2.1485 -5.41 6.9873 -7.625 10.7227c-2.21899 3.7441 -52.519 89.759 -111.776 191.145l-107.741 184.336l-32.922 0.152008l-32.922 0.149994l-0.150009 -181.475
c-0.143997 -172.531 -0.205002 -181.655 -1.243 -185.091c-1.711 -5.6621 -6.06799 -14.083 -9.41299 -18.1924c-4.282 -5.2617 -9.616 -9.44337 -16.001 -12.5459c-12.244 -5.94922 -24.398 -6.64258 -37.168 -2.12109c-6.92799 2.45312 -11.065 5.18848 -17.35 11.4736
c-6.143 6.1426 -8.901 10.2412 -11.273 16.7471c-3.41299 9.3584 -3.185 -16.3857 -3.185 360.724zM447.29 642.59c-3.41501 1.02496 -10.271 1.09296 -124.247 1.23499l-120.633 0.151001v-72.892v-72.892l120.603 0.179016c135.3 0.200012 122.47 -0.248016 132.711 4.646
c9.819 4.69299 17.845 12.706 22.564 22.525c4.62799 9.63202 4.54401 8.79498 4.54401 45.542s0.0830078 35.911 -4.53201 45.542c-5.931 12.3781 -17.215 21.826 -31.01 25.9641z" />
    <glyph glyph-name="S" unicode="S" 
d="M200.362 738.823c4.827 0.659973 29.909 0.827026 131.596 0.875977c109.579 0.052002 126.588 -0.0579834 133.103 -0.863953c30.121 -3.72705 56.347 -16.666 77.252 -38.112c20.372 -20.899 32.794 -47.41 35.966 -76.747
c2.29199 -21.205 -2.133 -35.525 -14.603 -47.265c-9.45001 -8.89697 -20.121 -13.114 -32.952 -13.024c-5.66302 0.0390015 -7.896 0.335999 -12.229 1.62897c-9.09698 2.71405 -15.76 6.70404 -21.906 13.118c-8.672 9.047 -12.41 18.072 -13.449 32.469
c-0.410004 5.66296 -0.94101 8.63098 -2.09003 11.687c-3.349 8.89996 -10.627 16.111 -19.604 19.42l-4.51703 1.66498h-123.283h-123.284l-2.591 -1.82001c-4.87799 -3.42499 -6.76599 -9.961 -4.276 -14.807c0.596008 -1.159 80.656 -104.187 177.861 -228.886
c97.206 -124.698 178.195 -228.919 179.927 -231.536c8.80096 -13.296 14.613 -29.036 16.749 -45.361c6.94702 -53.0726 -27.714 -104.1 -79.899 -117.627c-14.658 -3.79981 -8.19299 -3.63868 -145.723 -3.63868c-109.397 0 -126.14 0.118165 -132.349 0.933594
c-30.241 3.96972 -56.27 16.9199 -77.071 38.3438c-20.185 20.791 -32.56 47.289 -35.729 76.5056c-2.183 20.121 1.548 33.551 12.565 45.241c6.30801 6.694 12.885 10.679 22.162 13.429c4.33299 1.284 6.56699 1.58 12.23 1.62001
c12.831 0.0889893 23.501 -4.127 32.951 -13.021c9.77299 -9.198 14.118 -18.955 15.229 -34.196c0.414001 -5.66299 0.947006 -8.63 2.099 -11.687c3.29001 -8.725 10.383 -15.857 19.299 -19.4053l4.217 -1.6787l122.53 -0.150398l122.53 -0.151398l3.19299 1.4619
c5.60202 2.5645 8.41702 9.3639 6.12802 14.8039c-0.488007 1.159 -80.679 104.458 -178.176 229.518c-97.498 125.06 -178.524 229.307 -180.031 231.626c-23.544 36.205 -23.302 82.525 0.618004 118.253c17.316 25.866 44.955 43.196 75.557 47.378z" />
    <glyph glyph-name="T" unicode="T" 
d="M106.627 673.554v66.205h236.144h236.145v-66.205c0 -72.168 0.0679932 -70.608 -3.48901 -79.759c-4.53198 -11.658 -14.703 -21.891 -26.511 -26.669c-6.698 -2.71198 -10.843 -3.49896 -18.192 -3.45697c-7.591 0.0440063 -14.405 1.62701 -20.663 4.79797
c-10.866 5.50702 -19.557 15.027 -23.674 25.93c-2.84698 7.539 -3.254 11.447 -3.254 31.265v18.314h-46.385h-46.386l-0.149994 -302.259c-0.14502 -288.977 -0.197998 -302.418 -1.23401 -305.874c-4.172 -13.916 -13.145 -24.7627 -25.423 -30.7325
c-12.244 -5.95312 -24.398 -6.64844 -37.169 -2.12695c-6.92798 2.45312 -11.064 5.18848 -17.349 11.4736c-6.142 6.1426 -8.901 10.2412 -11.273 16.7471c-3.405 9.3369 -3.185 -12.2285 -3.185 312.832v299.94h-46.085h-46.084v-18.314
c0 -20.181 -0.41301 -23.954 -3.489 -31.867c-4.533 -11.658 -14.703 -21.891 -26.511 -26.669c-6.698 -2.71198 -10.844 -3.49896 -18.192 -3.45697c-7.591 0.0440063 -14.406 1.62701 -20.663 4.79797c-10.866 5.50702 -19.558 15.027 -23.675 25.93
c-3.297 8.73303 -3.253 7.651 -3.253 79.157z" />
    <glyph glyph-name="U" unicode="U" 
d="M145.783 738.912c4.86 1.03601 15.724 0.69104 20.783 -0.662964c5.36301 -1.435 13.917 -5.815 18.194 -9.31799c7.218 -5.91101 13.33 -15.317 16.258 -25.015c1.041 -3.44702 1.105 -16.687 1.392 -286.145c0.287994 -269.82 0.349991 -282.693 1.386 -286.145
c4.13899 -13.795 13.586 -25.079 25.964 -31.01c10.283 -4.9275 0.422012 -4.532 113.011 -4.532c112.591 0 102.729 -0.3955 113.013 4.532c12.377 5.931 21.825 17.215 25.964 31.01c1.035 3.452 1.09802 16.266 1.38501 285.844
c0.279999 261.807 0.375 282.468 1.311 285.542c3.21301 10.542 6.92001 16.6949 14.171 23.519c5.54901 5.22198 9.94 7.97601 16.325 10.239c12.772 4.52496 24.925 3.83197 37.169 -2.12201c12.279 -5.97003 21.251 -16.817 25.423 -30.732
c1.03503 -3.45404 1.09003 -16.145 1.23401 -285.844c0.14801 -277.952 0.132019 -282.371 -1.02997 -291.566c-2.12305 -16.808 -6.29102 -30.6681 -13.857 -46.0851c-21.289 -43.3789 -62.914 -72.999 -111.348 -79.2344
c-8.84201 -1.13867 -13.313 -1.1875 -109.638 -1.1875c-85.784 0 -101.555 0.132813 -108.194 0.90918c-42.952 5.02539 -80.964 28.5195 -104.768 64.7539c-8.782 13.3662 -16.402 31.5664 -19.952 47.6499c-3.564 16.143 -3.352 -3.01099 -3.352 302.411
c0 303.313 -0.215996 283.506 3.185 292.832c2.372 6.50598 5.13 10.604 11.273 16.746c7.839 7.83899 14.277 11.387 24.698 13.611z" />
    <glyph glyph-name="V" unicode="V" 
d="M145.783 738.912c4.86 1.03601 15.724 0.692017 20.783 -0.657959c2.009 -0.536011 6.02501 -2.14105 9.037 -3.61005c9.819 -4.79095 16.893 -11.873 21.669 -21.692c5.187 -10.662 4.748 -2.651 5.114 -93.374l0.324997 -80.723l69.88 -179.307
c38.432 -98.614 70.055 -178.995 70.271 -178.614c0.214996 0.37999 31.854 81.325 70.331 179.939l69.94 179.247v77.772c0 83.855 -0.0740051 81.7209 3.185 90.663c2.371 6.50598 5.13101 10.604 11.273 16.746c6.28601 6.28595 10.422 9.021 17.349 11.474
c12.772 4.52197 24.925 3.82098 37.169 -2.14301c9.82001 -4.78302 16.893 -11.861 21.669 -21.68c5.20898 -10.708 4.76001 -1.50702 4.95996 -101.747l0.17804 -89.097l-96.145 -246.747c-52.883 -135.723 -96.689 -247.832 -97.356 -249.157
c-2.12201 -4.2168 -6.25702 -9.582 -10.294 -13.3574c-23.506 -21.9805 -61.429 -14.5342 -75.69 14.8633c-1.04501 2.1543 -43.471 110.724 -94.28 241.266c-50.808 130.542 -93.762 240.874 -95.452 245.18l-3.072 7.83099v86.808c0 93.675 -0.0930023 90.769 3.185 99.76
c2.372 6.50598 5.13 10.604 11.273 16.746c7.839 7.83899 14.277 11.387 24.698 13.611z" />
    <glyph glyph-name="W" unicode="W" 
d="M145.783 738.912c4.85899 1.03601 15.723 0.69104 20.783 -0.662964c5.362 -1.435 13.916 -5.815 18.193 -9.31799c7.218 -5.91101 13.33 -15.317 16.259 -25.015c1.04199 -3.45404 1.097 -16.055 1.241 -283.163l0.149994 -279.549l13.194 -22.559l13.192 -22.561
l19.789 -0.150398l19.789 -0.151398l13.103 22.4708l13.102 22.47l0.149994 158.975c0.167999 179.157 -0.363983 160.748 4.95801 171.688c5.97 12.271 16.76 21.253 30.194 25.132c3.88 1.12 6.20401 1.37299 12.59 1.37299c9.33801 0 13.221 -0.880981 21.085 -4.78299
c9.879 -4.90302 16.919 -11.965 21.652 -21.722c5.30499 -10.934 4.758 7.34802 5.12701 -171.386l0.328979 -158.735l13.253 -22.742l13.253 -22.7408l19.578 0.0302963l19.578 0.0302963l13.404 22.9522l13.404 22.951v276.929c0 300.12 -0.214996 280.554 3.18399 289.88
c2.37201 6.50598 5.13101 10.604 11.274 16.746c6.285 6.28595 10.421 9.021 17.348 11.474c12.772 4.52197 24.925 3.82697 37.1689 -2.12701c12.2791 -5.97003 21.251 -16.817 25.423 -30.732c1.03601 -3.45502 1.08997 -16.507 1.23499 -296.024l0.150024 -292.411
l-26.266 -44.939c-14.434 -24.6992 -27.347 -46.6221 -28.669 -48.6748c-2.95001 -4.582 -11.089 -12.4268 -15.788 -15.2168c-4.52298 -2.68555 -11.566 -5.14453 -17.229 -6.01562c-3.29199 -0.506836 -18.735 -0.638672 -56.928 -0.484375
c-52.349 0.209961 -52.415 0.211914 -56.807 1.55566c-13.313 4.07325 -22.384 11.4922 -30.172 24.6787c-2.20502 3.7353 -4.11902 6.747 -4.28601 6.747s-2.07999 -3.0117 -4.28601 -6.747c-7.78799 -13.1866 -16.858 -20.6055 -30.172 -24.6787
c-4.392 -1.34375 -4.45798 -1.3457 -56.807 -1.55566c-38.193 -0.154297 -53.635 -0.021485 -56.928 0.487304c-5.662 0.875005 -12.666 3.32226 -17.289 6.04296c-3.963 2.33204 -13.174 11.2705 -16.581 16.0898c-1.21899 1.7246 -14.008 23.2529 -28.449 47.8916
l-26.235 44.7589v287.53c0 315.844 -0.251999 294.169 3.542 304.88c2.497 7.04901 5.207 11.159 11.518 17.47c7.839 7.83899 14.277 11.387 24.699 13.611z" />
    <glyph glyph-name="X" unicode="X" 
d="M146.868 739.135c10.422 1.75702 22.785 -0.705017 32.169 -6.40601c5.052 -3.06903 11.414 -9.23499 14.812 -14.356c1.561 -2.35199 35.631 -60.392 75.73 -129.006l72.892 -124.728l1.29498 2.168c0.712006 1.19299 33.211 56.807 72.199 123.554
c38.988 66.7469 72.122 123.366 73.611 125.784c16.211 26.325 51.381 31.461 73.497 10.735c7.02802 -6.58698 11.551 -14.169 14.058 -23.567c2.508 -9.39697 1.44104 -21.733 -2.651 -30.663c-0.773987 -1.69 -40.743 -70.361 -88.847 -152.65
s-87.44 -149.822 -87.44 -150.121c0 -0.298004 39.336 -67.831 87.44 -150.12s88.073 -150.961 88.847 -152.651c4.09204 -8.9297 5.159 -21.2656 2.651 -30.6631c-2.50696 -9.3974 -7.02997 -16.9795 -14.058 -23.5664c-22.116 -20.7275 -57.286 -15.5898 -73.497 10.7354
c-1.48898 2.4179 -34.623 59.0361 -73.611 125.783c-38.988 66.748 -71.487 122.362 -72.199 123.554l-1.29498 2.16901l-72.892 -124.728c-40.099 -68.6156 -74.179 -126.681 -75.753 -129.067c-5.42801 -8.2266 -13.946 -14.957 -23.163 -18.2998
c-26.792 -9.71777 -55.765 5.76953 -62.86 33.6006c-2.35 9.2168 -1.299 21.4541 2.596 30.2412c0.807999 1.8223 40.804 70.6028 88.909 152.892c48.104 82.289 87.44 149.822 87.44 150.12c0 0.299011 -39.336 67.832 -87.44 150.121
c-48.105 82.289 -88.102 151.068 -88.911 152.892c-5.265 11.862 -5.136 26.686 0.334999 38.735c6.519 14.352 20.292 24.837 36.136 27.508z" />
    <glyph glyph-name="Y" unicode="Y" 
d="M145.783 738.912c4.85899 1.03601 15.723 0.692017 20.783 -0.657959c2.00801 -0.536011 6.024 -2.14105 9.037 -3.61005c9.819 -4.79095 16.892 -11.873 21.668 -21.692c4.89 -10.0551 4.70401 -8.25305 5.09201 -49.157l0.347992 -36.445l69.85 -89.6089
c57.71 -74.036 69.985 -89.468 70.631 -88.796c0.432007 0.447998 32.068 40.905 70.332 89.941l69.548 89.126l0.0290222 33.855c0.0299988 36.325 0.172974 38.401 3.22699 46.747c2.35901 6.44696 5.13501 10.559 11.263 16.687
c6.285 6.28595 10.421 9.021 17.348 11.474c12.772 4.52197 24.925 3.82098 37.1689 -2.14301c9.82001 -4.78302 16.9 -11.861 21.688 -21.68c5.06897 -10.395 4.74396 -6.14404 4.97498 -65.181l0.205994 -52.59l-24.278 -31.175
c-13.345 -17.138 -55.742 -71.536 -94.157 -120.814l-69.879 -89.638l-0.328979 -157.048c-0.369019 -176.868 0.177979 -158.766 -5.12802 -169.699c-4.76498 -9.8193 -11.832 -16.8964 -21.651 -21.6797c-12.244 -5.96484 -24.399 -6.66504 -37.169 -2.14355
c-6.92798 2.45312 -11.065 5.18848 -17.35 11.4736c-6.14102 6.1426 -8.901 10.2412 -11.273 16.7471c-3.354 9.1992 -3.185 0.3018 -3.185 167.53v154.578l-94.277 120.905l-94.277 120.903v47.711c0 52.289 0.173996 55.493 3.542 65
c2.497 7.04901 5.207 11.159 11.518 17.47c7.839 7.83899 14.277 11.387 24.699 13.611z" />
    <glyph glyph-name="Z" unicode="Z" 
d="M146.868 739.158c1.55701 0.264954 99.428 0.507996 217.44 0.540955l214.608 0.0599976v-30.181v-30.181l-9.23602 -15.783c-90.187 -154.096 -331.728 -567.334 -331.728 -567.53c0 -0.166 66.808 -0.301796 148.434 -0.301796
c125.181 0 149.123 -0.131805 152.832 -0.843704c22.956 -4.4073 39.217 -23.9151 39.217 -47.0479c0 -23.1318 -16.261 -42.6396 -39.217 -47.0468c-3.73303 -0.716797 -36.808 -0.844727 -218.494 -0.844727h-214.097v30.6934v30.6924l8.923 15.2412
c72.473 123.795 331.438 566.851 331.438 567.049c0 0.165039 -67.68 0.369019 -150.451 0.450989l-150.452 0.151001l-4.397 1.36304c-14.097 4.36597 -25.254 13.913 -30.937 26.468c-5.59 12.35 -5.587 27.169 0.00800323 39.519
c6.502 14.352 20.265 24.847 36.109 27.531z" />
    <glyph glyph-name="bracketleft" unicode="[" 
d="M145.783 738.851c6.02199 1.216 387.11 1.28497 393.435 0.0700073c22.956 -4.41101 39.217 -23.921 39.217 -47.054s-16.261 -42.639 -39.217 -47.047c-3.66699 -0.703979 -20.302 -0.843994 -100.121 -0.843994h-95.723v-274.097v-274.097h95.723
c79.819 0 96.454 -0.139603 100.121 -0.843704c22.956 -4.4073 39.217 -23.9151 39.217 -47.0479c0 -23.1318 -16.261 -42.6386 -39.217 -47.0449c-6.62701 -1.27148 -386.348 -1.26562 -392.952 0.006836c-10.603 2.04199 -17.162 5.58594 -25.181 13.6045
c-8.019 8.0186 -11.564 14.5782 -13.606 25.1807c-1.27699 6.6269 -1.27699 653.856 0 660.482c2.04201 10.603 5.58701 17.162 13.606 25.181c7.857 7.85699 14.458 11.478 24.698 13.55zM247.591 369.879v274.097h-22.59h-22.591v-274.097v-274.097h22.591h22.59v274.097z
" />
    <glyph glyph-name="backslash" unicode="\" 
d="M146.929 739.144c11.084 1.86804 23.966 -0.974976 33.674 -7.43097c5.26201 -3.5 11.109 -9.66504 14.708 -15.508c6.75099 -10.964 377.919 -646.353 379.175 -649.097c4.08795 -8.9297 5.15295 -21.2656 2.64496 -30.6631
c-2.50696 -9.3974 -7.02997 -16.9756 -14.058 -23.5547c-22.092 -20.6787 -57.283 -15.542 -73.455 10.7237c-7.75201 12.5898 -377.984 646.454 -379.235 649.278c-5.256 11.862 -5.122 26.686 0.348999 38.735c6.528 14.372 20.292 24.837 36.197 27.517z" />
    <glyph glyph-name="bracketright" unicode="]" 
d="M146.868 739.158c1.55701 0.264954 90.542 0.440002 197.711 0.389954c185.542 -0.0859985 195.053 -0.142944 198.494 -1.18298c5.66199 -1.70996 14.083 -6.07196 18.193 -9.42297c7.36902 -6.00702 13.585 -15.689 16.261 -25.328
c1.04401 -3.75702 1.08801 -17.289 1.08801 -333.735c0 -316.445 -0.0440063 -329.978 -1.09302 -333.734c-1.59698 -5.7236 -5.90594 -14.1777 -9.42499 -18.4941c-6.00598 -7.3692 -15.687 -13.585 -25.326 -16.2617c-3.74097 -1.03906 -12.65 -1.08789 -200 -1.08789
h-196.083l-4.7 1.36328c-21.501 6.24024 -35.361 24.3593 -35.361 46.2265c0 21.6875 13.559 39.5635 35.061 46.2276l4.397 1.3632l97.741 0.150398l97.741 0.150406v274.097v274.097l-97.741 0.149963l-97.741 0.151001l-4.397 1.36304
c-14.097 4.36597 -25.254 13.913 -30.937 26.468c-5.59 12.35 -5.587 27.169 0.00800323 39.519c6.502 14.352 20.265 24.847 36.109 27.531zM483.133 369.879v274.097h-22.892h-22.89v-274.097v-274.097h22.89h22.892v274.097z" />
    <glyph glyph-name="asciicircum" unicode="^" 
d="M334.579 578.018c5.79099 1.052 9.51797 1.047 15.723 -0.0239868c10.722 -1.85004 19.13 -6.42303 26.882 -14.62c2.45001 -2.591 5.28702 -6.15802 6.323 -7.95203c1.90201 -3.29102 183.855 -353.434 188.923 -363.555
c5.12799 -10.24 6.98499 -19.262 5.85498 -28.433c-2.73895 -22.231 -19.9109 -39.422 -42.3199 -42.37c-13.5551 -1.783 -28.838 3.655 -38.999 13.875c-3.047 3.06601 -16.519 22.832 -61.995 90.964c-31.967 47.892 -65.853 98.593 -75.331 112.711l-17.23 25.663
l-75.271 -112.68c-59.235 -88.675 -76.111 -113.529 -79.212 -116.658c-10.15 -10.238 -25.397 -15.664 -39.011 -13.881c-18.614 2.436 -33.93 14.827 -40.093 32.436c-1.596 4.56099 -1.868 6.265 -2.09299 13.133c-0.310005 9.51801 0.839996 14.992 4.936 23.493
c6.181 12.832 188.766 363.58 191.164 367.23c3.92401 5.97101 11.147 12.454 17.472 15.6801c6.14401 3.13397 8.38599 3.91699 14.277 4.98798z" />
    <glyph glyph-name="underscore" unicode="_" 
d="M146.868 -0.600586c1.55701 0.263672 89.518 0.506836 195.422 0.540039c208.916 0.0644532 196.337 0.260742 205.542 -3.21679c11.145 -4.21094 21.095 -13.4991 26.2401 -24.4942c13.387 -28.6025 -4.79401 -62.5137 -36.12 -67.3711
c-3.37805 -0.524399 -53.373 -0.655296 -198.192 -0.5205l-193.675 0.180702l-4.397 1.3623c-14.097 4.3672 -25.254 13.914 -30.937 26.4697c-5.59 12.3496 -5.587 27.168 0.00800323 39.5176c6.502 14.3525 20.265 24.8467 36.109 27.5322z" />
    <glyph glyph-name="grave" unicode="`" 
d="M193.855 739.158c1.558 0.264954 25.904 0.505981 54.157 0.537964c55.241 0.0629883 55.45 0.052002 64.217 -3.14899c5.84299 -2.13501 10.265 -4.93799 15.421 -9.77502c3.17001 -2.974 31.785 -39.2419 99.067 -125.567
c52.022 -66.747 95.625 -122.837 96.867 -124.609c1.23499 -1.76199 3.112 -5.271 4.14099 -7.741c9.73401 -23.374 -0.442993 -50.271 -23.207 -61.339c-7.57901 -3.685 -12.289 -4.73398 -21.084 -4.694c-10.964 0.0500183 -18.82 2.582 -27.711 8.93301
c-1.98898 1.42099 -67.591 57.314 -145.784 124.209c-94.758 81.067 -143.316 122.992 -145.609 125.723c-11.737 13.973 -14.074 34.638 -5.811 51.385c6.67101 13.524 20.215 23.522 35.336 26.086z" />
    <glyph glyph-name="a" unicode="a" 
d="M241.868 538.118c0.994003 0.140991 45.844 0.202026 99.699 0.137024c108.012 -0.130981 100.226 0.135986 116.868 -3.99402c58.131 -14.423 100.627 -63.478 107.176 -123.719c0.359985 -3.31299 2.56598 -60.783 4.90198 -127.711
c2.336 -66.928 5.15503 -147.575 6.26501 -179.217c1.35699 -38.6745 1.84296 -58.8132 1.48401 -61.446c-1.56104 -11.4453 -6.69501 -21.3477 -15.189 -29.2989c-26.462 -24.7675 -69.716 -11.7255 -78.785 23.7569c-0.630981 2.4697 -1.155 5.5556 -1.155 6.8076
c0 1.2646 -0.242004 2.4375 -0.541992 2.6201c-0.298004 0.181702 -15.964 -8.6592 -34.759 -19.6172c-35.663 -20.791 -40.147 -23.1982 -46.627 -25.0293c-3.71198 -1.04883 -8.13199 -1.10645 -84.939 -1.10645c-90.12 0 -85.383 -0.193359 -102.651 4.18067
c-25.482 6.45405 -48.307 19.7413 -66.913 38.9522c-21.603 22.3066 -34.914 50.0596 -38.887 81.0844c-1.063 8.299 -1.188 12.952 -1.188 44.156c0 31.205 0.125 35.857 1.186 44.157c3.993 31.205 17.261 58.797 39.106 81.325
c21.557 22.231 48.443 36.181 79.949 41.483l8.373 1.409h105.121h105.12l7.83099 -1.38602c4.33801 -0.766998 10.359 -2.04398 13.495 -2.86099c3.13199 -0.816986 5.75598 -1.39499 5.87399 -1.29498c0.11499 0.098999 -0.332001 15.633 -0.994019 34.488
c-0.850983 24.217 -1.48599 35.813 -2.15799 39.428c-3.04999 16.391 -14.469 29.316 -30.975 35.057l-5.72299 1.991l-96.386 0.325989c-108.373 0.367004 -98.31 -0.10199 -109.036 5.07901c-12.158 5.87399 -20.864 16.221 -25.1 29.836
c-1.19499 3.84 -1.40599 5.78299 -1.40599 12.951c0 7.16901 0.210999 9.11102 1.409 12.952c1.786 5.72299 5.33299 12.561 8.812 16.989c6.907 8.78796 19.418 15.916 30.743 17.515zM445.784 239.268l-5.72299 1.99699l-98.193 0.0899963
c-54.036 0.0490112 -99.574 -0.139999 -101.265 -0.42099c-1.703 -0.285004 -5.06 -1.22701 -7.53 -2.11501c-14.195 -5.10201 -24.195 -15.807 -28.947 -30.988l-1.41501 -4.519v-34.638v-34.638l1.41701 -4.51799c5.06099 -16.145 16.408 -27.479 32.318 -32.2826
c3.37199 -1.0186 8.19301 -1.1036 71.989 -1.2725l68.373 -0.180695l50.904 29.6088c28.012 16.294 50.998 29.69 51.114 29.79c0.115997 0.0980072 -0.208984 10.964 -0.721985 24.156c-0.804993 20.663 -1.108 24.584 -2.19101 28.374
c-2.616 9.15601 -8.198 17.807 -15.009 23.26c-5.349 4.283 -8.37299 5.942 -15.12 8.29701z" />
    <glyph glyph-name="b" unicode="b" 
d="M145.783 738.912c4.86 1.03601 15.724 0.692017 20.783 -0.657959c2.009 -0.536011 6.02501 -2.14105 9.037 -3.61005c9.819 -4.79095 16.893 -11.873 21.669 -21.692c5.244 -10.7791 4.744 1.50598 5.112 -125.663l0.326996 -113.072l18.977 16.258
c20.12 17.237 26.07 21.921 34.336 27.031c12.539 7.75 29.941 14.718 44.458 17.8c14.243 3.02295 18.795 3.24799 65.784 3.24799c46.325 0 50.501 -0.197998 64.758 -3.06403c18.675 -3.755 41.322 -14.191 57.23 -26.374c8.133 -6.22699 45.58 -38.911 50.893 -44.418
c17.204 -17.831 29.274 -39.458 35.269 -63.192c4.43597 -17.558 4.12598 -8.31403 4.323 -129.217c0.171997 -105.724 0.143982 -108.995 -1.021 -118.133c-3.91901 -30.722 -16.979 -58.3162 -38.006 -80.3015c-4.99896 -5.2266 -32.361 -29.1836 -47.964 -41.9941
c-20.328 -16.6915 -46.868 -27.792 -74.036 -30.9678c-11.205 -1.30957 -91.546 -1.32031 -102.711 -0.013672c-16.868 1.97461 -32.841 6.65136 -47.471 13.8975c-15.009 7.4355 -20.722 11.664 -51.867 38.3867l-12.952 11.1133l-0.339005 -12.1084
c-0.388 -13.8555 -1.026 -17.0371 -5.084 -25.3614c-4.78699 -9.8193 -11.866 -16.8964 -21.685 -21.6797c-12.244 -5.96484 -24.398 -6.66504 -37.168 -2.14355c-6.92799 2.45312 -11.065 5.18848 -17.35 11.4736c-8.019 8.0186 -11.564 14.5782 -13.606 25.1807
c-1.27699 6.6269 -1.27699 653.856 0 660.482c2.04201 10.603 5.58701 17.162 13.606 25.181c7.839 7.83899 14.277 11.387 24.698 13.611zM413.555 441.369c-3.27399 0.943024 -7.59 1.052 -45.784 1.16101c-23.192 0.0660095 -43.442 -0.10199 -45 -0.375
c-7.16699 -1.254 -13.275 -3.741 -18.855 -7.67899c-1.655 -1.16901 -22.409 -18.73 -46.084 -38.995c-30.844 -26.4 -43.819 -37.876 -45.703 -40.421c-3.364 -4.54599 -6.258 -10.301 -8.02499 -15.964l-1.39301 -4.457v-65.061
c0 -60.361 0.0780029 -65.344 1.073 -68.976c1.41901 -5.181 5.104 -12.735 8.343 -17.109c1.86101 -2.513 15.344 -14.437 46.006 -40.692c23.855 -20.426 44.594 -37.969 46.085 -38.983c4.17801 -2.842 8.55301 -4.8805 13.675 -6.3688
c4.685 -1.36131 4.819 -1.3652 48.373 -1.3652h43.674l4.82001 1.3994c9.05698 2.6286 12.65 5.0876 34.217 23.4176c25.12 21.352 27.652 24.239 31.862 36.328l1.99301 5.722v105.724c0 100.903 -0.0509949 105.901 -1.116 109.637
c-1.49301 5.24197 -4.62 11.495 -8.07101 16.146c-1.96899 2.65298 -8.67398 8.85999 -21.505 19.909c-10.242 8.819 -20.165 17.257 -22.019 18.722c-3.823 3.02301 -11.325 6.77301 -16.566 8.28z" />
    <glyph glyph-name="c" unicode="c" 
d="M314.458 537.637c9.819 1.19397 218.566 1.26099 224.76 0.0719604c22.956 -4.40601 39.217 -23.914 39.217 -47.047c0 -19.156 -11.827 -37.038 -29.157 -44.087c-9.29803 -3.78 0.119995 -3.479 -118.855 -3.80701l-108.435 -0.298004l-4.397 -1.36401
c-5.241 -1.625 -9.548 -3.71198 -13.675 -6.62799c-1.655 -1.16998 -22.409 -18.732 -46.084 -38.997c-30.783 -26.348 -43.817 -37.881 -45.683 -40.421c-3.338 -4.54599 -6.23199 -10.301 -8.026 -15.964l-1.412 -4.457v-65.061
c0 -60.361 0.0769958 -65.344 1.06801 -68.976c1.42999 -5.24101 5.08499 -12.747 8.334 -17.109c1.87299 -2.51399 15.237 -14.33 45.719 -40.421c23.675 -20.264 44.455 -37.861 46.145 -39.074c3.55801 -2.556 9.27701 -5.246 14.397 -6.7753
c3.40802 -1.0166 9.819 -1.0977 112.049 -1.4073c118.975 -0.360298 109.557 -0.0566025 118.855 -3.8379c17.33 -7.0478 29.157 -24.9296 29.157 -44.0869c0 -23.1318 -16.261 -42.6386 -39.217 -47.0449c-6.83502 -1.31152 -213.194 -1.26562 -224.458 0.050781
c-25.241 2.94825 -49.27 12.4062 -68.976 27.1504c-7.952 5.9492 -90.02 76.2571 -96.868 82.9861c-18.419 18.102 -31.853 41.677 -37.992 66.677c-4.08601 16.638 -3.927 13.254 -4.153 88.494c-0.196007 65.483 -0.154007 68.706 1.005 77.772
c3.947 30.843 17.125 58.626 38.264 80.663c5.436 5.66599 88.599 77.343 98.78 85.136c19.514 14.938 44.036 24.748 69.638 27.862z" />
    <glyph glyph-name="d" unicode="d" 
d="M522.29 738.919c4.85803 1.03302 15.723 0.684021 20.783 -0.669983c5.362 -1.435 13.916 -5.80603 18.193 -9.29602c7.36902 -6.01501 13.585 -15.7 16.261 -25.339c1.04401 -3.75702 1.08801 -17.289 1.08801 -333.735
c0 -316.445 -0.0440063 -329.978 -1.08398 -333.734c-0.60199 -2.1757 -2.26001 -6.3261 -3.72998 -9.3379c-4.79102 -9.8193 -11.872 -16.8964 -21.692 -21.6797c-12.244 -5.96484 -24.397 -6.66504 -37.169 -2.14355c-6.927 2.45312 -11.063 5.18848 -17.349 11.4736
c-11.126 11.127 -14.458 20.3018 -14.458 39.8194c0 5.6025 -0.13501 10.1806 -0.300995 10.1806c-0.165009 0 -8.64401 -7.1357 -18.825 -15.8427c-10.181 -8.7081 -20.288 -17.2207 -22.44 -18.9004c-19.712 -15.3887 -44.759 -25.5235 -71.145 -28.7871
c-10.684 -1.32129 -91.204 -1.3457 -102.47 -0.03125c-26.204 3.05859 -51.854 13.3906 -71.566 28.8291c-9.578 7.502 -45.365 38.6836 -50.303 43.8291c-21.791 22.71 -34.813 50.7223 -38.592 83.0113c-1.353 11.567 -1.307 214.951 0.0500031 225.905
c3.967 31.988 16.976 59.975 38.219 82.228c5.138 5.383 40.686 36.382 50.626 44.148c15.51 12.119 37.47 22.336 56.747 26.403c14.656 3.09296 18.916 3.30499 66.265 3.30499c40.121 0 44.574 -0.100037 53.073 -1.18799c25.3 -3.23804 48.389 -12.616 68.192 -27.695
c2.98599 -2.27499 13.675 -11.178 23.796 -19.821l18.373 -15.694l0.300995 112.772c0.276001 103.133 0.388 113.053 1.30402 116.084c3.16898 10.482 6.87799 16.6479 14.118 23.472c7.21002 6.79602 14.036 10.372 23.735 12.435zM362.591 442.137
c-6.02402 0.977997 -82.808 0.727997 -88.193 -0.286987c-11.062 -2.086 -14.216 -4.12302 -38.554 -24.906c-22.409 -19.136 -24.548 -21.367 -28.66 -29.896c-4.85501 -10.07 -4.47301 0 -4.47301 -117.772c0 -117.77 -0.378998 -107.7 4.442 -117.77
c4.08501 -8.53099 6.22099 -10.758 28.691 -29.92c22.65 -19.315 25.709 -21.423 35 -24.1202l4.759 -1.3818h43.374c48.494 0 46.4 -0.167 56.024 4.453c5.94299 2.853 4.819 1.952 40.481 32.425c16.206 13.846 35.177 29.988 42.169 35.881
c16.145 13.603 19.287 17.498 23.194 28.747l1.987 5.722v65.664v65.663l-1.40799 4.517c-2.01001 6.44699 -5.65302 13.162 -9.64102 17.772c-3.612 4.17499 -85.999 74.719 -91.662 78.485c-4.06799 2.70599 -12.35 5.88202 -17.53 6.724z" />
    <glyph glyph-name="e" unicode="e" 
d="M267.471 537.663c4.75198 0.578979 23.253 0.784973 74.397 0.826965c73.916 0.0629883 75.726 -0.00396729 90.663 -3.30402c21.385 -4.72595 42.883 -15.065 59.277 -28.509c15.06 -12.35 42.913 -36.691 47.69 -41.677c18.689 -19.508 31.139 -43.374 36.422 -69.82
c3.034 -15.19 3.11005 -17.53 2.86902 -88.554c-0.252014 -74.156 0.137024 -68.03 -4.99103 -78.614c-3.09399 -6.38599 -7.271 -11.72 -12.532 -16.002c-4.10999 -3.345 -12.531 -7.70099 -18.193 -9.41199c-3.43097 -1.037 -12.138 -1.10001 -172.199 -1.24301
l-168.584 -0.151001l0.251007 -18.855c0.279007 -20.964 0.468994 -22.239 4.601 -30.843c4.095 -8.53099 6.23199 -10.759 28.702 -29.932c22.41 -19.122 25.466 -21.247 34.638 -24.0896l4.51901 -1.4004l131.928 -0.298798
c145.059 -0.329102 133.005 -0.0069046 142.349 -3.8077c17.33 -7.0478 29.157 -24.9296 29.157 -44.0869c0 -23.1318 -16.261 -42.6416 -39.217 -47.0508c-6.77301 -1.30078 -260.121 -1.25977 -271.266 0.043945c-26.204 3.06543 -51.854 13.4023 -71.566 28.8408
c-9.578 7.502 -45.365 38.6836 -50.303 43.8291c-21.791 22.71 -34.807 50.7223 -38.571 83.0113c-0.748001 6.41699 -0.885002 23.916 -0.885002 113.133c0 101.386 0.0470047 105.906 1.185 114.76c3.967 30.843 17.117 58.517 38.27 80.542
c4.784 4.98001 32.834 29.495 47.653 41.646c20.383 16.713 46.506 27.703 73.736 31.017zM415.061 441.076l-4.51801 1.39401l-65.964 0.117004c-68.916 0.122009 -70.108 0.0839844 -76.988 -2.431c-6.95502 -2.54102 -11.025 -5.48801 -30.843 -22.338
c-11.085 -9.422 -21.623 -18.866 -23.381 -20.951c-4.11501 -4.88202 -6.353 -8.91602 -8.72501 -15.722l-1.931 -5.54199l-0.181 -39.308l-0.179993 -39.308h140.421h140.422l-0.203003 39.036c-0.22699 43.796 -0.0209961 41.651 -4.94998 51.627
c-1.487 3.01199 -4.09702 7.10901 -5.871 9.21701c-1.754 2.086 -12.229 11.47 -23.253 20.833c-21.325 18.112 -24.992 20.644 -33.855 23.376z" />
    <glyph glyph-name="f" unicode="f" 
d="M379.217 739.37c1.32599 0.114014 31.446 0.247986 66.988 0.296021c69.578 0.0939941 68.56 0.13501 77.409 -3.09802c5.96399 -2.177 10.309 -4.95502 15.663 -10.01c8.42999 -7.95996 12.868 -16.317 14.775 -27.824
c0.859009 -5.17999 0.901978 -6.93298 0.289001 -11.806c-1.50598 -11.989 -5.58398 -20.238 -14.22 -28.771c-5.93597 -5.86395 -10.121 -8.64899 -16.507 -10.985c-8.80603 -3.22302 -8.19202 -3.19598 -74.156 -3.19598c-38.555 0 -63.163 -0.233032 -66.386 -0.627991
c-27.469 -3.36902 -51.176 -22.659 -59.859 -48.709c-3.28101 -9.84497 -3.47 -11.567 -3.77301 -34.519l-0.283997 -21.566h48.796c39.458 0 49.636 -0.161011 53.193 -0.843994c22.956 -4.40704 39.216 -23.915 39.216 -47.048c0 -23.132 -16.26 -42.64 -39.216 -47.047
c-3.55499 -0.681976 -13.735 -0.843994 -53.133 -0.843994h-48.735l-0.149994 -201.657c-0.144012 -191.988 -0.203003 -201.83 -1.24301 -205.271c-1.711 -5.6621 -6.06799 -14.083 -9.41202 -18.1924c-4.28299 -5.2617 -9.61697 -9.44337 -16.002 -12.5459
c-12.244 -5.94922 -24.398 -6.64258 -37.169 -2.12109c-6.92799 2.45312 -11.064 5.18848 -17.349 11.4736c-6.142 6.1426 -8.901 10.2412 -11.273 16.7471c-3.377 9.2627 -3.185 -3.5537 -3.185 212.23v199.277l-27.229 0.22699
c-30.602 0.257019 -30.125 0.199005 -39.94 4.961c-12.307 5.974 -21.228 16.679 -25.095 30.113c-1.97499 6.867 -1.97499 18.433 0 25.301c3.867 13.434 12.788 24.138 25.095 30.112c9.81601 4.763 9.338 4.70404 39.88 4.961l27.168 0.228027l0.272003 24.217
c0.235992 21.084 0.442001 25.3 1.593 32.591c3.655 23.132 11.97 45.692 23.892 64.819c12.954 20.783 33.099 40.941 53.882 53.916c22.239 13.885 49.518 22.91 76.205 25.213z" />
    <glyph glyph-name="g" unicode="g" 
d="M267.471 537.661c4.55099 0.555969 18.855 0.789001 51.023 0.833008c41.266 0.0559692 45.412 -0.0310059 53.977 -1.12799c25.3 -3.23804 48.389 -12.616 68.192 -27.695c2.98599 -2.27499 13.675 -11.178 23.796 -19.821l18.373 -15.694l0.36499 12.169
c0.373016 12.409 0.756012 14.816 3.53799 22.229c2.98502 7.952 12.181 18.612 20.133 23.337c4.89999 2.91101 12.169 5.341 18.494 6.185c9.69897 1.29303 21.217 -1.08801 29.88 -6.17596c4.51801 -2.65302 14.346 -12.467 16.985 -16.961
c1.11603 -1.901 2.72601 -5.36102 3.53198 -7.58902c3.36902 -9.32001 3.15704 9.33701 3.15704 -279.097c0 -261.688 -0.0200195 -266.301 -1.18701 -275.422c-3.92297 -30.6631 -16.999 -58.2511 -38.001 -80.1811c-5.00604 -5.227 -32.377 -29.173 -47.98 -41.976
c-21.016 -17.244 -48.615 -28.493 -76.687 -31.258c-4.93301 -0.485001 -37.892 -0.630005 -114.458 -0.501007l-107.53 0.181l-4.51801 1.39301c-21.155 6.524 -34.94 24.751 -34.94 46.198c0 21.445 13.785 39.672 34.94 46.196l4.51801 1.393l108.735 0.302002
l108.735 0.300995l4.51801 1.388c8.91699 2.737 12.59 5.273 33.916 23.4117c25.12 21.3672 27.652 24.2559 31.862 36.3447l1.99301 5.7227l0.181 71.5967c0.145996 57.9521 0.0310059 71.5052 -0.602997 71.1142c-0.431 -0.264999 -8.91501 -7.4111 -18.855 -15.8818
c-23.314 -19.8652 -22.993 -19.6074 -30.723 -24.7129c-17.971 -11.8672 -39.819 -19.7676 -62.41 -22.5654c-10.684 -1.3233 -91.204 -1.3545 -102.47 -0.0401001c-26.204 3.0586 -51.854 13.3907 -71.566 28.8301c-9.578 7.502 -45.37 38.6831 -50.31 43.8281
c-17.075 17.788 -29.311 40 -35.144 63.795c-4.161 16.972 -3.932 11.024 -4.16 107.832c-0.146004 62.289 -0.00900269 89.567 0.472 94.277c3.326 32.531 16.746 62.12 38.497 84.879c5.144 5.383 40.705 36.382 50.645 44.149c19.514 15.247 45.18 25.651 71.085 28.814z
M362.591 442.137c-6.02402 0.977997 -82.808 0.727997 -88.193 -0.286987c-11.062 -2.086 -14.216 -4.12302 -38.554 -24.906c-22.409 -19.136 -24.548 -21.367 -28.66 -29.896c-4.81801 -9.992 -4.47301 -2.47 -4.47301 -97.591c0 -95.12 -0.341995 -87.598 4.442 -97.59
c4.08501 -8.53101 6.22099 -10.758 28.691 -29.92c22.65 -19.315 25.709 -21.423 35 -24.12l4.759 -1.38199h43.374c48.916 0 46.514 -0.202011 56.686 4.784c4.965 2.433 8.46402 5.233 37.078 29.674c17.35 14.819 37.437 31.936 44.549 37.96
c16.386 13.882 19.605 17.869 23.578 29.209l1.96399 5.60199v45.482v45.483l-1.40799 4.517c-2.01001 6.44699 -5.65302 13.162 -9.64102 17.772c-3.612 4.17499 -85.999 74.719 -91.662 78.485c-4.06799 2.70599 -12.35 5.88202 -17.53 6.724z" />
    <glyph glyph-name="h" unicode="h" 
d="M145.783 738.912c4.86 1.03601 15.724 0.692017 20.783 -0.657959c2.009 -0.536011 6.02501 -2.14105 9.037 -3.61005c9.819 -4.79095 16.893 -11.873 21.669 -21.692c5.254 -10.802 4.744 2.58997 5.112 -133.856l0.326996 -121.265l47.591 30.542
c34.036 21.844 50.18 31.851 56.686 35.135c14.676 7.40802 30.905 12.199 48.013 14.174c11.747 1.35498 81.527 0.924988 90.181 -0.55603c32.047 -5.48596 59.224 -19.526 80.722 -41.704c22.752 -23.471 36.156 -52.109 39.727 -84.88
c0.666992 -6.12601 12.713 -345.422 12.81 -360.844c0.0440063 -6.8671 -0.187988 -9.3291 -1.24896 -13.2529c-6.12402 -22.6504 -26.633 -37.7715 -49.179 -36.2558c-21.145 1.4209 -38.325 15.7548 -43.743 36.497c-1.103 4.2197 -1.68698 18.6143 -7.46198 184.097
c-4.901 140.421 -6.47501 180.633 -7.22803 184.639c-3.08099 16.391 -14.519 29.316 -31.025 35.057l-5.72299 1.991h-35.241c-39.096 0 -38.206 0.07901 -47.289 -4.21301c-2.32199 -1.09698 -36.446 -22.697 -75.904 -48.046l-71.687 -46.055l-0.328003 -152.349
c-0.368988 -171.626 0.171997 -154.14 -5.11099 -165c-4.776 -9.8193 -11.85 -16.8964 -21.669 -21.6797c-12.244 -5.96484 -24.398 -6.66504 -37.168 -2.14355c-6.92799 2.45312 -11.065 5.18848 -17.35 11.4736c-8.019 8.0186 -11.564 14.5782 -13.606 25.1807
c-1.27699 6.6269 -1.27699 653.856 0 660.482c2.04201 10.603 5.58701 17.162 13.606 25.181c7.839 7.83899 14.277 11.387 24.698 13.611z" />
    <glyph glyph-name="i" unicode="i" 
d="M193.855 537.949c1.55701 0.266052 37.53 0.43103 79.94 0.365051c86.747 -0.132019 79.103 0.283997 89.759 -4.87903c6.38501 -3.09302 11.719 -7.271 16.002 -12.532c3.34399 -4.10901 7.70099 -12.53 9.41199 -18.193c1.04001 -3.44 1.099 -13.314 1.24301 -205.241
l0.149994 -201.626l50.753 -0.210999l50.753 -0.210899l4.51898 -1.3809c13.192 -4.0332 24.281 -13.2343 30.059 -24.9443c3.77002 -7.6377 4.578 -11.3857 4.578 -21.2051c0 -9.8193 -0.807983 -13.5674 -4.57904 -21.2051
c-5.86798 -11.8896 -17.167 -21.1787 -30.421 -25.0097l-4.758 -1.37598h-148.795h-148.796l-4.759 1.38184c-21.169 6.14356 -35.301 24.6426 -35.301 46.209c0 21.4453 13.822 39.7022 34.94 46.1504l4.51801 1.3799l50.753 0.210899l50.753 0.210999v173.433v173.434
l-50.753 0.210999l-50.753 0.210999l-4.51801 1.38101c-25.061 7.66101 -39.64 32.438 -33.712 57.294c4.41501 18.515 19.917 32.876 39.013 36.142zM286.747 779.245c3.03799 0.632019 10.662 0.776001 34.036 0.643005
c33.856 -0.195007 32.842 -0.0770264 42.771 -4.90698c9.819 -4.77502 16.899 -11.849 21.688 -21.669c4.85498 -9.95502 4.81799 -9.638 4.81799 -41.264c0 -31.627 0.0369873 -31.31 -4.81799 -41.266c-4.789 -9.81897 -11.869 -16.892 -21.688 -21.668
c-9.86398 -4.79803 -9.15698 -4.71301 -41.567 -4.98004c-31.325 -0.258972 -34.437 -0.052002 -42.59 2.83002c-6.927 2.44904 -11.064 5.18298 -17.349 11.47c-6.14301 6.14099 -8.90201 10.24 -11.274 16.746c-2.912 7.987 -3.18401 11.145 -3.18401 36.868
c0 25.723 0.272003 28.881 3.18401 36.867c2.37199 6.50604 5.131 10.605 11.274 16.747c7.82498 7.82501 14.397 11.44 24.699 13.583z" />
    <glyph glyph-name="j" unicode="j" 
d="M288.855 538.119c0.994995 0.139954 47.048 0.213989 102.41 0.164978c113.313 -0.0999756 102.496 0.362976 113.253 -4.85797c12.279 -5.95905 21.252 -16.8 25.422 -30.716c1.03601 -3.453 1.09003 -16.205 1.23499 -286.747
c0.14801 -279.519 0.13501 -283.253 -1.04797 -292.53c-3.987 -31.2646 -17.249 -58.8636 -39.139 -81.4456c-21.115 -21.785 -46.892 -35.411 -78.037 -41.25l-8.43298 -1.582l-57.531 -0.227005c-61.204 -0.240997 -65.117 -0.112 -78.915 2.62901
c-16.325 3.241 -36.147 11.386 -50 20.547c-32.634 21.579 -55.474 54.943 -62.976 91.9917c-2.82999 13.9756 -1.81699 23.4385 3.71701 34.6982c2.451 4.9864 3.59599 6.502 8.897 11.7774c5.06099 5.0351 7.01799 6.5312 11.627 8.8887
c7.63199 3.9023 13.313 5.3183 21.566 5.375c10.542 0.0722008 18.914 -2.5225 27.651 -8.5684c11.192 -7.7471 16.534 -16.6289 20.8 -34.5811c3.94699 -16.6142 16.791 -30.0712 33.778 -35.3915l4.51801 -1.415h55.121h55.121l5.66199 1.984
c6.686 2.343 9.83102 4.0677 15.18 8.3235c6.54401 5.2071 11.815 13.1856 15.078 22.8242l1.42798 4.2168l0.152008 255.241l0.149994 255.241l-74.217 0.207001c-83.554 0.231995 -76.288 -0.18399 -86.928 4.98102c-12.307 5.97498 -21.228 16.68 -25.094 30.114
c-1.97699 6.867 -1.991 18.406 -0.0319977 25.24c2.711 9.45801 8.57101 18.445 15.969 24.493c5.996 4.901 16.025 9.30701 23.615 10.374zM427.711 779.245c3.03799 0.632019 10.662 0.776001 34.036 0.643005c33.856 -0.195007 32.843 -0.0780029 42.771 -4.90698
c9.81897 -4.77502 16.899 -11.849 21.688 -21.669c4.85498 -9.95502 4.81702 -9.638 4.81702 -41.264c0 -31.627 0.0379639 -31.31 -4.81702 -41.266c-4.789 -9.81897 -11.869 -16.892 -21.688 -21.668c-9.86401 -4.79803 -9.15701 -4.71301 -41.567 -4.98004
c-31.325 -0.258972 -34.437 -0.052002 -42.59 2.83002c-6.927 2.44904 -11.064 5.18298 -17.349 11.47c-6.142 6.14099 -8.90201 10.24 -11.274 16.747c-2.91101 7.98596 -3.18402 11.144 -3.18402 36.8669c0 25.723 0.27301 28.881 3.18402 36.867
c2.37198 6.50604 5.13199 10.606 11.274 16.747c7.82501 7.82501 14.397 11.44 24.699 13.583z" />
    <glyph glyph-name="k" unicode="k" 
d="M145.783 738.912c4.86 1.03601 15.724 0.69104 20.783 -0.662964c5.36301 -1.435 13.917 -5.815 18.194 -9.31799c7.218 -5.91101 13.33 -15.317 16.258 -25.015c1.03699 -3.435 1.10599 -13.254 1.392 -197.109l0.300995 -193.495l124.699 106.658
c68.614 58.686 126.054 107.682 127.711 108.938c4.104 3.10901 10.783 6.35297 16.386 7.95801c6.08401 1.74298 17.743 1.86597 23.675 0.25c5.54199 -1.51001 14.116 -5.83105 18.313 -9.229c21.204 -17.169 23.943 -48.85 5.95001 -68.852
c-1.54901 -1.72202 -46.552 -40.535 -99.986 -86.234c-53.435 -45.699 -97.155 -83.292 -97.139 -83.525c0.0169983 -0.230988 53.193 -45.841 118.132 -101.325c64.941 -55.482 119.974 -102.627 122.26 -104.732c10.406 -9.58701 15.723 -21.5323 15.723 -35.3282
c0 -4.8789 -0.338989 -7.8965 -1.28497 -11.4453c-8.98602 -33.7353 -47.83 -47.3115 -75.402 -26.3545c-3.25897 2.4766 -247.471 211.008 -251.747 214.966l-1.56601 1.44899l-22.862 -19.519l-22.862 -19.517l-0.324005 -73.977
c-0.365997 -83.1922 0.0540009 -76.0594 -5.11499 -86.6864c-4.776 -9.8193 -11.85 -16.8964 -21.669 -21.6797c-12.244 -5.96484 -24.398 -6.66504 -37.168 -2.14355c-6.92799 2.45312 -11.065 5.18848 -17.35 11.4736c-8.019 8.0186 -11.564 14.5782 -13.606 25.1807
c-1.27699 6.6269 -1.27699 653.856 0 660.482c2.04201 10.603 5.58701 17.162 13.606 25.181c7.839 7.83899 14.277 11.387 24.698 13.611z" />
    <glyph glyph-name="l" unicode="l" 
d="M193.855 739.154c1.55701 0.267029 37.53 0.43103 79.94 0.367004c86.747 -0.133972 79.103 0.28302 89.759 -4.88898c12.278 -5.96002 21.251 -16.801 25.423 -30.716c1.03601 -3.45599 1.08902 -16.868 1.23401 -305.844l0.149994 -302.229l50.753 -0.210999
l50.753 -0.210899l4.51898 -1.3809c13.192 -4.0332 24.281 -13.2343 30.059 -24.9443c3.77002 -7.6367 4.578 -11.3857 4.578 -21.2051c0 -9.8183 -0.807983 -13.5674 -4.57904 -21.2041c-5.86798 -11.8906 -17.167 -21.1797 -30.421 -25.0107l-4.758 -1.375h-148.795
h-148.796l-4.759 1.38086c-21.169 6.14356 -35.301 24.6436 -35.301 46.209c0 21.4463 13.822 39.7032 34.94 46.1514l4.51801 1.3789l50.753 0.210899l50.753 0.210999v274.036v274.037l-50.753 0.209961l-50.753 0.210999l-4.51801 1.38202
c-25.061 7.66003 -39.64 32.438 -33.712 57.293c4.41501 18.515 19.917 32.877 39.013 36.142z" />
    <glyph glyph-name="m" unicode="m" 
d="M138.253 537.673c10.844 2.01904 23.088 -0.164001 32.65 -5.82098c7.65199 -4.526 17.093 -15.331 19.781 -22.635c0.575989 -1.56702 1.22899 -3.08502 1.424 -3.314c0.197998 -0.230011 2.411 1.35199 4.88 3.491c18.123 15.691 39.217 25.209 62.531 28.214
c31.204 4.02405 63.092 -5.16498 88.072 -25.377c4.517 -3.65601 13.218 -12.341 16.657 -16.628l1.83701 -2.29001l10.481 8.91202c15.061 12.804 15.915 13.483 22.229 17.631c22.246 14.618 50.302 21.231 75.422 17.779c23.976 -3.29498 45.349 -13.694 63.072 -30.686
c19.777 -18.961 31.792 -43.274 34.987 -70.804c0.888 -7.651 14.07 -385.11 13.667 -391.386c-0.422974 -6.627 -1.755 -11.501 -4.90698 -17.9522c-4.79602 -9.8193 -11.879 -16.8964 -21.698 -21.6797c-6.45404 -3.14355 -11.266 -4.45996 -18.072 -4.94531
c-8.79602 -0.625977 -19.391 1.89844 -27.23 6.48926c-4.517 2.64648 -14.356 12.4853 -17.001 17.0029c-2.53101 4.3233 -5.09702 11.5069 -5.961 16.6875c-0.358002 2.1533 -3.66202 89.9997 -7.33902 195.181c-5.211 149.036 -6.87799 191.93 -7.54898 194.277
c-1.33002 4.63901 -4.71802 8.65399 -9.31799 11.04c-3.43402 1.78299 -4.33102 1.995 -7.29001 1.73099c-1.867 -0.165985 -4.55701 -0.824982 -6.02301 -1.47598c-1.612 -0.71402 -14.458 -11.282 -32.772 -26.958l-30.12 -25.783l-0.302002 -174.458
c-0.285004 -165.481 -0.356995 -174.643 -1.392 -178.072c-1.711 -5.6621 -6.06799 -14.083 -9.41299 -18.1924c-4.28299 -5.2617 -9.617 -9.44337 -16.001 -12.5459c-12.244 -5.94922 -24.398 -6.6416 -37.169 -2.11621c-6.38599 2.2627 -10.777 5.0166 -16.325 10.2392
c-7.25101 6.8243 -10.958 12.9766 -14.171 23.5186c-0.934021 3.0625 -1.03403 18.0127 -1.31201 196.988l-0.300995 193.675l-1.58801 3.37399c-2.04099 4.33701 -5.76099 8.05801 -10.098 10.099c-2.88699 1.358 -4.15701 1.58801 -8.79599 1.58801
c-5.06003 0 -5.67001 -0.140991 -9.15601 -2.10901c-2.30402 -1.29999 -16.386 -13.143 -36.747 -30.903l-33.012 -28.796l-0.302002 -170.602c-0.285004 -161.747 -0.35701 -170.79 -1.392 -174.217c-1.711 -5.6621 -6.06801 -14.083 -9.414 -18.1924
c-4.282 -5.2617 -9.616 -9.44337 -16.001 -12.5459c-12.244 -5.94922 -24.398 -6.64258 -37.168 -2.12109c-6.92799 2.45312 -11.065 5.18848 -17.35 11.4736c-8.019 8.0186 -11.564 14.5782 -13.6085 25.1807c-1.2773 6.6269 -1.2773 452.651 0 459.277
c2.0445 10.603 5.5895 17.162 13.6085 25.181c7.999 8 14.759 11.671 25 13.577z" />
    <glyph glyph-name="n" unicode="n" 
d="M146.085 537.673c10.844 2.01904 23.087 -0.170959 32.65 -5.83899c7.86 -4.65796 17.109 -15.389 20.069 -23.28c3.105 -8.28299 3.194 -9.03598 3.55901 -30.362l0.347992 -20.361l47.591 30.542c34.036 21.844 50.18 31.851 56.686 35.135
c14.676 7.40802 30.905 12.199 48.013 14.174c11.747 1.35498 81.527 0.924988 90.181 -0.55603c32.047 -5.48596 59.224 -19.526 80.722 -41.704c22.752 -23.471 36.156 -52.109 39.727 -84.88c0.666992 -6.12601 12.713 -345.422 12.81 -360.844
c0.0440063 -6.8671 -0.187988 -9.3291 -1.24896 -13.2529c-6.12402 -22.6504 -26.633 -37.7637 -49.179 -36.2383c-17.831 1.20703 -33.504 11.9473 -40.749 27.9248c-4.38501 9.6709 -3.57602 -5.2412 -10.468 192.651c-4.892 140.421 -6.46298 180.633 -7.216 184.639
c-3.08099 16.391 -14.519 29.316 -31.025 35.057l-5.72299 1.991h-35.241c-39.096 0 -38.206 0.07901 -47.289 -4.21301c-2.32199 -1.09698 -36.446 -22.697 -75.904 -48.046l-71.687 -46.055l-0.328003 -152.349c-0.368988 -171.626 0.171997 -154.14 -5.11099 -165
c-4.776 -9.8193 -11.85 -16.8964 -21.669 -21.6797c-12.244 -5.96484 -24.398 -6.66504 -37.168 -2.14355c-6.92799 2.45312 -11.065 5.18848 -17.35 11.4736c-8.019 8.0186 -11.564 14.5782 -13.608 25.1807c-1.278 6.6269 -1.278 452.651 0 459.277
c2.04401 10.603 5.589 17.162 13.608 25.181c7.999 8 14.759 11.671 25 13.577z" />
    <glyph glyph-name="o" unicode="o" 
d="M267.049 537.631c4.853 0.634033 21.205 0.777039 77.831 0.682007c65.663 -0.109985 72.214 -0.208984 77.952 -1.17902c8.79501 -1.487 20.92 -4.62396 28.072 -7.26599c13.012 -4.80597 30.354 -14.513 39.639 -22.187c14.759 -12.202 41.035 -34.893 45.844 -39.589
c23.551 -23.008 37.693 -52.249 41.644 -86.105c0.747986 -6.41599 0.88501 -23.915 0.88501 -113.132c0 -101.626 -0.0440063 -105.886 -1.19 -114.819c-4.13599 -32.229 -18.525 -61.3016 -41.4 -83.6464c-4.81097 -4.6992 -31.807 -28.0292 -45.722 -39.5126
c-14.688 -12.1202 -37.652 -22.9913 -58.133 -27.5206c-14.837 -3.28125 -16.867 -3.35743 -89.7 -3.35743c-72.71 0 -74.244 0.0566407 -89.698 3.31348c-19.338 4.0752 -41.165 14.2422 -56.687 26.4033c-9.578 7.5049 -45.365 38.6924 -50.303 43.8379
c-21.75 22.668 -34.814 50.7833 -38.571 83.0113c-0.748001 6.41699 -0.885002 23.916 -0.885002 113.133c0 101.386 0.0470047 105.906 1.186 114.76c3.972 30.843 17.083 58.448 38.255 80.542c5.02901 5.24701 42.245 37.671 50.62 44.1
c19.752 15.166 44.336 25.134 70.361 28.531zM414.157 441.315c-3.375 1.022 -8.01202 1.104 -69.88 1.242c-69.036 0.152008 -69.631 0.134003 -76.506 -2.36902c-4.517 -1.64398 -9.802 -4.603 -13.373 -7.487c-1.92099 -1.552 -11.627 -9.793 -21.566 -18.312
c-21.686 -18.589 -24.052 -21.375 -28.168 -33.185l-1.953 -5.60101v-105.724c0 -118.494 -0.382004 -108.297 4.442 -118.373c4.08501 -8.53099 6.22099 -10.761 28.691 -29.948c18.433 -15.741 21.766 -18.341 26.506 -20.683c10.377 -5.126 4.759 -4.791 80.421 -4.791
c74.338 0 69.535 -0.238297 78.675 3.9062c5.77798 2.6188 8.073 4.3858 29.458 22.6748c23.675 20.247 25.798 22.698 29.934 34.564l1.99399 5.722v105.723c0 99.277 -0.0639954 105.962 -1.064 109.638c-1.45801 5.36298 -5.263 13.184 -8.38 17.23
c-2.51199 3.26001 -39.351 35.256 -45.255 39.306c-3.50598 2.40402 -9.09601 4.992 -13.976 6.46701z" />
    <glyph glyph-name="p" unicode="p" 
d="M143.073 557.188c6.64 1.63 15.843 1.64203 22.59 0.0270386c16.488 -3.94702 30.002 -16.974 34.983 -33.721c1.209 -4.07202 1.37001 -6.17505 1.614 -21.295l0.270004 -16.777l19.368 19.217c10.663 10.58 21.669 20.993 24.488 23.17
c22.145 17.092 47.591 27.234 75.362 30.038c10.301 1.039 45.279 0.457031 53.554 -0.893005c20.361 -3.31897 40.354 -10.928 56.325 -21.433c8.26099 -5.43402 11.386 -7.93402 30.121 -24.095c55.903 -48.224 72.904 -63.11 77.45 -67.812
c20.41 -21.11 33.538 -47.831 38.327 -78.011c1.01398 -6.38998 1.08997 -13.133 1.08997 -96.928v-90.061l-1.36902 -7.83099c-5.22498 -29.88 -17.754 -55.228 -37.487 -75.8435c-4.76495 -4.9776 -77.951 -68.4952 -95.722 -83.0762
c-20.344 -16.6914 -46.687 -27.6709 -74.097 -30.8809c-10.361 -1.2138 -40.361 -1.2109 -50.722 0.00489998c-26.808 3.1455 -51.266 13.1406 -72.832 29.7647c-2.81 2.166 -13.885 12.6435 -24.548 23.2236l-19.428 19.2773l-0.179001 -107.53
c-0.199997 -121.025 0.281998 -109.347 -4.959 -120.12c-4.776 -9.81999 -11.85 -16.9 -21.669 -21.689c-8.12599 -3.963 -11.868 -4.812 -21.084 -4.78799c-9.217 0.0239868 -13.143 0.916 -21.084 4.78899c-9.82 4.78801 -16.901 11.868 -21.693 21.688
c-1.46999 3.011 -3.127 7.162 -3.729 9.336c-1.041 3.75801 -1.085 17.651 -1.085 343.675v339.76l1.379 4.75897c4.886 16.867 18.305 30.012 34.766 34.055zM366.507 461.172c-4.87598 1.41901 -34.519 1.871 -40.903 0.623993
c-6.86902 -1.341 -12.871 -3.92599 -18.675 -8.03998c-3.71597 -2.63501 -90.289 -88.817 -94.242 -93.817c-3.959 -5.00699 -5.746 -8.31198 -8.007 -14.818l-1.96899 -5.66299l-0.181 -67.47c-0.121002 -45.482 0.0299988 -68.825 0.462006 -71.627
c0.837997 -5.422 3.94499 -13.603 6.886 -18.132c2.687 -4.13901 87.532 -89.606 94.821 -95.5171c5.271 -4.2734 10.964 -7.2627 17.41 -9.1387c4.41199 -1.2851 5.784 -1.3681 22.47 -1.3681c16.807 0 18.032 0.0751953 22.59 1.3935
c10.027 2.8994 10.904 3.5625 58.013 43.9194c24.095 20.643 45.216 39.198 46.955 41.253c3.75 4.43201 7.34201 11.145 9.28201 17.349l1.41299 4.51901v84.337c0 79.879 -0.0580139 84.545 -1.09299 88.253c-1.36102 4.879 -5.06201 12.389 -8.04602 16.326
c-2.16498 2.85602 -86.584 76.403 -92.909 80.943c-3.52499 2.53003 -9.27701 5.21902 -14.277 6.67401z" />
    <glyph glyph-name="q" unicode="q" 
d="M267.471 537.661c4.55099 0.555969 18.855 0.789001 51.023 0.833008c41.266 0.0559692 45.412 -0.0310059 53.977 -1.12799c25.3 -3.23804 48.389 -12.616 68.192 -27.695c2.98599 -2.27499 13.675 -11.178 23.796 -19.821l18.373 -15.694l0.36499 12.169
c0.373016 12.409 0.756012 14.816 3.53799 22.229c2.98502 7.952 12.181 18.612 20.133 23.337c4.89999 2.91101 12.169 5.341 18.494 6.185c9.69897 1.29303 21.217 -1.08801 29.88 -6.17596c4.51801 -2.65302 14.361 -12.5031 17.01 -17.021
c2.70996 -4.62302 5.151 -11.626 6.026 -17.289c0.526978 -3.40399 0.653992 -85.24 0.518005 -331.928c-0.173035 -313.192 -0.228027 -327.566 -1.26404 -331.024c-4.172 -13.915 -13.144 -24.764 -25.423 -30.737c-8.12701 -3.953 -11.867 -4.8 -21.085 -4.77499
c-9.216 0.0239868 -13.141 0.916 -21.084 4.78899c-9.819 4.78801 -16.893 11.867 -21.669 21.687c-5.24799 10.789 -4.758 -1.62601 -4.95898 125.723c-0.0980225 62.2285 -0.314026 113.132 -0.480011 113.132c-0.165009 0 -8.64401 -7.1357 -18.825 -15.8427
c-10.181 -8.7081 -20.288 -17.2207 -22.44 -18.9004c-19.712 -15.3887 -44.759 -25.5235 -71.145 -28.7871c-10.684 -1.32129 -91.204 -1.3457 -102.47 -0.03125c-26.204 3.05859 -51.854 13.3906 -71.566 28.8291c-9.578 7.502 -45.365 38.6836 -50.303 43.8291
c-21.791 22.71 -34.813 50.7223 -38.592 83.0113c-1.353 11.567 -1.307 214.951 0.0500031 225.905c3.967 31.988 16.976 59.976 38.219 82.228c5.138 5.383 40.686 36.382 50.626 44.149c19.514 15.247 45.18 25.651 71.085 28.814zM362.591 442.137
c-6.02402 0.977997 -82.808 0.727997 -88.193 -0.286987c-11.062 -2.086 -14.216 -4.12302 -38.554 -24.906c-22.409 -19.136 -24.548 -21.367 -28.66 -29.896c-4.85501 -10.07 -4.47301 0 -4.47301 -117.772c0 -117.77 -0.378998 -107.7 4.442 -117.77
c4.08501 -8.53099 6.22099 -10.758 28.691 -29.92c22.65 -19.315 25.709 -21.423 35 -24.1202l4.759 -1.3818h43.374c48.494 0 46.4 -0.167 56.024 4.453c5.94299 2.853 4.819 1.952 40.481 32.425c16.206 13.846 35.177 29.988 42.169 35.881
c16.145 13.603 19.287 17.498 23.194 28.747l1.987 5.722v65.664v65.663l-1.40799 4.517c-2.01001 6.44699 -5.65302 13.162 -9.64102 17.772c-3.612 4.17499 -85.999 74.719 -91.662 78.485c-4.06799 2.70599 -12.35 5.88202 -17.53 6.724z" />
    <glyph glyph-name="r" unicode="r" 
d="M146.085 537.679c10.844 2.02197 23.039 -0.148987 32.711 -5.82202c4.45799 -2.61499 14.306 -12.46 16.924 -16.918c1.116 -1.901 2.726 -5.36102 3.533 -7.58902c2.974 -8.228 3.157 -10.724 3.157 -42.953c0 -16.505 0.149994 -30.06 0.330994 -30.06
c0.182999 0 24.91 21.042 54.971 46.777c30.059 25.736 56.616 48.077 59.036 49.667c4.49103 2.95197 8.49301 4.69202 14.879 6.46698c3.25699 0.905029 9.27698 1.005 60.844 1.005c62.289 0 61.914 0.0180054 77.108 -3.59698
c57.701 -13.726 100.537 -61.524 108.153 -120.68c1.513 -11.747 1.72498 -45.42 0.330994 -52.651c-4.43597 -23.029 -23.725 -39.036 -47.039 -39.036c-21.686 0 -39.873 13.812 -46.167 35.06c-1.186 4.00601 -1.336 6.32599 -1.694 26.085l-0.391998 21.686
l-1.922 5.603c-2.29599 6.686 -4.01999 9.84302 -8.319 15.241c-3.88599 4.87802 -9.216 8.99802 -15.601 12.058c-9.60797 4.60599 -7.65198 4.448 -54.941 4.448h-42.228l-78.645 -67.169l-78.644 -67.169l-0.209 -134.337
c-0.235992 -151.325 0.280014 -136.155 -4.98999 -146.988c-4.776 -9.8193 -11.85 -16.8964 -21.669 -21.6797c-12.244 -5.96484 -24.398 -6.66504 -37.168 -2.14355c-6.92799 2.45312 -11.065 5.18848 -17.35 11.4736c-8.019 8.0186 -11.564 14.5782 -13.608 25.1807
c-1.278 6.6269 -1.278 452.651 0 459.277c2.04401 10.603 5.589 17.162 13.608 25.181c7.999 8 14.759 11.672 25 13.583z" />
    <glyph glyph-name="s" unicode="s" 
d="M225.001 537.628c9.49699 1.242 221.687 1.28003 232.289 0.0410156c33.734 -3.94098 65.089 -19.35 88.548 -43.513c12.223 -12.59 18.968 -23 21.429 -33.072c1.61798 -6.62601 1.349 -16.721 -0.621033 -23.313c-0.86499 -2.892 -2.30402 -6.72501 -3.16699 -8.43399
c-9.26001 -18.325 -29.442 -29.213 -48.9 -26.38c-13.614 1.983 -23.5 7.89099 -33.156 19.814c-7.36301 9.09201 -16 15.018 -26.724 18.337l-4.397 1.362l-106.626 0.149994c-73.073 0.104004 -107.556 -0.0449829 -109.579 -0.472992
c-7.771 -1.64001 -15.999 -7.95099 -19.765 -15.16c-1.79601 -3.43701 -1.97701 -4.276 -1.922 -8.91501c0.0449982 -3.79599 0.404999 -6.00998 1.39499 -8.55399c1.873 -4.82001 5.88701 -10.035 9.75 -12.664c1.843 -1.25601 40.964 -18.771 90.301 -40.43
c194.94 -85.581 187.099 -82.043 198.434 -89.547c23.45 -15.525 43.147 -38.745 53.665 -63.263c12.871 -30.006 15.684 -61.506 8.20197 -91.868c-13.434 -54.5136 -56.205 -96.2968 -110.903 -108.344c-15.992 -3.52246 -13.856 -3.46679 -125 -3.24511
c-101.266 0.202148 -101.851 0.210937 -109.819 1.5166c-15.795 2.58789 -26.326 5.63476 -44.7 12.9326c-20 7.9444 -33.758 15.8711 -50.3 28.9825c-14.278 11.3144 -18.535 15.9609 -22.601 24.664c-5.925 12.6817 -5.669 28.3731 0.671997 41.2041
c8.77901 17.768 28.916 28.764 48.013 26.217c10.945 -1.459 17.53 -4.612 29.458 -14.109c13.616 -10.838 17.169 -12.948 31.264 -18.564c10.121 -4.0313 16.304 -5.7666 23.494 -6.5928c4.23599 -0.487305 33.736 -0.633804 101.747 -0.504906l95.784 0.180702
l4.51801 1.3984c13.976 4.3286 25.255 13.7736 31.565 26.4326c10.418 20.903 4.39801 46.468 -14.276 60.627c-2.41 1.827 -5.51498 3.87799 -6.98801 4.614c-2.65298 1.32599 -58.735 26.035 -193.614 85.302c-41.025 18.026 -76.666 33.825 -79.217 35.115
c-11.025 5.57199 -23.039 14.584 -32.374 24.282c-18.757 19.487 -30.258 43.554 -33.71 70.542c-3.984 31.145 5.805 63.429 26.889 88.675c20.63 24.704 49.134 40.395 80.942 44.556z" />
    <glyph glyph-name="t" unicode="t" 
d="M239.157 698.534c5 1.07098 16.47 0.768005 21.386 -0.565002c2.008 -0.544983 6.02301 -2.17499 9.03601 -3.66699c9.879 -4.896 16.925 -11.953 21.67 -21.711c5.12399 -10.536 4.76001 -5.18103 4.991 -73.374l0.206024 -60.662l97.711 -0.151001l97.711 -0.151001
l4.51898 -1.39197c13.192 -4.06305 24.281 -13.283 30.059 -24.993c3.77002 -7.638 4.578 -11.386 4.578 -21.205s-0.807983 -13.567 -4.578 -21.205c-5.77795 -11.71 -16.867 -20.93 -30.059 -24.993l-4.51898 -1.39301l-97.741 -0.149994l-97.741 -0.151001
l0.151001 -154.668l0.151001 -154.669l2.00201 -5.72301c3.164 -9.036 8.017 -16.158 14.564 -21.366c5.254 -4.181 8.49399 -5.954 15.12 -8.2766l5.66299 -1.9844h55.12c62.109 0 58.108 -0.280296 68.374 4.791c12.876 6.359 21.751 17.68 25.055 31.956
c3.065 13.253 6.065 19.841 12.426 27.289c9.55301 11.191 26.434 17.701 40.953 15.796c27.1689 -3.565 46.025 -27.832 42.093 -54.169c-5.18201 -34.6991 -24.287 -67.747 -52.154 -90.2138c-16.964 -13.6768 -40.662 -24.707 -61.747 -28.7392
c-14.721 -2.81543 -17.409 -2.90626 -78.916 -2.66211l-57.831 0.229492l-8.43301 1.58105c-31.145 5.83985 -56.921 19.4648 -78.037 41.25c-21.891 22.5869 -35.107 50.0605 -39.148 81.3856c-1.15401 8.951 -1.18901 13.675 -1.18901 163.675v154.458l-27.259 0.210999
c-26.084 0.201996 -27.448 0.268005 -31.656 1.54001c-21.357 6.45599 -35.061 24.515 -35.061 46.201c0 21.747 13.644 39.727 35.061 46.2c4.203 1.27203 5.60199 1.33905 31.625 1.54102l27.23 0.210999l0.205994 60.662
c0.231003 68.133 -0.132996 62.777 4.98001 73.314c6.511 13.415 18.548 22.757 33.428 25.943z" />
    <glyph glyph-name="u" unicode="u" 
d="M146.868 537.969c4.483 0.820007 14.94 0.182983 19.879 -1.20898c16.791 -4.73602 29.418 -17.724 33.92 -34.893c1.10699 -4.22101 1.68999 -18.614 7.46599 -184.096c4.903 -140.482 6.474 -180.632 7.22701 -184.639c3.082 -16.392 14.52 -29.317 31.026 -35.0578
l5.72299 -1.9902h34.94c38.735 0 38.735 0 47.409 4.092c2.254 1.062 36.627 22.805 76.386 48.317l72.289 46.386v149.76c0 162.048 -0.165009 153.517 3.15799 162.711c0.806 2.228 2.41602 5.68802 3.53201 7.58902c2.63901 4.49396 12.467 14.299 16.985 16.947
c5.00198 2.92999 12.229 5.34003 18.554 6.185c9.69897 1.29602 21.217 -1.08301 29.88 -6.17096c4.51801 -2.65302 14.361 -12.5031 17.01 -17.021c2.70996 -4.62302 5.151 -11.626 6.026 -17.289c0.524963 -3.39499 0.653992 -60.903 0.518005 -231.325
c-0.171997 -216.205 -0.231995 -226.977 -1.27301 -230.422c-1.711 -5.6621 -6.07404 -14.083 -9.42499 -18.1924c-6.047 -7.4131 -16.049 -13.8145 -25.205 -16.1319c-11.747 -2.97265 -25.612 -0.978511 -36.025 5.18262
c-7.95203 4.70413 -17.146 15.3467 -20.128 23.2978c-3.116 8.3096 -3.19299 8.9766 -3.55899 30.6026l-0.348999 20.5429l-48.192 -30.9424c-52.35 -33.6103 -59.403 -37.6474 -74.399 -42.5898c-10.298 -3.39257 -19.879 -5.51953 -30.301 -6.72558
c-11.747 -1.35938 -81.527 -0.94043 -90.18 0.541011c-32.049 5.48633 -59.226 19.5264 -80.727 41.7041c-22.855 23.5762 -36.284 52.3496 -39.753 85.1802c-0.744995 7.054 -12.653 345.965 -12.653 360.122c0 10 0.924004 14.931 4.119 21.988
c6.498 14.349 19.917 24.583 36.122 27.547z" />
    <glyph glyph-name="v" unicode="v" 
d="M146.085 537.679c10.844 2.02197 23.039 -0.148987 32.711 -5.82202c4.45799 -2.61499 14.306 -12.46 16.924 -16.918c1.116 -1.901 2.726 -5.36102 3.533 -7.58902c3.05199 -8.44299 3.157 -10.121 3.157 -50.061v-37.108l70.03 -160.091
c38.527 -88.072 70.166 -160.09 70.331 -160.09c0.166992 0 31.805 72.018 70.333 160.09l70.029 160.091v37.108c0 39.94 0.106995 41.618 3.185 50.061c2.371 6.50497 5.13101 10.604 11.273 16.746c6.32401 6.32397 10.422 9.021 17.53 11.538
c10.302 3.64703 21.485 3.65503 31.747 0.0210571c7.16901 -2.53802 11.254 -5.22205 17.591 -11.559c6.14203 -6.14203 8.90002 -10.241 11.272 -16.746c3.13 -8.58301 3.185 -9.57901 3.185 -57.049c0 -49.278 0.0209961 -48.987 -4.11603 -59.217
c-7.64996 -18.916 -160.183 -366.088 -162.22 -369.217c-2.99899 -4.6094 -11.134 -12.4385 -15.772 -15.1817c-4.341 -2.56641 -10.301 -4.74707 -15.964 -5.84082c-6.44598 -1.24414 -69.698 -1.24414 -76.145 0c-5.66202 1.09375 -11.622 3.27441 -15.964 5.84082
c-4.638 2.74316 -12.772 10.5722 -15.772 15.1817c-2.03601 3.1289 -154.569 350.301 -162.219 369.217c-4.138 10.23 -4.117 9.939 -4.117 59.217c0 47.47 0.0559998 48.466 3.185 57.049c2.372 6.50497 5.13 10.604 11.273 16.746c7.999 8 14.759 11.672 25 13.583z" />
    <glyph glyph-name="w" unicode="w" 
d="M135.844 537.691c16.806 3.08099 34.718 -3.52399 45.518 -16.788c3.55099 -4.35901 7.98801 -13.012 9.328 -18.192c0.51799 -2 1.20599 -7.651 1.539 -12.651c0.332001 -4.96899 2.636 -68.554 5.121 -141.265l4.517 -132.23l14.88 -51.023
c8.18701 -28.072 15.056 -50.835 15.272 -50.603c0.214005 0.232994 14.367 24.337 31.475 53.615l31.084 53.193v55.964c0 60.964 -0.0270081 60.41 3.491 69.457c4.12299 10.603 12.916 20.107 23.256 25.139c7.86499 3.82599 12.772 4.98199 21.145 4.98199
c8.37399 0 13.28 -1.15601 21.144 -4.98199c10.341 -5.03201 19.134 -14.536 23.257 -25.139c3.51901 -9.047 3.48999 -8.49301 3.48999 -69.457v-55.964l31.085 -53.193c17.109 -29.278 31.26 -53.382 31.476 -53.615c0.216003 -0.232002 7.08401 22.531 15.271 50.603
l14.879 51.023l4.51901 132.23c2.48401 72.711 4.784 136.296 5.10999 141.265c0.707001 10.783 1.58902 14.498 5.146 21.687c4.89801 9.89899 11.912 16.881 21.852 21.753c18.915 9.271 40.7531 5.23602 55.449 -10.247c7.11902 -7.5 11.359 -16.205 12.822 -26.325
c0.509033 -3.517 -0.372986 -34.036 -4.17395 -144.519c-2.651 -77.048 -5.07703 -142.946 -5.39203 -146.475c-0.52301 -5.862 -2.69 -13.675 -25.06 -90.362c-18.681 -64.0368 -25.064 -85.1179 -26.914 -88.8855c-5.742 -11.6943 -16.911 -20.9717 -30.044 -24.9551
c-4.36697 -1.3252 -5.48199 -1.37891 -33.434 -1.61133c-20.482 -0.170898 -30.233 -0.0302732 -33.433 0.481445c-10.664 1.7041 -20.162 6.81446 -27.772 14.9404c-4.04202 4.3144 -7.009 9.126 -31.777 51.5361c-15.023 25.7227 -27.401 46.7759 -27.5 46.7759
c-0.100006 0 -12.461 -21.0532 -27.5 -46.8364l-27.32 -46.8369l-5.72198 -5.7237c-6.285 -6.28512 -10.422 -9.0195 -17.35 -11.4687c-8.15201 -2.88184 -11.265 -3.08984 -42.59 -2.84961c-27.952 0.214844 -29.066 0.267578 -33.433 1.59278
c-13.133 3.98339 -24.302 13.2607 -30.045 24.9551c-1.851 3.7676 -8.23399 24.8487 -26.913 88.8855c-22.371 76.687 -24.538 84.5 -25.061 90.362c-0.314003 3.52899 -2.732 69.427 -5.373 146.475c-5.1689 150.783 -5.0829 144.263 -2.0165 153.494
c5.2775 15.885 20.1305 28.752 36.6975 31.788z" />
    <glyph glyph-name="x" unicode="x" 
d="M156.688 537.898c4.403 0.789978 15.059 0.299988 19.517 -0.895996c8.19299 -2.20001 17.303 -7.55402 22.577 -13.268c1.498 -1.62299 34.422 -41.264 73.147 -88.072c67.281 -81.325 70.468 -85.072 71.475 -84.036c0.580017 0.596985 32.419 39.036 70.753 85.422
c38.334 46.386 70.833 85.53 72.221 86.988c3.487 3.66498 9.104 7.57898 14.346 9.995c30.019 13.839 64.317 -6.32001 67.635 -39.754c0.802979 -8.086 -1.41901 -18.012 -5.95898 -26.627c-1.54102 -2.92398 -24.39 -30.963 -79.869 -98.011
c-42.719 -51.627 -77.711 -94.079 -77.711 -94.278s36.366 -44.277 80.813 -97.952c44.448 -53.675 82.033 -99.2166 83.523 -101.205c14.54 -19.3975 11.937 -46.5234 -6.08301 -63.3682c-19.327 -18.0683 -49.705 -16.6924 -67.694 3.0674
c-1.92999 2.1192 -37.134 44.5176 -78.18 94.1567l-74.668 90.301l-3.073 -3.644c-1.68802 -2.004 -36.171 -43.645 -76.596 -92.5c-40.425 -48.8557 -75.07 -90.2697 -76.958 -91.9963c-23.401 -21.4014 -61.929 -13.2451 -75.164 15.9111
c-7.082 15.6026 -5.09299 34.584 5.039 48.0723c1.493 1.9883 39.081 47.5299 83.529 101.205c44.447 53.675 80.813 97.753 80.813 97.952s-34.992 42.651 -77.711 94.278c-55.479 67.048 -78.328 95.087 -79.87 98.011c-4.54 8.61502 -6.761 18.541 -5.956 26.627
c0.509003 5.12 2.763 13.136 4.878 17.349c6.87301 13.691 20.104 23.56 35.226 26.272z" />
    <glyph glyph-name="y" unicode="y" 
d="M146.085 537.679c10.844 2.02197 23.039 -0.148987 32.711 -5.82202c4.45799 -2.61499 14.306 -12.46 16.924 -16.918c1.116 -1.901 2.726 -5.36102 3.533 -7.58902c3.05199 -8.44299 3.157 -10.121 3.157 -50.061v-37.108l62.199 -142.019l62.199 -142.017
l15.904 0.149994l15.903 0.150009l62.259 141.838l62.259 141.837v37.169c0 39.94 0.106995 41.618 3.185 50.061c2.371 6.50497 5.13101 10.604 11.273 16.746c6.32401 6.32397 10.422 9.021 17.53 11.538c10.302 3.64703 21.485 3.65503 31.747 0.0210571
c7.16901 -2.53802 11.254 -5.22205 17.591 -11.559c6.14203 -6.14203 8.90002 -10.241 11.272 -16.746c3.13 -8.58301 3.185 -9.57901 3.185 -57.049c0 -49.278 0.0209961 -48.987 -4.125 -59.217c-5.61304 -13.855 -248.424 -566.23 -250.214 -569.217
c-5.065 -8.457 -14.938 -16.584 -24.215 -19.934c-8.89801 -3.214 -8.49399 -3.2 -84.096 -3.01199l-70.181 0.174988l-4.397 1.356c-21.466 6.62001 -35.061 24.547 -35.061 46.235c0 21.747 13.571 39.625 35.061 46.186c4.379 1.338 4.608 1.345 57.68 1.675
l53.283 0.331001l31.807 72.4999c17.496 39.8799 31.808 72.6084 31.808 72.7412c0 0.131901 -5.54199 0.241203 -12.289 0.241203c-16.506 0 -23.913 1.5176 -32.772 6.7178c-4.39697 2.5811 -14.311 12.4775 -16.808 16.7754
c-1.862 3.21 -141.601 321.687 -144.583 329.518c-3.12 8.19702 -3.187 9.39801 -3.187 56.928c0 47.47 0.0559998 48.466 3.185 57.049c2.372 6.50497 5.13 10.604 11.273 16.746c7.999 8 14.759 11.672 25 13.583z" />
    <glyph glyph-name="enc-122" unicode="z" 
d="M169.76 537.949c1.55701 0.267029 85.361 0.444031 186.264 0.394043c174.519 -0.0859985 183.611 -0.144043 187.049 -1.18201c5.66199 -1.711 14.083 -6.06702 18.193 -9.41302c5.26099 -4.28198 9.44299 -9.61499 12.546 -16.001
c4.703 -9.68002 4.68201 -9.51801 4.94598 -38.253c0.255005 -27.771 0.00799561 -31.193 -2.83698 -39.277c-2.01501 -5.72302 -4.81799 -10.487 -8.724 -14.82c-1.672 -1.85501 -77.829 -75.343 -169.274 -163.343l-166.235 -159.97l153.583 -0.301796
c143.314 -0.280205 153.815 -0.370102 157.019 -1.3349c9.03601 -2.7207 15.22 -6.1807 21.145 -11.8301c9.867 -9.4102 15 -21.292 15 -34.7266c0 -23.1318 -16.261 -42.6386 -39.217 -47.0449c-6.62701 -1.27148 -386.348 -1.26562 -392.952 0.006836
c-10.603 2.04199 -17.162 5.58594 -25.181 13.6045c-8.019 8.0186 -11.564 14.5782 -13.61 25.1807c-1.22 6.3252 -1.23 50.543 -0.012001 56.8682c1.73901 9.0361 5.349 16.5381 10.929 22.7111c1.647 1.822 77.783 75.283 169.229 163.283l166.235 159.97
l-142.44 0.300995l-142.439 0.300995l-4.51901 1.39999c-25.12 7.78201 -39.622 32.455 -33.699 57.335c4.394 18.457 19.965 32.886 39.001 36.142z" />
    <glyph glyph-name="braceleft" unicode="{" 
d="M378.916 739.082c2.15402 0.27301 38.103 0.537048 79.91 0.587036c63.133 0.0750122 76.738 -0.0529785 80.392 -0.754028c22.956 -4.40698 39.217 -23.915 39.217 -47.048s-16.261 -42.639 -39.217 -47.047c-3.63104 -0.697021 -16.989 -0.843994 -76.627 -0.843994
h-72.229v-92.953c0 -100.842 0.0209961 -100.149 -3.36301 -115.42c-4.68399 -21.145 -14.809 -42.321 -28.256 -59.097c-2.26901 -2.83102 -4.319 -5.40302 -4.586 -5.75302c-0.289001 -0.380005 1.103 -2.561 3.47897 -5.452
c9.39502 -11.431 18.86 -28.012 24.037 -42.109c2.75299 -7.49597 5.272 -17.108 7.026 -26.807l1.362 -7.53l0.179993 -96.536l0.181 -96.5368h72.199c59.639 0 72.964 -0.146507 76.597 -0.843704c22.956 -4.4073 39.217 -23.9151 39.217 -47.0479
c0 -23.1318 -16.261 -42.6396 -39.217 -47.0468c-3.63904 -0.698242 -17.41 -0.844727 -79.82 -0.844727c-80.421 0 -80.904 0.015625 -92.53 2.98536c-33.555 8.57132 -60.335 35.0342 -69.037 68.2197c-3.035 11.5752 -2.87299 5.9639 -3.25 112.23
c-0.395996 111.325 0.0400085 101.326 -4.866 111.566c-5.93698 12.393 -17.124 21.728 -30.98 25.852c-3.30598 0.984009 -8.25299 1.10602 -58.132 1.43701c-54.157 0.358002 -54.547 0.369995 -58.915 1.69699c-21.453 6.51801 -35.061 24.448 -35.061 46.194
c0 21.748 13.608 39.677 35.061 46.195c4.368 1.327 4.758 1.33801 58.915 1.71701c60.843 0.427002 56.784 0.130981 66.626 4.84598c12.448 5.961 21.729 17.062 25.904 30.977c1.01901 3.39798 1.10602 9.57898 1.44601 103.013l0.360992 99.397l1.36099 6.02496
c5.30402 23.494 16.761 42.212 34.723 56.738c12.585 10.177 30.964 17.85 47.892 19.994z" />
    <glyph glyph-name="bar" unicode="|" 
d="M294.578 183.192v139.097h47.892h47.891l-0.148987 -141.386c-0.167999 -159.277 0.350983 -143.185 -4.97 -154.096c-4.789 -9.8193 -11.869 -16.8964 -21.688 -21.6797c-12.244 -5.96484 -24.398 -6.66504 -37.169 -2.14355
c-6.927 2.45312 -11.064 5.18848 -17.349 11.4736c-6.142 6.1426 -8.901 10.2412 -11.273 16.7471c-3.34299 9.1689 -3.185 1.627 -3.185 151.988zM333.734 738.912c4.85999 1.03601 15.724 0.692017 20.784 -0.657959c2.00699 -0.536011 6.02399 -2.14105 9.03598 -3.61005
c9.819 -4.79095 16.899 -11.873 21.688 -21.692c5.32199 -10.914 4.802 5.18097 4.97 -153.796l0.148987 -141.084h-47.891h-47.892v138.795c0 150.061 -0.15799 142.518 3.185 151.688c2.37201 6.50598 5.13101 10.604 11.273 16.746
c7.83798 7.83899 14.276 11.387 24.698 13.611z" />
    <glyph glyph-name="braceright" unicode="}" 
d="M146.868 739.158c1.55701 0.264954 36.867 0.506958 78.434 0.537964c80.722 0.0629883 81.067 0.052002 92.711 -2.91998c33.614 -8.578 60.388 -35.013 69.096 -68.222c3.03699 -11.576 2.875 -5.96399 3.22598 -111.928l0.328003 -99.096l1.35501 -4.39801
c4.138 -13.434 13.393 -24.343 25.633 -30.217c9.90701 -4.755 5.84399 -4.45901 66.687 -4.84601c59.277 -0.377014 56.019 -0.184998 64.94 -3.81c17.33 -7.043 29.157 -24.922 29.157 -44.079c0 -19.157 -11.827 -37.034 -29.157 -44.077
c-8.92102 -3.625 -5.66302 -3.435 -64.94 -3.81201c-60.783 -0.385986 -56.794 -0.0979919 -66.626 -4.80899c-9.819 -4.70398 -17.833 -12.723 -22.525 -22.543c-4.86002 -10.166 -4.431 -0.240997 -4.83002 -111.807l-0.355988 -99.6984l-1.358 -6.0244
c-3.70901 -16.4463 -10.387 -30.5362 -19.987 -42.169c-14.334 -17.3691 -32.872 -28.4756 -56.005 -33.5517l-6.32501 -1.3877h-79.819h-79.819l-4.7 1.36328c-21.501 6.24024 -35.361 24.3593 -35.361 46.2265c0 21.6875 13.595 39.6143 35.061 46.2344l4.397 1.3564
l74.247 0.180702l74.247 0.180695v93.3132c0 89.278 0.0509949 93.712 1.18399 102.531c1.34601 10.481 4.241 22.616 7.51599 31.505c5.215 14.157 14.653 30.696 24.028 42.109c2.37601 2.89099 3.76599 5.07199 3.47699 5.452
c-0.265991 0.350006 -2.32001 2.922 -4.595 5.75302c-13.494 16.803 -23.546 37.831 -28.251 59.097c-3.379 15.271 -3.35898 14.578 -3.35898 115.42v92.893l-74.247 0.180969l-74.247 0.179993l-4.397 1.36304c-14.097 4.36597 -25.254 13.913 -30.937 26.468
c-5.59 12.35 -5.587 27.169 0.00800323 39.519c6.502 14.352 20.265 24.847 36.109 27.531z" />
    <glyph glyph-name="asciitilde" unicode="~" 
d="M234.338 738.867c24.699 2.992 51.048 -1.69299 74.578 -13.262c23.494 -11.55 43.118 -28.92 57.512 -50.907c11.445 -17.481 18.205 -34.517 21.991 -55.421c1.55899 -8.60498 1.58701 -9.27698 1.91299 -45.181l0.330994 -36.446l2.035 -5.90302
c4.54901 -13.193 13.687 -23.674 25.676 -29.449c6.617 -3.18802 12.41 -4.33301 19.578 -3.871c7.10901 0.458008 11.538 1.60101 17.832 4.603c9.82001 4.685 17.838 12.693 22.543 22.512c4.742 9.89703 4.42099 5 4.806 73.253
c0.388 68.614 0.0209961 63.339 5.12 73.795c4.758 9.758 11.808 16.808 21.687 21.686c7.81299 3.85901 11.808 4.76599 21.084 4.78998c9.27802 0.0250244 13.182 -0.859009 21.085 -4.771c9.87897 -4.89099 16.931 -11.947 21.689 -21.705
c5.16003 -10.582 4.81702 -5.12006 4.81702 -76.807c0 -63.433 -0.00299072 -63.569 -1.37201 -71.386c-2.711 -15.482 -6.37799 -27.109 -12.726 -40.361c-18.267 -38.128 -53.251 -66.725 -94.335 -77.112c-10.897 -2.755 -18.795 -3.88101 -30.181 -4.30301
c-64.621 -2.39499 -125.015 44.427 -141.144 109.427c-3.651 14.717 -3.81198 16.867 -4.21201 56.325l-0.367981 36.145l-1.978 5.72302c-4.62302 13.373 -13.15 23.304 -25.13 29.2679c-6.99701 3.48303 -12.711 4.70502 -19.879 4.25
c-17.289 -1.09796 -32.509 -11.389 -40.036 -27.072c-4.786 -9.97101 -4.45799 -5 -4.84399 -73.314c-0.388 -68.614 -0.0209961 -63.338 -5.12001 -73.795c-4.78799 -9.819 -11.868 -16.899 -21.687 -21.687c-8.12599 -3.96399 -11.868 -4.814 -21.084 -4.789
c-9.217 0.0250244 -13.143 0.917023 -21.084 4.789c-9.82 4.78799 -16.894 11.868 -21.67 21.687c-5.129 10.545 -4.761 5.12 -4.993 73.434c-0.195 57.831 -0.147003 61.239 0.997993 70.18c4.048 31.627 17.54 59.793 39.529 82.531
c23.264 24.054 53.605 39.094 87.039 43.144z" />
    <glyph glyph-name="uni007F" 
d="M82.5303 369.879v393.976h259.94h259.94v-393.976v-393.977h-259.94h-259.94v393.977z" />
    <glyph glyph-name="periodcentered" unicode="&#xb7;" 
d="M263.253 235.836c3.15002 0.636002 18.976 0.768005 81.023 0.671997c86.747 -0.132996 79.105 0.284012 89.76 -4.899c9.819 -4.776 16.9 -11.85 21.688 -21.67c5.20901 -10.68 4.81799 -3.252 4.81799 -91.566c0 -88.3125 0.391022 -80.8847 -4.81799 -91.5664
c-4.78799 -9.8183 -11.869 -16.8925 -21.688 -21.6689c-10.645 -5.17872 -3.19302 -4.75879 -88.555 -4.98438c-81.325 -0.214843 -80.858 -0.229492 -89.578 2.84473c-6.927 2.44238 -11.064 5.17383 -17.349 11.46c-8.019 8.0186 -11.564 14.5781 -13.609 25.1807
c-1.26601 6.5664 -1.26601 150.903 0 157.469c2.045 10.603 5.59 17.163 13.609 25.181c7.85699 7.85699 14.458 11.478 24.699 13.547z" />
    <glyph glyph-name="cedilla" unicode="&#xb8;" 
d="M239.759 336.438c3.17 0.640015 23.072 0.768005 104.517 0.671021c113.254 -0.132996 102.502 0.332001 113.254 -4.89801c9.82001 -4.776 16.899 -11.85 21.688 -21.67c5.29501 -10.857 4.81802 3.19302 4.81802 -141.867
c0 -145.06 0.47699 -131.009 -4.81802 -141.867c-4.789 -9.8193 -11.868 -16.8925 -21.688 -21.6689c-9.86401 -4.79688 -9.15701 -4.71192 -41.566 -4.9795c-31.325 -0.258789 -34.439 -0.051758 -42.591 2.83008c-6.92798 2.44922 -11.063 5.1836 -17.35 11.4687
c-6.14102 6.1426 -8.90002 10.2412 -11.272 16.7471c-3.26199 8.9453 -3.185 6.7471 -3.185 91.4459v78.554h-48.434c-52.109 0 -52.67 0.029007 -61.325 3.18501c-6.50601 2.37199 -10.605 5.13199 -16.747 11.273c-6.142 6.14299 -8.90199 10.241 -11.274 16.747
c-2.911 7.987 -3.18399 11.145 -3.18399 36.867c0 25.724 0.272995 28.881 3.18399 36.869c2.37201 6.505 5.132 10.604 11.274 16.747c7.85701 7.85599 14.458 11.476 24.699 13.546z" />
    <glyph glyph-name="questiondown" unicode="&#xbf;" 
d="M429.398 739.119c10.964 1.85596 24.544 -1.12201 33.675 -7.38403c3.52701 -2.41901 93.795 -79.155 100.723 -85.623c6.07196 -5.66998 11.001 -13.883 13.466 -22.437l1.35297 -4.69897v-47.892v-47.892l-1.37097 -4.758
c-1.71802 -5.96405 -5.31299 -12.936 -9.07202 -17.591c-1.862 -2.30698 -50.009 -43.853 -137.177 -118.373l-134.307 -114.82l-0.328003 -114.096c-0.367981 -128.434 0.13501 -115.962 -5.112 -126.747c-4.776 -9.8193 -11.85 -16.8964 -21.669 -21.6797
c-12.244 -5.96484 -24.397 -6.66504 -37.169 -2.14355c-6.92801 2.45312 -11.063 5.18848 -17.349 11.4736c-8.019 8.0186 -11.564 14.5782 -13.609 25.1807c-1.27699 6.6269 -1.259 251.389 0.0200043 258.012c2.024 10.482 5.521 17.066 13.31 25.061
c2.97 3.048 64.495 56.018 136.725 117.711l131.325 112.168l0.149994 18.433l0.151001 18.435l-10.693 9.09601c-5.888 5.00897 -16.294 13.874 -23.163 19.729l-12.469 10.633l-126.687 -108.254c-69.699 -59.557 -128.259 -109.267 -130.181 -110.509
c-13.989 -9.03201 -31.385 -10.019 -46.505 -2.63702c-16.748 8.17502 -26.808 24.231 -26.808 42.785c0 13.675 4.887 25.078 14.88 34.724c3.327 3.21201 277.891 237.929 285.422 243.999c6.19202 4.992 14.578 8.75903 22.469 10.095z" />
    <glyph glyph-name="acute" unicode="&#xb4;" 
d="M288.855 739.318c0.994995 0.143005 25.904 0.221008 55.421 0.171997c60.242 -0.0979614 55.786 0.229004 66.266 -4.86798c9.758 -4.74603 16.813 -11.791 21.704 -21.67c3.91299 -7.90302 4.79498 -11.807 4.767 -21.085
c-0.0249939 -7.80103 -0.118988 -8.31299 -23.971 -130.12c-13.176 -67.289 -24.617 -124.349 -25.438 -126.868c-2.082 -6.38501 -5.211 -11.466 -10.501 -17.048c-8.09698 -8.54401 -17.766 -13.494 -29.211 -14.957
c-6.94199 -0.886993 -13.736 -0.098999 -21.085 2.44501c-7.41 2.56601 -11.346 5.12299 -17.771 11.548c-6.36502 6.36499 -9.42401 11.084 -11.713 18.072c-0.813995 2.487 -12.25 59.519 -25.426 126.808c-23.828 121.687 -23.946 122.327 -23.976 130.12
c-0.0250092 6.44598 0.21199 8.67401 1.338 12.591c2.71899 9.45801 8.561 18.425 15.922 24.438c6.01501 4.91498 16.023 9.32098 23.674 10.422z" />
    <glyph glyph-name="uni00AD" unicode="&#xad;" 
d="M146.868 417.472c1.55701 0.263 89.518 0.507019 195.422 0.539001c208.916 0.0650024 196.337 0.261017 205.542 -3.21597c11.145 -4.211 21.095 -13.499 26.2401 -24.494c13.387 -28.603 -4.79401 -62.514 -36.12 -67.371
c-3.37805 -0.524994 -53.373 -0.656006 -198.192 -0.520996l-193.675 0.181l-4.397 1.362c-14.097 4.367 -25.254 13.913 -30.937 26.469c-5.59 12.35 -5.587 27.169 0.00800323 39.518c6.502 14.353 20.265 24.847 36.109 27.533z" />
    <glyph glyph-name="uni2440" unicode="&#x2440;" 
d="M295.091 417.771l-0.210999 321.988h142.018h142.018v-146.626c0 -158.555 0.164978 -150.334 -3.19 -159.519c-2.17804 -5.96402 -4.979 -10.342 -10.098 -15.783c-8.05096 -8.55899 -17.676 -13.493 -29.182 -14.96c-6.94 -0.88501 -13.734 -0.0960083 -21.084 2.448
c-7.41 2.56601 -11.346 5.12299 -17.771 11.548c-6.142 6.142 -8.90201 10.241 -11.273 16.747c-3.298 9.047 -3.185 5.06097 -3.185 111.627v98.735h-46.084h-46.084v-288.103c0 -158.434 -0.177002 -303.353 -0.391998 -321.988l-0.390991 -33.8858h-141.778h-141.777
v146.627c0 158.555 -0.164001 150.333 3.185 159.519c2.372 6.505 5.13 10.604 11.273 16.747c6.425 6.42401 10.361 8.98199 17.77 11.547c7.35001 2.54401 14.144 3.332 21.085 2.448c11.506 -1.46698 21.131 -6.401 29.182 -14.959
c5.11801 -5.44202 7.91901 -9.82001 10.098 -15.783c3.304 -9.047 3.19 -5.06097 3.19 -111.627v-98.7358h46.446h46.446z" />
    <glyph glyph-name="uni2442" unicode="&#x2442;" 
d="M145.783 738.912c4.86 1.03601 15.724 0.692017 20.783 -0.657959c2.009 -0.536011 6.02501 -2.14105 9.037 -3.61005c9.819 -4.79095 16.899 -11.873 21.688 -21.692c5.32201 -10.914 4.802 5.18097 4.97 -153.796l0.149002 -141.084h140.361h140.362v138.795
c0 150.061 -0.15799 142.518 3.185 151.688c2.371 6.50598 5.13101 10.604 11.273 16.746c6.28601 6.28595 10.422 9.021 17.349 11.474c12.772 4.52197 24.925 3.82898 37.169 -2.12103c6.38599 -3.10199 11.72 -7.28497 16.002 -12.546
c3.34497 -4.10895 7.70099 -12.53 9.41199 -18.192c1.039 -3.43799 1.09998 -12.862 1.24298 -192.621l0.150024 -189.006h-94.276h-94.278l-0.148987 -141.386c-0.167999 -159.277 0.350983 -143.185 -4.97 -154.096c-4.789 -9.8193 -11.869 -16.8964 -21.688 -21.6797
c-12.244 -5.96484 -24.398 -6.66504 -37.169 -2.14355c-6.92798 2.45312 -11.064 5.18848 -17.349 11.4736c-6.142 6.1426 -8.901 10.2412 -11.273 16.7471c-3.34302 9.1689 -3.185 1.627 -3.185 151.988v139.097h-93.976h-93.976v186.687
c0 202.048 -0.186996 190.331 3.185 199.579c2.372 6.50598 5.13 10.604 11.273 16.746c7.839 7.83899 14.277 11.387 24.698 13.611z" />
    <glyph glyph-name="uni2441" unicode="&#x2441;" 
d="M522.29 738.912c4.85803 1.03601 15.723 0.69104 20.783 -0.662964c5.362 -1.435 13.916 -5.80603 18.193 -9.29602c7.36902 -6.01501 13.585 -15.7 16.261 -25.339c1.04401 -3.75702 1.08801 -17.289 1.08801 -333.735
c0 -316.445 -0.0440063 -329.978 -1.08398 -333.734c-0.60199 -2.1757 -2.26001 -6.3261 -3.72998 -9.3379c-4.79102 -9.8193 -11.872 -16.8964 -21.692 -21.6797c-12.244 -5.96484 -24.397 -6.66504 -37.169 -2.14355c-6.927 2.45312 -11.063 5.18848 -17.349 11.4736
c-6.142 6.1426 -8.90201 10.2412 -11.273 16.7471c-3.34198 9.1689 -3.185 1.627 -3.185 151.988v139.097h-140.362h-140.361l-0.149002 -141.386c-0.167999 -159.277 0.350998 -143.185 -4.97 -154.096c-4.789 -9.8193 -11.869 -16.8964 -21.688 -21.6797
c-12.244 -5.96484 -24.398 -6.66504 -37.168 -2.14355c-6.92799 2.45312 -11.065 5.18848 -17.35 11.4736c-6.143 6.1426 -8.901 10.2412 -11.273 16.7471c-3.37299 9.25 -3.185 -2.5303 -3.185 199.88v186.988h188.253h188.253v138.795
c0 150.061 -0.15799 142.518 3.185 151.688c2.371 6.50598 5.13101 10.604 11.273 16.746c7.83899 7.83899 14.277 11.387 24.699 13.611z" />
    <glyph glyph-name="brokenbar" unicode="&#xa6;" 
d="M294.578 476.201v571.689h47.892h47.891v-571.689v-571.686h-47.891h-47.892v571.686z" />
    <glyph glyph-name="Aring" unicode="&#xc5;" 
d="M237.952 739.136c2.155 0.276001 50.241 0.447998 106.928 0.382019l103.013 -0.121033l6.02298 -1.37c16.507 -3.75397 30.494 -10.391 42.169 -20.0099c17.37 -14.3101 28.476 -32.836 33.552 -55.9691c1.38098 -6.29095 1.38696 -6.56696 1.38696 -50.603
s-0.00598145 -44.311 -1.38696 -50.602c-5.07605 -23.132 -16.182 -41.674 -33.552 -56.014c-10.738 -8.86502 -24.639 -15.769 -38.253 -18.999c-2.47 -0.584991 -4.60001 -1.13998 -4.69901 -1.22198c-0.098999 -0.0830078 27.518 -94.879 61.355 -210.602
c33.838 -115.724 62.084 -212.486 62.7531 -214.97c1.70599 -6.3349 1.68195 -16.0849 -0.0560303 -22.5908c-6.03302 -22.5908 -26.617 -37.7627 -49.172 -36.2441c-18.795 1.26465 -35.257 13.2715 -41.762 30.4609c-0.951996 2.5166 -9.98001 32.8613 -20.046 67.3799
l-18.312 62.801h-105.422h-105.422l-18.675 -64.0061c-10.265 -35.1807 -19.262 -65.4443 -19.978 -67.1992c-3.341 -8.1924 -10.474 -16.7559 -18.155 -21.7969c-27.322 -17.9346 -64.261 -3.2627 -72.473 28.7852c-1.576 6.1445 -1.576 16.3584 0 22.4697
c0.631004 2.4512 28.847 99.1863 62.684 214.91c33.838 115.723 61.455 210.519 61.356 210.602c-0.098999 0.0820007 -2.229 0.639008 -4.69901 1.22699c-12.891 3.07101 -27.222 10.019 -37.048 17.962c-18.11 14.64 -29.596 33.492 -34.758 57.046
c-1.379 6.29095 -1.38699 6.56598 -1.38699 50.602s0.00799561 44.312 1.38699 50.603c5.162 23.5551 16.648 42.416 34.758 57.074c12.564 10.169 30.904 17.833 47.891 20.014zM435.543 611.445v32.531h-93.072h-93.073v-32.531v-32.529h93.073h93.072v32.529z
M353.977 481.777c-0.416992 1.34 -0.541992 1.35498 -11.506 1.35498c-10.964 0 -11.09 -0.0149841 -11.506 -1.35498c-0.233002 -0.746002 -15.133 -51.657 -33.103 -113.102l-32.68 -111.747l38.855 -0.152008c21.385 -0.0830078 56.136 -0.0830078 77.289 0
l38.434 0.152008l-32.681 111.747c-17.97 61.445 -32.871 112.356 -33.102 113.102z" />
    <glyph glyph-name="Adieresis" unicode="&#xc4;" 
d="M334.579 578.018c5.79099 1.052 9.51797 1.04602 15.723 -0.0239868c10.722 -1.85004 19.13 -6.42401 26.882 -14.621c2.45001 -2.58997 5.323 -6.185 6.40302 -8.01196c2.314 -3.91302 191.851 -489.699 193.648 -496.325
c1.716 -6.3261 1.68799 -16.0244 -0.065979 -22.5908c-7.03101 -26.3252 -33.383 -41.8086 -58.976 -34.6514c-12.711 3.55468 -24.33 12.9931 -30.053 24.4101c-0.965027 1.9238 -21.411 53.9766 -34.619 88.1329l-2.375 6.144h-108.645
c-86.386 0 -108.707 -0.153999 -108.946 -0.752007c-0.165985 -0.415993 -8.20499 -21.0552 -17.892 -45.9341c-9.68599 -24.8799 -18.135 -46.2637 -18.803 -47.5908c-2.12199 -4.2168 -6.256 -9.584 -10.294 -13.3603c-26.462 -24.7559 -69.712 -11.6993 -78.779 23.7822
c-1.432 5.6025 -1.54 16.1758 -0.223 21.747c0.68 2.879 175.574 452.892 189.731 488.193c1.42599 3.55402 3.83099 8.31104 5.362 10.603c4.12198 6.16998 11.259 12.58 17.645 15.848c6.14401 3.14398 8.38599 3.92896 14.277 5.00098zM378.495 306.626
c-19.31 49.519 -35.324 90.644 -35.573 91.355c-0.343994 0.987 -8.931 -20.481 -36.024 -90.06l-35.572 -91.356l35.783 -0.150009c19.699 -0.0829926 51.678 -0.0829926 71.145 0l35.361 0.150009zM522.29 738.912c4.85803 1.03601 15.723 0.692017 20.783 -0.657959
c2.008 -0.536011 6.02502 -2.14105 9.03601 -3.61005c9.82001 -4.79095 16.899 -11.873 21.687 -21.692c5.02399 -10.303 4.74597 -7.04901 4.995 -58.434c0.23999 -49.639 0.169983 -51.053 -2.96802 -59.699c-4.38 -12.071 -14.799 -22.795 -26.907 -27.694
c-6.698 -2.711 -10.843 -3.49799 -18.192 -3.45599c-7.591 0.0440063 -14.405 1.62 -20.663 4.77997c-13.79 6.96204 -23.196 19.382 -26.084 34.4431c-1.24799 6.50494 -1.24899 90.686 -0.000976562 97.1689c2.052 10.662 5.58499 17.21 13.615 25.2401
c7.83899 7.83899 14.277 11.387 24.699 13.611zM145.783 738.912c4.86 1.03601 15.724 0.692017 20.783 -0.657959c2.009 -0.536011 6.02501 -2.14105 9.037 -3.61005c9.819 -4.79095 16.899 -11.873 21.687 -21.692c5.02301 -10.303 4.74501 -7.04901 4.994 -58.434
c0.240005 -49.639 0.169998 -51.053 -2.967 -59.699c-4.38 -12.071 -14.798 -22.795 -26.907 -27.694c-6.698 -2.711 -10.844 -3.49799 -18.192 -3.45599c-7.591 0.0440063 -14.406 1.62 -20.663 4.77997c-13.789 6.96204 -23.196 19.382 -26.085 34.4431
c-1.248 6.50494 -1.248 90.686 0 97.1689c2.052 10.662 5.585 17.21 13.615 25.2401c7.839 7.83899 14.277 11.387 24.698 13.611z" />
    <glyph glyph-name="AE" unicode="&#xc6;" 
d="M380.724 738.841c5.97601 1.21002 152.289 1.27802 158.554 0.0739746c22.921 -4.40698 39.157 -23.915 39.157 -47.048s-16.261 -42.639 -39.217 -47.047c-3.56104 -0.682983 -13.675 -0.843994 -53.133 -0.843994h-48.734v-112.953v-112.951h48.734
c39.458 0 49.572 -0.16098 53.133 -0.843994c22.956 -4.40799 39.217 -23.916 39.217 -47.048c0 -23.132 -16.261 -42.64 -39.217 -47.047c-3.56104 -0.68399 -13.675 -0.843994 -53.133 -0.843994h-48.734v-113.253v-113.254h48.734
c39.458 0 49.572 -0.160103 53.133 -0.843704c22.956 -4.4073 39.217 -23.9151 39.217 -47.0479c0 -23.1318 -16.236 -42.6338 -39.157 -47.0342c-6.56604 -1.25977 -151.471 -1.27344 -158.012 -0.013672c-10.662 2.05176 -17.21 5.58399 -25.242 13.6142
c-6.14099 6.1426 -8.901 10.2412 -11.272 16.7471c-3.20001 8.7773 -3.186 8.4336 -3.18503 71.2659v58.373h-47.53c-44.699 0 -47.556 -0.0630035 -47.952 -1.054c-0.231003 -0.580002 -11.097 -30.271 -24.127 -65.9345
c-13.029 -35.6621 -24.291 -66.0459 -25.008 -67.4697c-2.21199 -4.3975 -6.27899 -9.7012 -10.384 -13.541c-26.462 -24.7559 -69.718 -11.6993 -78.791 23.7822c-1.586 6.2051 -1.58 16.3642 0.0149994 22.4697c2.092 8.0127 238.17 653.124 240.402 656.928
c2.686 4.57904 12.496 14.384 17.049 17.041c4.245 2.47699 10.241 4.71399 15.483 5.776zM341.356 256.837c0.115997 0.115997 0.143005 36.928 0.0599976 81.867l-0.149994 81.657l-29.85 -81.716l-29.85 -81.717l29.79 -0.152008
c16.385 -0.0820007 29.884 -0.0549927 30 0.0610046z" />
    <glyph glyph-name="Ntilde" unicode="&#xd1;" 
d="M147.591 497.82c2.993 0.585999 15.422 -0.136017 18.975 -1.103c4.88 -1.32602 12.468 -5.035 16.627 -8.12601c1.86601 -1.38602 69.62 -73.32 151.506 -160.851l148.133 -158.343l0.328003 144.699c0.368988 162.891 -0.164001 146.443 5.10098 157.29
c5.95801 12.271 16.739 21.252 30.174 25.128c6.20502 1.79099 18.253 1.94998 24.336 0.321991c5.48303 -1.46701 14.077 -5.86499 18.495 -9.465c7.36902 -6.005 13.585 -15.684 16.261 -25.323c1.04004 -3.74402 1.08801 -13.072 1.08801 -212.952
c0 -199.879 -0.0479736 -209.207 -1.08398 -212.951c-0.60199 -2.1757 -2.26001 -6.3261 -3.72998 -9.3379c-4.79102 -9.8193 -11.872 -16.8964 -21.692 -21.6797c-12.244 -5.96484 -24.397 -6.66015 -37.169 -2.12597c-6.686 2.37304 -10.877 5.07519 -17.108 11.0342
c-3.01599 2.8837 -70.622 74.8798 -150.302 160.061l-144.819 154.819l-0.328003 -144.759c-0.368988 -162.952 0.165009 -146.504 -5.11099 -157.349c-4.776 -9.8193 -11.85 -16.8964 -21.669 -21.6797c-6.45399 -3.14355 -11.265 -4.45996 -18.073 -4.94531
c-8.795 -0.625977 -19.39 1.89844 -27.228 6.48926c-4.519 2.64648 -14.362 12.4853 -17.01 17.0029c-2.711 4.6241 -5.152 11.627 -6.027 17.2891c-0.524002 3.3926 -0.653999 56.0244 -0.517998 211.145c0.172997 196.747 0.233002 206.799 1.274 210.242
c1.71 5.66199 6.08199 14.083 9.44399 18.192c7.264 8.879 17.656 14.839 30.126 17.278zM145.783 738.848c2.16899 0.436951 5.54199 0.816956 7.56099 0.850952c2.005 0.0320435 77.199 -7.79999 167.138 -17.41c89.941 -9.60999 163.752 -17.389 164.067 -17.289
c0.312988 0.098999 1.177 1.867 1.91199 3.91602c2.18201 6.08398 5.04599 10.301 11.13 16.385c6.28601 6.28595 10.422 9.021 17.349 11.474c12.772 4.52197 24.925 3.82098 37.169 -2.14301c9.82001 -4.78302 16.899 -11.861 21.686 -21.68
c4.72003 -9.68005 4.69904 -9.51801 4.96301 -38.254c0.255005 -27.77 0.0100098 -31.187 -2.81299 -39.217c-2.30798 -6.565 -5.02203 -10.864 -10.5 -16.626c-8.25 -8.67896 -18.094 -13.549 -29.841 -14.763c-5.526 -0.570984 -13.073 0.183044 -169.338 16.932
c-89.94 9.64001 -164.056 17.462 -164.669 17.379c-0.772995 -0.104004 -1.534 -1.29504 -2.48199 -3.88501c-2.09401 -5.72302 -4.96201 -10.114 -10.23 -15.663c-8.00099 -8.42596 -17.499 -13.251 -29.005 -14.734c-9.94 -1.28094 -21.584 1.35205 -30.482 6.89105
c-5.17999 3.224 -13.084 11.218 -16.09 16.277c-1.112 1.86798 -2.717 5.30103 -3.52299 7.52997c-2.888 7.98706 -3.158 11.145 -3.158 36.868c0 25.722 0.272003 28.88 3.185 36.868c2.372 6.50598 5.13 10.604 11.273 16.746c7.857 7.85699 14.458 11.477 24.698 13.547z
" />
    <glyph glyph-name="Oslash" unicode="&#xd8;" 
d="M327.591 738.858c22.049 3.00305 48.062 -1.39899 69.097 -11.692c25.004 -12.236 43.635 -30.78 57.312 -57.046c2.164 -4.15601 4.15701 -7.35797 4.40399 -7.078c0.248016 0.281006 7.32001 12.319 15.694 26.717c17.099 29.397 17.712 30.3701 21.953 34.88
c8.17502 8.69 19.733 14.086 31.962 14.918c19.157 1.30402 37.796 -9.84698 46.08 -27.569c5.88599 -12.591 5.92096 -27.71 0.09198 -40c-0.942017 -1.98596 -15.99 -28.012 -33.401 -57.771l-31.687 -54.156l26.054 -51.869c18.913 -37.65 26.982 -54.343 29.438 -60.903
c17.023 -45.468 18.88 -92.289 5.49402 -138.555c-4.98401 -17.224 -6.92303 -21.325 -63.083 -133.433c-29.785 -59.458 -55.779 -110.871 -57.747 -114.217c-4.996 -8.4942 -10.487 -15.6787 -17.587 -23.0117c-37.524 -38.7608 -95.34 -49.0381 -143.412 -25.4942
c-25.005 12.2461 -43.636 30.7949 -57.313 57.0596c-2.16499 4.1572 -4.157 7.3594 -4.40399 7.07909c-0.249008 -0.282196 -7.32001 -12.3193 -15.695 -26.7178c-17.205 -29.5781 -18.821 -32.0498 -24.276 -37.1533c-26.462 -24.7568 -69.72 -11.7012 -78.795 23.7803
c-2.43301 9.5185 -1.273 21.7851 2.924 30.9033c0.976997 2.1211 16.017 28.1934 33.432 57.9517l31.656 54.097l-18.523 37.47c-10.186 20.602 -21.426 43.26 -24.97 50.331c-3.53299 7.04901 -7.77799 16.101 -9.39399 20.03
c-7.25201 17.642 -12.175 36.687 -14.854 57.47c-1.529 11.868 -1.53 38.133 -0.0019989 50c2.639 20.482 7.262 38.583 14.388 56.325c3.967 9.88 110.092 222.745 114.577 229.82c15.817 24.951 39.321 43.425 66.61 52.359c8.702 2.84802 14.639 4.20398 23.976 5.47498z
M349.338 643.037c-10.301 2.42401 -20.157 -0.44696 -27.597 -8.03699c-3.11899 -3.18201 -6.30798 -9.39697 -56.138 -109.397c-29.057 -58.314 -53.794 -108.464 -54.972 -111.447c-2.57199 -6.51102 -5.42599 -17.108 -6.814 -25.301
c-1.418 -8.37402 -1.41701 -29.579 0.00300598 -37.952c1.12299 -6.62701 3.909 -17.585 5.849 -23.011c1.39899 -3.91599 23.56 -48.981 24.066 -48.94c0.410004 0.0329895 165.164 282.012 165.866 283.879c0.432983 1.15302 -2.32901 7.078 -16.438 35.272
c-15.888 31.7469 -17.175 34.1 -20.392 37.296c-4.108 4.08203 -8.19199 6.40503 -13.433 7.638zM462.865 439.337c-6.05298 12.169 -11.105 22.108 -11.238 22.108c-0.422028 0 -166.687 -284.758 -166.687 -285.481c0 -0.399002 7.604 -15.904 16.898 -34.458
c15.811 -31.567 17.118 -33.954 20.331 -37.147c4.10901 -4.083 8.19299 -6.4039 13.435 -7.6363c10.18 -2.3936 19.824 0.3134 27.167 7.6283c3.29401 3.28 4.66901 5.889 33.645 63.841c16.627 33.253 40.843 81.55 53.855 107.41
c20.341 40.421 24.031 48.167 26.405 55.421c5.37201 16.424 7.25601 31.567 5.98001 48.073c-1.56201 20.208 -4.83902 30.181 -19.791 60.241z" />
    <glyph glyph-name="exclam" unicode="!" 
d="M310.24 135.27c3.039 0.630997 10.663 0.774994 34.036 0.640991c33.856 -0.192993 32.843 -0.0769958 42.772 -4.905c9.819 -4.777 16.899 -11.85 21.688 -21.669c4.85501 -9.9552 4.81799 -9.6388 4.81799 -41.2647c0 -31.627 0.0370178 -31.3106 -4.81799 -41.2657
c-4.789 -9.8193 -11.869 -16.8925 -21.688 -21.6679c-9.86301 -4.79785 -9.15601 -4.71289 -41.567 -4.98047c-31.325 -0.258789 -34.437 -0.051758 -42.589 2.83008c-6.92801 2.44922 -11.065 5.1836 -17.35 11.4687c-6.14301 6.1426 -8.901 10.2412 -11.273 16.7471
c-2.91302 7.9873 -3.185 11.1445 -3.185 36.8682c0 25.7226 0.271973 28.8798 3.185 36.8667c2.37198 6.506 5.12997 10.605 11.273 16.748c7.82501 7.825 14.397 11.439 24.698 13.583zM312.349 739.365c0.993988 0.151001 15.362 0.208984 31.927 0.130005
c33.856 -0.161011 32.843 -0.0460205 42.772 -4.875c9.819 -4.77502 16.896 -11.849 21.681 -21.668c3.28601 -6.74603 4.48099 -11.145 4.91101 -18.072c0.231995 -3.745 -3.31702 -61.507 -11.472 -186.747c-6.495 -99.76 -11.963 -182.545 -12.153 -184.037
c-1.388 -10.844 -6.95401 -21.919 -14.593 -29.036c-4.98801 -4.64801 -11.747 -8.69901 -18.133 -10.868c-5.51401 -1.87198 -6.20499 -1.96198 -14.819 -1.93298c-8.55499 0.0279846 -9.345 0.132996 -14.82 1.95401c-17.575 5.849 -30.32 21.39 -32.709 39.883
c-1.09601 8.49399 -23.901 365.978 -23.632 370.482c0.40802 6.867 1.72702 11.815 4.90002 18.374c3.09 6.38495 7.26498 11.7209 12.525 16.006c5.96698 4.85999 15.905 9.23901 23.615 10.407z" />
    <glyph glyph-name="agrave" unicode="&#xe0;" 
d="M273.122 762.534c0.981995 0.166992 16.32 0.320007 34.119 0.338989c34.802 0.0400391 34.934 0.03302 40.457 -1.98297c3.681 -1.34503 6.46799 -3.11102 9.715 -6.159c1.99701 -1.87402 20.025 -24.721 62.412 -79.107c32.774 -42.051 23.392 -30.508 24.175 -31.624
c0.778015 -1.10901 1.793 -3.40002 2.608 -4.87701c8.133 -14.726 4.392 -37.123 -12.868 -46.794c-4.63199 -2.59497 -10.742 -4.98199 -16.283 -4.95697c-6.90701 0.0319824 -15.856 0.627014 -21.457 4.62799c-1.254 0.895996 -0.483002 0.379028 -49.745 42.522
c-59.697 51.072 -90.288 77.486 -91.734 79.2061c-7.394 8.802 -8.866 21.822 -3.661 32.3719c4.203 8.52002 12.736 14.819 22.262 16.434zM241.868 538.118c0.994141 0.140625 45.8438 0.202148 99.6992 0.136719c108.012 -0.130859 100.226 0.135742 116.867 -3.99414
c58.1318 -14.4229 100.628 -63.4775 107.177 -123.719c0.359375 -3.31348 2.56543 -60.7832 4.90137 -127.711s5.15527 -147.575 6.26562 -179.217c1.35645 -38.6748 1.84277 -58.8135 1.4834 -61.4463c-1.56055 -11.4453 -6.69434 -21.3477 -15.1885 -29.2988
c-26.4619 -24.7676 -69.7158 -11.7256 -78.7852 23.7568c-0.630859 2.46973 -1.15527 5.55566 -1.15527 6.80762c0 1.26465 -0.242188 2.4375 -0.541992 2.62012c-0.297852 0.181641 -15.9639 -8.65918 -34.7588 -19.6172
c-35.6631 -20.791 -40.1475 -23.1982 -46.627 -25.0293c-3.71191 -1.04883 -8.13184 -1.10645 -84.9395 -1.10645c-90.1191 0 -85.3828 -0.193359 -102.65 4.18066c-25.4824 6.4541 -48.3076 19.7412 -66.9131 38.9521c-21.6035 22.3066 -34.9141 50.0596 -38.8867 81.084
c-1.06348 8.2998 -1.18848 12.9521 -1.18848 44.1562c0 31.2051 0.125 35.8574 1.18652 44.1572c3.99219 31.2051 17.2607 58.7969 39.1055 81.3252c21.5566 22.2305 48.4434 36.1807 79.9492 41.4824l8.37305 1.40918h105.121h105.12l7.83008 -1.38574
c4.33887 -0.767578 10.3594 -2.04395 13.4951 -2.86133c3.13281 -0.816406 5.75684 -1.39453 5.87402 -1.29492c0.115234 0.0996094 -0.332031 15.6328 -0.994141 34.4883c-0.850586 24.2168 -1.48535 35.8125 -2.15723 39.4277
c-3.0498 16.3906 -14.4697 29.3164 -30.9756 35.0566l-5.72266 1.99121l-96.3857 0.326172c-108.373 0.367188 -98.3105 -0.101562 -109.036 5.0791c-12.1582 5.87402 -20.8643 16.2207 -25.1006 29.8359c-1.19434 3.83984 -1.40527 5.7832 -1.40527 12.9512
c0 7.16895 0.210938 9.11133 1.40918 12.9521c1.78516 5.72266 5.33301 12.5605 8.81152 16.9893c6.90723 8.78711 19.418 15.915 30.7432 17.5146zM445.784 239.268l-5.72363 1.99707l-98.1924 0.0908203c-54.0361 0.0488281 -99.5742 -0.140625 -101.266 -0.421875
c-1.70215 -0.28418 -5.05957 -1.22656 -7.5293 -2.11426c-14.1953 -5.10254 -24.1953 -15.8076 -28.9473 -30.9883l-1.41504 -4.51953v-34.6377v-34.6377l1.41699 -4.51855c5.06152 -16.1445 16.4082 -27.4785 32.3184 -32.2822
c3.37207 -1.01855 8.19238 -1.10352 71.9883 -1.27246l68.373 -0.180664l50.9043 29.6084c28.0117 16.2939 50.998 29.6904 51.1143 29.79c0.116211 0.0986328 -0.208984 10.9639 -0.722656 24.1562c-0.804688 20.6631 -1.10742 24.584 -2.19043 28.374
c-2.61621 9.15625 -8.19824 17.8066 -15.0088 23.2598c-5.34961 4.2832 -8.37305 5.94238 -15.1201 8.29688z" />
    <glyph glyph-name="aacute" unicode="&#xe1;" 
d="M468.878 762.534c-0.981995 0.166992 -16.32 0.320007 -34.119 0.338989c-34.802 0.0400391 -34.934 0.03302 -40.457 -1.98297c-3.681 -1.34503 -6.46799 -3.11102 -9.715 -6.159c-1.99701 -1.87402 -20.025 -24.721 -62.412 -79.107
c-32.774 -42.051 -23.392 -30.508 -24.175 -31.624c-0.778015 -1.10901 -1.793 -3.40002 -2.608 -4.87701c-8.133 -14.726 -4.392 -37.123 12.868 -46.794c4.63199 -2.59497 10.742 -4.98199 16.283 -4.95697c6.90701 0.0319824 15.856 0.627014 21.457 4.62799
c1.254 0.895996 0.483002 0.379028 49.745 42.522c59.697 51.072 90.288 77.486 91.734 79.2061c7.39398 8.802 8.866 21.822 3.66101 32.3719c-4.203 8.52002 -12.736 14.819 -22.262 16.434zM241.868 538.118c0.994141 0.140625 45.8438 0.202148 99.6992 0.136719
c108.012 -0.130859 100.226 0.135742 116.867 -3.99414c58.1318 -14.4229 100.628 -63.4775 107.177 -123.719c0.359375 -3.31348 2.56543 -60.7832 4.90137 -127.711s5.15527 -147.575 6.26562 -179.217c1.35645 -38.6748 1.84277 -58.8135 1.4834 -61.4463
c-1.56055 -11.4453 -6.69434 -21.3477 -15.1885 -29.2988c-26.4619 -24.7676 -69.7158 -11.7256 -78.7852 23.7568c-0.630859 2.46973 -1.15527 5.55566 -1.15527 6.80762c0 1.26465 -0.242188 2.4375 -0.541992 2.62012
c-0.297852 0.181641 -15.9639 -8.65918 -34.7588 -19.6172c-35.6631 -20.791 -40.1475 -23.1982 -46.627 -25.0293c-3.71191 -1.04883 -8.13184 -1.10645 -84.9395 -1.10645c-90.1191 0 -85.3828 -0.193359 -102.65 4.18066
c-25.4824 6.4541 -48.3076 19.7412 -66.9131 38.9521c-21.6035 22.3066 -34.9141 50.0596 -38.8867 81.084c-1.06348 8.2998 -1.18848 12.9521 -1.18848 44.1562c0 31.2051 0.125 35.8574 1.18652 44.1572c3.99219 31.2051 17.2607 58.7969 39.1055 81.3252
c21.5566 22.2305 48.4434 36.1807 79.9492 41.4824l8.37305 1.40918h105.121h105.12l7.83008 -1.38574c4.33887 -0.767578 10.3594 -2.04395 13.4951 -2.86133c3.13281 -0.816406 5.75684 -1.39453 5.87402 -1.29492
c0.115234 0.0996094 -0.332031 15.6328 -0.994141 34.4883c-0.850586 24.2168 -1.48535 35.8125 -2.15723 39.4277c-3.0498 16.3906 -14.4697 29.3164 -30.9756 35.0566l-5.72266 1.99121l-96.3857 0.326172c-108.373 0.367188 -98.3105 -0.101562 -109.036 5.0791
c-12.1582 5.87402 -20.8643 16.2207 -25.1006 29.8359c-1.19434 3.83984 -1.40527 5.7832 -1.40527 12.9512c0 7.16895 0.210938 9.11133 1.40918 12.9521c1.78516 5.72266 5.33301 12.5605 8.81152 16.9893c6.90723 8.78711 19.418 15.915 30.7432 17.5146z
M445.784 239.268l-5.72363 1.99707l-98.1924 0.0908203c-54.0361 0.0488281 -99.5742 -0.140625 -101.266 -0.421875c-1.70215 -0.28418 -5.05957 -1.22656 -7.5293 -2.11426c-14.1953 -5.10254 -24.1953 -15.8076 -28.9473 -30.9883l-1.41504 -4.51953v-34.6377v-34.6377
l1.41699 -4.51855c5.06152 -16.1445 16.4082 -27.4785 32.3184 -32.2822c3.37207 -1.01855 8.19238 -1.10352 71.9883 -1.27246l68.373 -0.180664l50.9043 29.6084c28.0117 16.2939 50.998 29.6904 51.1143 29.79c0.116211 0.0986328 -0.208984 10.9639 -0.722656 24.1562
c-0.804688 20.6631 -1.10742 24.584 -2.19043 28.374c-2.61621 9.15625 -8.19824 17.8066 -15.0088 23.2598c-5.34961 4.2832 -8.37305 5.94238 -15.1201 8.29688z" />
    <glyph glyph-name="egrave" unicode="&#xe8;" 
d="M273.122 762.534c0.981995 0.166992 16.32 0.320007 34.119 0.338989c34.802 0.0400391 34.934 0.03302 40.457 -1.98297c3.681 -1.34503 6.46799 -3.11102 9.715 -6.159c1.99701 -1.87402 20.025 -24.721 62.412 -79.107c32.774 -42.051 23.392 -30.508 24.175 -31.624
c0.778015 -1.10901 1.793 -3.40002 2.608 -4.87701c8.133 -14.726 4.392 -37.123 -12.868 -46.794c-4.63199 -2.59497 -10.742 -4.98199 -16.283 -4.95697c-6.90701 0.0319824 -15.856 0.627014 -21.457 4.62799c-1.254 0.895996 -0.483002 0.379028 -49.745 42.522
c-59.697 51.072 -90.288 77.486 -91.734 79.2061c-7.394 8.802 -8.866 21.822 -3.661 32.3719c4.203 8.52002 12.736 14.819 22.262 16.434zM267.471 537.663c4.75195 0.579102 23.2529 0.785156 74.3975 0.827148c73.916 0.0625 75.7256 -0.00390625 90.6631 -3.30469
c21.3848 -4.72559 42.8828 -15.0645 59.2764 -28.5088c15.0605 -12.3496 42.9131 -36.6904 47.6904 -41.6768c18.6895 -19.5078 31.1387 -43.374 36.4219 -69.8203c3.03418 -15.1895 3.11035 -17.5293 2.86914 -88.5537
c-0.251953 -74.1562 0.136719 -68.0303 -4.99121 -78.6143c-3.09375 -6.38574 -7.27051 -11.7197 -12.5322 -16.002c-4.10938 -3.34473 -12.5303 -7.70117 -18.1924 -9.41211c-3.43164 -1.03711 -12.1387 -1.09961 -172.199 -1.24219l-168.584 -0.151367l0.250977 -18.8555
c0.279297 -20.9639 0.46875 -22.2383 4.60059 -30.8428c4.0957 -8.53125 6.23242 -10.7588 28.7021 -29.9316c22.4102 -19.1221 25.4658 -21.2471 34.6387 -24.0898l4.51855 -1.40039l131.928 -0.298828c145.06 -0.329102 133.005 -0.00683594 142.35 -3.80762
c17.3301 -7.04785 29.1562 -24.9297 29.1562 -44.0869c0 -23.1318 -16.2607 -42.6416 -39.2168 -47.0508c-6.77246 -1.30078 -260.121 -1.25977 -271.266 0.0439453c-26.2041 3.06543 -51.8545 13.4023 -71.5664 28.8408
c-9.57812 7.50195 -45.3643 38.6836 -50.3027 43.8291c-21.791 22.71 -34.8066 50.7227 -38.5713 83.0117c-0.748047 6.41699 -0.884766 23.916 -0.884766 113.133c0 101.386 0.046875 105.905 1.18457 114.76c3.96777 30.8428 17.1172 58.5166 38.2705 80.542
c4.78418 4.98047 32.834 29.4951 47.6533 41.6465c20.3828 16.7129 46.5059 27.7021 73.7354 31.0166zM415.061 441.076l-4.51758 1.39355l-65.9639 0.117188c-68.916 0.12207 -70.1084 0.0839844 -76.9883 -2.43066c-6.95508 -2.54102 -11.0244 -5.48828 -30.8428 -22.3379
c-11.085 -9.42188 -21.623 -18.8662 -23.3809 -20.9512c-4.11523 -4.88184 -6.35352 -8.91602 -8.72559 -15.7227l-1.93066 -5.54199l-0.180664 -39.3076l-0.180664 -39.3076h140.422h140.422l-0.203125 39.0361c-0.227539 43.7959 -0.0214844 41.6504 -4.9502 51.627
c-1.4873 3.01172 -4.09668 7.1084 -5.87109 9.2168c-1.75391 2.08594 -12.2285 11.4697 -23.2529 20.833c-21.3252 18.1123 -24.9922 20.6436 -33.8555 23.376z" />
    <glyph glyph-name="eacute" unicode="&#xe9;" 
d="M468.878 762.534c-0.981995 0.166992 -16.32 0.320007 -34.119 0.338989c-34.802 0.0400391 -34.934 0.03302 -40.457 -1.98297c-3.681 -1.34503 -6.46799 -3.11102 -9.715 -6.159c-1.99701 -1.87402 -20.025 -24.721 -62.412 -79.107
c-32.774 -42.051 -23.392 -30.508 -24.175 -31.624c-0.778015 -1.10901 -1.793 -3.40002 -2.608 -4.87701c-8.133 -14.726 -4.392 -37.123 12.868 -46.794c4.63199 -2.59497 10.742 -4.98199 16.283 -4.95697c6.90701 0.0319824 15.856 0.627014 21.457 4.62799
c1.254 0.895996 0.483002 0.379028 49.745 42.522c59.697 51.072 90.288 77.486 91.734 79.2061c7.39398 8.802 8.866 21.822 3.66101 32.3719c-4.203 8.52002 -12.736 14.819 -22.262 16.434zM267.471 537.663c4.75195 0.579102 23.2529 0.785156 74.3975 0.827148
c73.916 0.0625 75.7256 -0.00390625 90.6631 -3.30469c21.3848 -4.72559 42.8828 -15.0645 59.2764 -28.5088c15.0605 -12.3496 42.9131 -36.6904 47.6904 -41.6768c18.6895 -19.5078 31.1387 -43.374 36.4219 -69.8203c3.03418 -15.1895 3.11035 -17.5293 2.86914 -88.5537
c-0.251953 -74.1562 0.136719 -68.0303 -4.99121 -78.6143c-3.09375 -6.38574 -7.27051 -11.7197 -12.5322 -16.002c-4.10938 -3.34473 -12.5303 -7.70117 -18.1924 -9.41211c-3.43164 -1.03711 -12.1387 -1.09961 -172.199 -1.24219l-168.584 -0.151367l0.250977 -18.8555
c0.279297 -20.9639 0.46875 -22.2383 4.60059 -30.8428c4.0957 -8.53125 6.23242 -10.7588 28.7021 -29.9316c22.4102 -19.1221 25.4658 -21.2471 34.6387 -24.0898l4.51855 -1.40039l131.928 -0.298828c145.06 -0.329102 133.005 -0.00683594 142.35 -3.80762
c17.3301 -7.04785 29.1562 -24.9297 29.1562 -44.0869c0 -23.1318 -16.2607 -42.6416 -39.2168 -47.0508c-6.77246 -1.30078 -260.121 -1.25977 -271.266 0.0439453c-26.2041 3.06543 -51.8545 13.4023 -71.5664 28.8408
c-9.57812 7.50195 -45.3643 38.6836 -50.3027 43.8291c-21.791 22.71 -34.8066 50.7227 -38.5713 83.0117c-0.748047 6.41699 -0.884766 23.916 -0.884766 113.133c0 101.386 0.046875 105.905 1.18457 114.76c3.96777 30.8428 17.1172 58.5166 38.2705 80.542
c4.78418 4.98047 32.834 29.4951 47.6533 41.6465c20.3828 16.7129 46.5059 27.7021 73.7354 31.0166zM415.061 441.076l-4.51758 1.39355l-65.9639 0.117188c-68.916 0.12207 -70.1084 0.0839844 -76.9883 -2.43066c-6.95508 -2.54102 -11.0244 -5.48828 -30.8428 -22.3379
c-11.085 -9.42188 -21.623 -18.8662 -23.3809 -20.9512c-4.11523 -4.88184 -6.35352 -8.91602 -8.72559 -15.7227l-1.93066 -5.54199l-0.180664 -39.3076l-0.180664 -39.3076h140.422h140.422l-0.203125 39.0361c-0.227539 43.7959 -0.0214844 41.6504 -4.9502 51.627
c-1.4873 3.01172 -4.09668 7.1084 -5.87109 9.2168c-1.75391 2.08594 -12.2285 11.4697 -23.2529 20.833c-21.3252 18.1123 -24.9922 20.6436 -33.8555 23.376z" />
  </font>
</defs>
</svg>
